<svg xmlns="http://www.w3.org/2000/svg" width="1400" height="642.75"><rect width="1400" height="642.75" rx="5" ry="5" class="a"/><svg y="0%" x="0%"><circle cx="20" cy="20" r="6" fill="#ff5f58"/><circle cx="40" cy="20" r="6" fill="#ffbd2e"/><circle cx="60" cy="20" r="6" fill="#18c132"/></svg><svg height="542.75" viewBox="0 0 132 54.275" width="1320" x="35" xmlns="http://www.w3.org/2000/svg" y="70"><style>.inserted-lf{fill:#999999;fill-opacity:.75;font-variant-position:sub;font-size:75%}.container{font-family:'JetBrains Mono','Monaco','Consolas','Menlo','Bitstream Vera Sans Mono','Lucida Console','Ubuntu Mono','Meslo for Powerline','Meslo LG M for Powerline','Powerline Symbols','Monospace','monospace'}.container>g{animation-play-state:running}.container_end{fill:whitesmoke;mix-blend-mode:soft-light;opacity:0;transition:opacity .2s ease-in-out}.container:hover>g{animation-play-state:paused}.container{pointer-events:all}.container:hover{cursor:wait}.container:hover>.container_end{opacity:1}.container>g>svg>svg>*{transform: scaleY(.95);}@keyframes k{0%{transform:translateX(0)}.04%{transform:translateX(-132px)}.39%{transform:translateX(-264px)}7.48%{transform:translateX(-1452px)}11.15%{transform:translateX(-1584px)}15.52%{transform:translateX(-1848px)}19.12%{transform:translateX(-1980px)}34.9%{transform:translateX(-2112px)}34.93%{transform:translateX(-2244px)}34.94%{transform:translateX(-2376px)}37.6%{transform:translateX(-2508px)}37.61%{transform:translateX(-2640px)}37.62%{transform:translateX(-3036px)}37.64%{transform:translateX(-3168px)}37.66%{transform:translateX(-3432px)}37.68%{transform:translateX(-3564px)}37.69%{transform:translateX(-3828px)}37.73%{transform:translateX(-4092px)}37.75%{transform:translateX(-4356px)}37.77%{transform:translateX(-4620px)}37.79%{transform:translateX(-5016px)}65.26%{transform:translateX(-5148px)}65.88%{transform:translateX(-5676px)}71.41%{transform:translateX(-5808px)}72.33%{transform:translateX(-6072px)}72.34%{transform:translateX(-6204px)}75.1%{transform:translateX(-6336px)}77.89%{transform:translateX(-6468px)}77.9%{transform:translateX(-6600px)}80.66%{transform:translateX(-6732px)}83.42%{transform:translateX(-6864px)}83.43%{transform:translateX(-6996px)}86.18%{transform:translateX(-7128px)}88.94%{transform:translateX(-7260px)}88.96%{transform:translateX(-7392px)}91.71%{transform:translateX(-7524px)}94.47%{transform:translateX(-7656px)}94.48%{transform:translateX(-7788px)}97.24%{transform:translateX(-7920px)}to{transform:translateX(-8052px)}}.a{fill:#2d2d2d}.f,.h{fill:#b0b0b0;white-space:pre}.h{fill:#29abe2}</style><g class="container" font-size="1.67"><defs><symbol id="1"><text y="1.67" class="f">Unable</text><text x="7.014" y="1.67" class="f">to</text><text x="10.02" y="1.67" class="f">find</text><text x="15.03" y="1.67" class="f">image</text><text x="21.042" y="1.67" class="f">&apos;rafib/awesome-cli-binaries:latest&apos;</text><text x="57.114" y="1.67" class="f">locally</text></symbol><symbol id="2"><text y="1.67" class="f">latest:</text><text x="8.016" y="1.67" class="f">Pulling</text><text x="16.032" y="1.67" class="f">from</text><text x="21.042" y="1.67" class="f">rafib/awesome-cli-binaries</text></symbol><symbol id="3"><text y="1.67" class="f">38a3d694730c:</text><text x="14.028" y="1.67" class="f">Pulling</text><text x="22.044" y="1.67" class="f">fs</text><text x="25.05" y="1.67" class="f">layer</text></symbol><symbol id="4"><text y="1.67" class="f">e639c20c5c17:</text></symbol><symbol id="5"><text y="1.67" class="f">e639c20c5c17:</text><text x="14.028" y="1.67" class="f">Pulling</text><text x="22.044" y="1.67" class="f">fs</text><text x="25.05" y="1.67" class="f">layer</text></symbol><symbol id="6"><text y="1.67" class="f">38a3d694730c:</text><text x="14.028" y="1.67" class="f">Verifying</text><text x="24.048" y="1.67" class="f">Checksum</text></symbol><symbol id="7"><text y="1.67" class="f">38a3d694730c:</text><text x="14.028" y="1.67" class="f">Download</text><text x="23.046" y="1.67" class="f">complete</text></symbol><symbol id="8"><text y="1.67" class="f">e639c20c5c17:</text><text x="14.028" y="1.67" class="f">Verifying</text><text x="24.048" y="1.67" class="f">Checksum</text></symbol><symbol id="9"><text y="1.67" class="f">e639c20c5c17:</text><text x="14.028" y="1.67" class="f">Download</text><text x="23.046" y="1.67" class="f">complete</text></symbol><symbol id="10"><text y="1.67" class="f">38a3d694730c:</text><text x="14.028" y="1.67" class="f">Pull</text><text x="19.038" y="1.67" class="f">complete</text></symbol><symbol id="11"><text y="1.67" class="f">e639c20c5c17:</text><text x="14.028" y="1.67" class="f">Pull</text><text x="19.038" y="1.67" class="f">complete</text></symbol><symbol id="12"><text y="1.67" class="f">Digest:</text><text x="8.016" y="1.67" class="f">sha256:fb91842ac2358552b93c05af757cee168b862f1a45e7c3eded52fc03bdbe4b9c</text></symbol><symbol id="13"><text y="1.67" class="f">Status:</text><text x="8.016" y="1.67" class="f">Downloaded</text><text x="19.038" y="1.67" class="f">newer</text><text x="25.05" y="1.67" class="f">image</text><text x="31.062" y="1.67" class="f">for</text><text x="35.07" y="1.67" class="f">rafib/awesome-cli-binaries:latest</text></symbol><symbol id="14"><text x="2.004" y="1.67" style="white-space:pre" fill="#c6c6c6" font-weight="700" text-decoration="underline">chafa</text><text x="17.034" y="1.67" class="f">hpjansson.org/chafa/</text><text x="38.076" y="1.67" class="h">↗</text></symbol><symbol id="15"><text x="2.004" y="1.67" class="h">colors</text><text x="27.054" y="1.67" class="h">none</text></symbol><symbol id="16"><text x="2.004" y="1.67" class="f">color-space</text><text x="27.054" y="1.67" class="f">rgb</text></symbol><symbol id="17"><text x="2.004" y="1.67" class="h">fill</text><text x="27.054" y="1.67" class="h">ascii</text></symbol><symbol id="18"><text x="2.004" y="1.67" class="f">format</text><text x="27.054" y="1.67" class="f">symbols</text></symbol><symbol id="19"><text x="2.004" y="1.67" class="f">size</text><text x="27.054" y="1.67" class="f">60x30</text></symbol><symbol id="20"><text x="2.004" y="1.67" class="f">speed</text><text x="27.054" y="1.67" class="f">0.25</text></symbol><symbol id="21"><text x="2.004" y="1.67" class="h">symbols</text><text x="27.054" y="1.67" class="h">ascii</text></symbol><symbol id="22"><text x="2.004" y="1.67" class="f">duration</text><text x="27.054" y="1.67" class="f">1</text></symbol><symbol id="23"><text x="2.004" y="1.67" class="f">nyan-cat-static.gif</text></symbol><symbol id="24"><text x="39.078" y="1.67" class="f">~.</text></symbol><symbol id="25"><text x="4.008" y="1.67" class="f">}:</text></symbol><symbol id="26"><text y="1.67" class="f">i&gt;::::::~iiiiii|::::::.______________,</text></symbol><symbol id="27"><text y="1.67" class="f">_,zzzzzzT______3zzzzz~jMMMMMMMM0MMMMMMf</text></symbol><symbol id="28"><text y="1.67" class="f">00MMM00MM0000000MMM0M&apos;JMMMMMMMM&quot;w_~4MMf._y</text></symbol><symbol id="29"><text y="1.67" class="f">MMMMMMMMMMMMMMMMP&apos;_^MlJMMMMMMMM</text><text x="32.064" y="1.67" class="f">#Mm____mM0</text></symbol><symbol id="30"><text y="1.67" class="f">&amp;&amp;~~~~~~&apos;&amp;&amp;&amp;&amp;&amp;&amp;Z&apos;\\\_:JMMM0MMM</text><text x="31.062" y="1.67" class="f">!M0f~M@*0f~m</text></symbol><symbol id="31"><text y="1.67" class="f">my_______mmmmmm_____}:JMWMMMMM</text><text x="31.062" y="1.67" class="f">!Mm-4#^w}-wM</text></symbol><symbol id="32"><text y="1.67" class="f">^^MMMMMMP^^^^^^^M0MMP&apos;JMM0MMMMm,~0_______~</text></symbol><symbol id="33"><text y="1.67" class="f">uTyyyyyy3uuuuuw_&apos;gy~we</text><text x="23.046" y="1.67" class="f">&quot;~~~~~~~~&apos;</text><text x="38.076" y="1.67" class="f">:</text></symbol><symbol id="34"><text x="2.004" y="1.67" class="f">.......</text><text x="14.028" y="1.67" class="f">`~_..,.</text><text x="24.048" y="1.67" class="f">..</text><text x="33.066" y="1.67" class="f">.</text><text x="37.074" y="1.67" class="f">.</text></symbol><symbol id="35"><text x="17.034" y="1.67" class="f">^</text><text x="19.038" y="1.67" class="f">.</text></symbol><symbol id="36"><text x="1.002" y="1.67" class="f">^</text></symbol><symbol id="37"><text x="1.002" y="1.67" class="f">:&apos;</text></symbol><symbol id="38"><text x="1.002" y="1.67" class="f">&quot;</text></symbol><symbol id="39"><text x="38.076" y="1.67" class="f">_</text></symbol><symbol id="40"><text x="37.074" y="1.67" class="f">-D-</text></symbol><symbol id="41"><text y="1.67" class="f">5</text></symbol><symbol id="42"><text y="1.67" class="f">4</text></symbol><symbol id="43"><text y="1.67" class="f">3</text></symbol><symbol id="44"><text y="1.67" class="f">2</text></symbol><symbol id="45"><text y="1.67" class="f">1</text></symbol><symbol id="a"><path fill="transparent" d="M0 0h132v26H0z"/></symbol><symbol id="b"><path fill="silver" d="M0 0h1.102v2.171H0z"/></symbol></defs><path class="a" d="M0 0h132v54.275H0z"/><g style="animation-duration:18.206854s;animation-iteration-count:infinite;animation-name:k;animation-timing-function:steps(1,end)"><svg width="8184"><svg><use href="#a"/><use href="#b" x="-.004"/></svg><svg x="132"><use href="#a"/><use href="#b" x="-.004"/></svg><svg x="264"><use href="#a"/><use href="#b" x="-.004" y="2.146"/><use href="#1"/></svg><svg x="396"><use href="#a"/><use href="#b" x="7.996" y="2.146"/><use href="#1"/><text y="3.841" class="f">latest:</text></svg><svg x="528"><use href="#a"/><use href="#b" x="46.996" y="2.146"/><use href="#1"/><use href="#2" y="2.171"/></svg><svg x="660"><use href="#a"/><use href="#b" x="-.004" y="4.317"/><use href="#1"/><use href="#2" y="2.171"/></svg><svg x="792"><use href="#a"/><use href="#b" x="13.996" y="4.317"/><use href="#1"/><use href="#2" y="2.171"/><text y="6.012" class="f">38a3d694730c:</text></svg><svg x="924"><use href="#a"/><use href="#b" x="29.996" y="4.317"/><use href="#1"/><use href="#2" y="2.171"/><use href="#3" y="4.342"/></svg><svg x="1056"><use href="#a"/><use href="#b" x="-.004" y="6.488"/><use href="#1"/><use href="#2" y="2.171"/><use href="#3" y="4.342"/></svg><svg x="1188"><use href="#a"/><use href="#b" x="13.996" y="6.488"/><use href="#1"/><use href="#2" y="2.171"/><use href="#3" y="4.342"/><use href="#4" y="6.513"/></svg><svg x="1320"><use href="#a"/><use href="#b" x="29.996" y="6.488"/><use href="#1"/><use href="#2" y="2.171"/><use href="#3" y="4.342"/><use href="#5" y="6.513"/></svg><svg x="1452"><use href="#a"/><use href="#b" x="-.004" y="8.659"/><use href="#1"/><use href="#2" y="2.171"/><use href="#3" y="4.342"/><use href="#5" y="6.513"/></svg><svg x="1584"><use href="#a"/><use href="#b" x="-.004" y="13.001"/><use href="#1"/><use href="#2" y="2.171"/><use href="#3" y="4.342"/><use href="#5" y="6.513"/><use href="#6" y="8.684"/><use href="#7" y="10.855"/></svg><svg x="1716"><use href="#a"/><use href="#b" x="13.996" y="15.172"/><use href="#1"/><use href="#2" y="2.171"/><use href="#3" y="4.342"/><use href="#5" y="6.513"/><use href="#6" y="8.684"/><use href="#7" y="10.855"/><use href="#8" y="13.026"/><use href="#4" y="15.197"/></svg><svg x="1848"><use href="#a"/><use href="#b" x="-.004" y="17.343"/><use href="#1"/><use href="#2" y="2.171"/><use href="#3" y="4.342"/><use href="#5" y="6.513"/><use href="#6" y="8.684"/><use href="#7" y="10.855"/><use href="#8" y="13.026"/><use href="#9" y="15.197"/></svg><svg x="1980"><use href="#a"/><use href="#b" x="-.004" y="19.514"/><use href="#1"/><use href="#2" y="2.171"/><use href="#3" y="4.342"/><use href="#5" y="6.513"/><use href="#6" y="8.684"/><use href="#7" y="10.855"/><use href="#8" y="13.026"/><use href="#9" y="15.197"/><use href="#10" y="17.368"/></svg><svg x="2112"><use href="#a"/><use href="#b" x="-.004" y="21.685"/><use href="#1"/><use href="#2" y="2.171"/><use href="#3" y="4.342"/><use href="#5" y="6.513"/><use href="#6" y="8.684"/><use href="#7" y="10.855"/><use href="#8" y="13.026"/><use href="#9" y="15.197"/><use href="#10" y="17.368"/><use href="#11" y="19.539"/></svg><svg x="2244"><use href="#a"/><use href="#b" x="-.004" y="23.856"/><use href="#1"/><use href="#2" y="2.171"/><use href="#3" y="4.342"/><use href="#5" y="6.513"/><use href="#6" y="8.684"/><use href="#7" y="10.855"/><use href="#8" y="13.026"/><use href="#9" y="15.197"/><use href="#10" y="17.368"/><use href="#11" y="19.539"/><use href="#12" y="21.71"/></svg><svg x="2376"><use href="#a"/><use href="#b" x="-.004" y="26.027"/><use href="#1"/><use href="#2" y="2.171"/><use href="#3" y="4.342"/><use href="#5" y="6.513"/><use href="#6" y="8.684"/><use href="#7" y="10.855"/><use href="#8" y="13.026"/><use href="#9" y="15.197"/><use href="#10" y="17.368"/><use href="#11" y="19.539"/><use href="#12" y="21.71"/><use href="#13" y="23.881"/></svg><svg x="2508"><use href="#a"/><use href="#1"/><use href="#2" y="2.171"/><use href="#3" y="4.342"/><use href="#5" y="6.513"/><use href="#6" y="8.684"/><use href="#7" y="10.855"/><use href="#8" y="13.026"/><use href="#9" y="15.197"/><use href="#10" y="17.368"/><use href="#11" y="19.539"/><use href="#12" y="21.71"/><use href="#13" y="23.881"/></svg><svg x="2640"><use href="#a"/></svg><svg x="2772"><use href="#a"/><use href="#14" y="2.171"/></svg><svg x="2904"><use href="#a"/><use href="#14" y="2.171"/></svg><svg x="3036"><use href="#a"/><use href="#14" y="2.171"/></svg><svg x="3168"><use href="#a"/><use href="#14" y="2.171"/><use href="#15" y="6.513"/></svg><svg x="3300"><use href="#a"/><use href="#14" y="2.171"/><use href="#15" y="6.513"/><use href="#16" y="8.684"/></svg><svg x="3432"><use href="#a"/><use href="#14" y="2.171"/><use href="#15" y="6.513"/><use href="#16" y="8.684"/></svg><svg x="3564"><use href="#a"/><use href="#14" y="2.171"/><use href="#15" y="6.513"/><use href="#16" y="8.684"/><use href="#17" y="10.855"/></svg><svg x="3696"><use href="#a"/><use href="#14" y="2.171"/><use href="#15" y="6.513"/><use href="#16" y="8.684"/><use href="#17" y="10.855"/><use href="#18" y="13.026"/></svg><svg x="3828"><use href="#a"/><use href="#14" y="2.171"/><use href="#15" y="6.513"/><use href="#16" y="8.684"/><use href="#17" y="10.855"/><use href="#18" y="13.026"/></svg><svg x="3960"><use href="#a"/><use href="#14" y="2.171"/><use href="#15" y="6.513"/><use href="#16" y="8.684"/><use href="#17" y="10.855"/><use href="#18" y="13.026"/><use href="#19" y="15.197"/></svg><svg x="4092"><use href="#a"/><use href="#14" y="2.171"/><use href="#15" y="6.513"/><use href="#16" y="8.684"/><use href="#17" y="10.855"/><use href="#18" y="13.026"/><use href="#19" y="15.197"/><use href="#20" y="17.368"/></svg><svg x="4224"><use href="#a"/><use href="#14" y="2.171"/><use href="#15" y="6.513"/><use href="#16" y="8.684"/><use href="#17" y="10.855"/><use href="#18" y="13.026"/><use href="#19" y="15.197"/><use href="#20" y="17.368"/><use href="#21" y="19.539"/></svg><svg x="4356"><use href="#a"/><use href="#14" y="2.171"/><use href="#15" y="6.513"/><use href="#16" y="8.684"/><use href="#17" y="10.855"/><use href="#18" y="13.026"/><use href="#19" y="15.197"/><use href="#20" y="17.368"/><use href="#21" y="19.539"/></svg><svg x="4488"><use href="#a"/><use href="#14" y="2.171"/><use href="#15" y="6.513"/><use href="#16" y="8.684"/><use href="#17" y="10.855"/><use href="#18" y="13.026"/><use href="#19" y="15.197"/><use href="#20" y="17.368"/><use href="#21" y="19.539"/><use href="#22" y="21.71"/></svg><svg x="4620"><use href="#a"/><use href="#14" y="2.171"/><use href="#15" y="6.513"/><use href="#16" y="8.684"/><use href="#17" y="10.855"/><use href="#18" y="13.026"/><use href="#19" y="15.197"/><use href="#20" y="17.368"/><use href="#21" y="19.539"/><use href="#22" y="21.71"/></svg><svg x="4752"><use href="#a"/><use href="#14" y="2.171"/><use href="#15" y="6.513"/><use href="#16" y="8.684"/><use href="#17" y="10.855"/><use href="#18" y="13.026"/><use href="#19" y="15.197"/><use href="#20" y="17.368"/><use href="#21" y="19.539"/><use href="#22" y="21.71"/></svg><svg x="4884"><use href="#a"/><use href="#14" y="2.171"/><use href="#15" y="6.513"/><use href="#16" y="8.684"/><use href="#17" y="10.855"/><use href="#18" y="13.026"/><use href="#19" y="15.197"/><use href="#20" y="17.368"/><use href="#21" y="19.539"/><use href="#22" y="21.71"/><use href="#23" y="26.052"/></svg><svg x="5016"><use href="#a"/><use href="#14" y="2.171"/><use href="#15" y="6.513"/><use href="#16" y="8.684"/><use href="#17" y="10.855"/><use href="#18" y="13.026"/><use href="#19" y="15.197"/><use href="#20" y="17.368"/><use href="#21" y="19.539"/><use href="#22" y="21.71"/><use href="#23" y="26.052"/></svg><svg x="5148"><use href="#a"/></svg><svg x="5280"><use href="#a"/><use href="#24"/></svg><svg x="5412"><use href="#a"/><use href="#24"/><use href="#25" y="19.539"/><use href="#26" y="23.881"/><use href="#27" y="26.052"/><use href="#28" y="28.223"/><use href="#29" y="30.394"/><use href="#30" y="32.565"/><use href="#31" y="34.736"/><text y="38.577" class="f">^^MMMMMMP^^^^^</text></svg><svg x="5544"><use href="#a"/><use href="#25" y="13.026"/><use href="#26" y="17.368"/><use href="#27" y="19.539"/><use href="#28" y="21.71"/><use href="#29" y="23.881"/><use href="#30" y="26.052"/><use href="#31" y="28.223"/><use href="#32" y="30.394"/><use href="#33" y="32.565"/><use href="#34" y="34.736"/><use href="#35" y="36.907"/><use href="#36" y="43.42"/><use href="#37" y="45.591"/><use href="#38" y="47.762"/><use href="#39" y="52.104"/><use href="#40" y="54.275"/></svg><svg x="5676"><use href="#a"/><use href="#25" y="8.684"/><use href="#26" y="13.026"/><use href="#27" y="15.197"/><use href="#28" y="17.368"/><use href="#29" y="19.539"/><use href="#30" y="21.71"/><use href="#31" y="23.881"/><use href="#32" y="26.052"/><use href="#33" y="28.223"/><use href="#34" y="30.394"/><use href="#35" y="32.565"/><use href="#36" y="39.078"/><use href="#37" y="41.249"/><use href="#38" y="43.42"/><use href="#39" y="47.762"/><use href="#40" y="49.933"/></svg><svg x="5808"><use href="#a"/><use href="#b" x="-.004" y="54.25"/><use href="#25" y="8.684"/><use href="#26" y="13.026"/><use href="#27" y="15.197"/><use href="#28" y="17.368"/><use href="#29" y="19.539"/><use href="#30" y="21.71"/><use href="#31" y="23.881"/><use href="#32" y="26.052"/><use href="#33" y="28.223"/><use href="#34" y="30.394"/><use href="#35" y="32.565"/><use href="#36" y="39.078"/><use href="#37" y="41.249"/><use href="#38" y="43.42"/><use href="#39" y="47.762"/><use href="#40" y="49.933"/></svg><svg x="5940"><use href="#a"/><use href="#b" x="-.004" y="54.25"/><use href="#25" y="6.513"/><use href="#26" y="10.855"/><use href="#27" y="13.026"/><use href="#28" y="15.197"/><use href="#29" y="17.368"/><use href="#30" y="19.539"/><use href="#31" y="21.71"/><use href="#32" y="23.881"/><use href="#33" y="26.052"/><use href="#34" y="28.223"/><use href="#35" y="30.394"/><use href="#36" y="36.907"/><use href="#37" y="39.078"/><use href="#38" y="41.249"/><use href="#39" y="45.591"/><use href="#40" y="47.762"/></svg><svg x="6072"><use href="#a"/><use href="#25" y="6.513"/><use href="#26" y="10.855"/><use href="#27" y="13.026"/><use href="#28" y="15.197"/><use href="#29" y="17.368"/><use href="#30" y="19.539"/><use href="#31" y="21.71"/><use href="#32" y="23.881"/><use href="#33" y="26.052"/><use href="#34" y="28.223"/><use href="#35" y="30.394"/><use href="#36" y="36.907"/><use href="#37" y="39.078"/><use href="#38" y="41.249"/><use href="#39" y="45.591"/><use href="#40" y="47.762"/></svg><svg x="6204"><use href="#a"/><use href="#25" y="6.513"/><use href="#26" y="10.855"/><use href="#27" y="13.026"/><use href="#28" y="15.197"/><use href="#29" y="17.368"/><use href="#30" y="19.539"/><use href="#31" y="21.71"/><use href="#32" y="23.881"/><use href="#33" y="26.052"/><use href="#34" y="28.223"/><use href="#35" y="30.394"/><use href="#36" y="36.907"/><use href="#37" y="39.078"/><use href="#38" y="41.249"/><use href="#39" y="45.591"/><use href="#40" y="47.762"/><use href="#41" y="54.275"/></svg><svg x="6336"><use href="#a"/><use href="#b" x="-.004" y="54.25"/><use href="#25" y="6.513"/><use href="#26" y="10.855"/><use href="#27" y="13.026"/><use href="#28" y="15.197"/><use href="#29" y="17.368"/><use href="#30" y="19.539"/><use href="#31" y="21.71"/><use href="#32" y="23.881"/><use href="#33" y="26.052"/><use href="#34" y="28.223"/><use href="#35" y="30.394"/><use href="#36" y="36.907"/><use href="#37" y="39.078"/><use href="#38" y="41.249"/><use href="#39" y="45.591"/><use href="#40" y="47.762"/><use href="#41" y="54.275"/></svg><svg x="6468"><use href="#a"/><use href="#25" y="6.513"/><use href="#26" y="10.855"/><use href="#27" y="13.026"/><use href="#28" y="15.197"/><use href="#29" y="17.368"/><use href="#30" y="19.539"/><use href="#31" y="21.71"/><use href="#32" y="23.881"/><use href="#33" y="26.052"/><use href="#34" y="28.223"/><use href="#35" y="30.394"/><use href="#36" y="36.907"/><use href="#37" y="39.078"/><use href="#38" y="41.249"/><use href="#39" y="45.591"/><use href="#40" y="47.762"/><use href="#41" y="54.275"/></svg><svg x="6600"><use href="#a"/><use href="#25" y="6.513"/><use href="#26" y="10.855"/><use href="#27" y="13.026"/><use href="#28" y="15.197"/><use href="#29" y="17.368"/><use href="#30" y="19.539"/><use href="#31" y="21.71"/><use href="#32" y="23.881"/><use href="#33" y="26.052"/><use href="#34" y="28.223"/><use href="#35" y="30.394"/><use href="#36" y="36.907"/><use href="#37" y="39.078"/><use href="#38" y="41.249"/><use href="#39" y="45.591"/><use href="#40" y="47.762"/><use href="#42" y="54.275"/></svg><svg x="6732"><use href="#a"/><use href="#b" x="-.004" y="54.25"/><use href="#25" y="6.513"/><use href="#26" y="10.855"/><use href="#27" y="13.026"/><use href="#28" y="15.197"/><use href="#29" y="17.368"/><use href="#30" y="19.539"/><use href="#31" y="21.71"/><use href="#32" y="23.881"/><use href="#33" y="26.052"/><use href="#34" y="28.223"/><use href="#35" y="30.394"/><use href="#36" y="36.907"/><use href="#37" y="39.078"/><use href="#38" y="41.249"/><use href="#39" y="45.591"/><use href="#40" y="47.762"/><use href="#42" y="54.275"/></svg><svg x="6864"><use href="#a"/><use href="#25" y="6.513"/><use href="#26" y="10.855"/><use href="#27" y="13.026"/><use href="#28" y="15.197"/><use href="#29" y="17.368"/><use href="#30" y="19.539"/><use href="#31" y="21.71"/><use href="#32" y="23.881"/><use href="#33" y="26.052"/><use href="#34" y="28.223"/><use href="#35" y="30.394"/><use href="#36" y="36.907"/><use href="#37" y="39.078"/><use href="#38" y="41.249"/><use href="#39" y="45.591"/><use href="#40" y="47.762"/><use href="#42" y="54.275"/></svg><svg x="6996"><use href="#a"/><use href="#25" y="6.513"/><use href="#26" y="10.855"/><use href="#27" y="13.026"/><use href="#28" y="15.197"/><use href="#29" y="17.368"/><use href="#30" y="19.539"/><use href="#31" y="21.71"/><use href="#32" y="23.881"/><use href="#33" y="26.052"/><use href="#34" y="28.223"/><use href="#35" y="30.394"/><use href="#36" y="36.907"/><use href="#37" y="39.078"/><use href="#38" y="41.249"/><use href="#39" y="45.591"/><use href="#40" y="47.762"/><use href="#43" y="54.275"/></svg><svg x="7128"><use href="#a"/><use href="#b" x="-.004" y="54.25"/><use href="#25" y="6.513"/><use href="#26" y="10.855"/><use href="#27" y="13.026"/><use href="#28" y="15.197"/><use href="#29" y="17.368"/><use href="#30" y="19.539"/><use href="#31" y="21.71"/><use href="#32" y="23.881"/><use href="#33" y="26.052"/><use href="#34" y="28.223"/><use href="#35" y="30.394"/><use href="#36" y="36.907"/><use href="#37" y="39.078"/><use href="#38" y="41.249"/><use href="#39" y="45.591"/><use href="#40" y="47.762"/><use href="#43" y="54.275"/></svg><svg x="7260"><use href="#a"/><use href="#25" y="6.513"/><use href="#26" y="10.855"/><use href="#27" y="13.026"/><use href="#28" y="15.197"/><use href="#29" y="17.368"/><use href="#30" y="19.539"/><use href="#31" y="21.71"/><use href="#32" y="23.881"/><use href="#33" y="26.052"/><use href="#34" y="28.223"/><use href="#35" y="30.394"/><use href="#36" y="36.907"/><use href="#37" y="39.078"/><use href="#38" y="41.249"/><use href="#39" y="45.591"/><use href="#40" y="47.762"/><use href="#43" y="54.275"/></svg><svg x="7392"><use href="#a"/><use href="#25" y="6.513"/><use href="#26" y="10.855"/><use href="#27" y="13.026"/><use href="#28" y="15.197"/><use href="#29" y="17.368"/><use href="#30" y="19.539"/><use href="#31" y="21.71"/><use href="#32" y="23.881"/><use href="#33" y="26.052"/><use href="#34" y="28.223"/><use href="#35" y="30.394"/><use href="#36" y="36.907"/><use href="#37" y="39.078"/><use href="#38" y="41.249"/><use href="#39" y="45.591"/><use href="#40" y="47.762"/><use href="#44" y="54.275"/></svg><svg x="7524"><use href="#a"/><use href="#b" x="-.004" y="54.25"/><use href="#25" y="6.513"/><use href="#26" y="10.855"/><use href="#27" y="13.026"/><use href="#28" y="15.197"/><use href="#29" y="17.368"/><use href="#30" y="19.539"/><use href="#31" y="21.71"/><use href="#32" y="23.881"/><use href="#33" y="26.052"/><use href="#34" y="28.223"/><use href="#35" y="30.394"/><use href="#36" y="36.907"/><use href="#37" y="39.078"/><use href="#38" y="41.249"/><use href="#39" y="45.591"/><use href="#40" y="47.762"/><use href="#44" y="54.275"/></svg><svg x="7656"><use href="#a"/><use href="#25" y="6.513"/><use href="#26" y="10.855"/><use href="#27" y="13.026"/><use href="#28" y="15.197"/><use href="#29" y="17.368"/><use href="#30" y="19.539"/><use href="#31" y="21.71"/><use href="#32" y="23.881"/><use href="#33" y="26.052"/><use href="#34" y="28.223"/><use href="#35" y="30.394"/><use href="#36" y="36.907"/><use href="#37" y="39.078"/><use href="#38" y="41.249"/><use href="#39" y="45.591"/><use href="#40" y="47.762"/><use href="#44" y="54.275"/></svg><svg x="7788"><use href="#a"/><use href="#25" y="6.513"/><use href="#26" y="10.855"/><use href="#27" y="13.026"/><use href="#28" y="15.197"/><use href="#29" y="17.368"/><use href="#30" y="19.539"/><use href="#31" y="21.71"/><use href="#32" y="23.881"/><use href="#33" y="26.052"/><use href="#34" y="28.223"/><use href="#35" y="30.394"/><use href="#36" y="36.907"/><use href="#37" y="39.078"/><use href="#38" y="41.249"/><use href="#39" y="45.591"/><use href="#40" y="47.762"/><use href="#45" y="54.275"/></svg><svg x="7920"><use href="#a"/><use href="#b" x="-.004" y="54.25"/><use href="#25" y="6.513"/><use href="#26" y="10.855"/><use href="#27" y="13.026"/><use href="#28" y="15.197"/><use href="#29" y="17.368"/><use href="#30" y="19.539"/><use href="#31" y="21.71"/><use href="#32" y="23.881"/><use href="#33" y="26.052"/><use href="#34" y="28.223"/><use href="#35" y="30.394"/><use href="#36" y="36.907"/><use href="#37" y="39.078"/><use href="#38" y="41.249"/><use href="#39" y="45.591"/><use href="#40" y="47.762"/><use href="#45" y="54.275"/></svg><svg x="8052"><use href="#a"/><use href="#25" y="6.513"/><use href="#26" y="10.855"/><use href="#27" y="13.026"/><use href="#28" y="15.197"/><use href="#29" y="17.368"/><use href="#30" y="19.539"/><use href="#31" y="21.71"/><use href="#32" y="23.881"/><use href="#33" y="26.052"/><use href="#34" y="28.223"/><use href="#35" y="30.394"/><use href="#36" y="36.907"/><use href="#37" y="39.078"/><use href="#38" y="41.249"/><use href="#39" y="45.591"/><use href="#40" y="47.762"/><use href="#45" y="54.275"/></svg></svg></g><svg height="100%" width="100%" viewBox="0 0 100 100" class="container_end"><text text-anchor="middle" alignment-baseline="central"><tspan y="50" x="50" style="font-size: 50px;">❚❚</tspan></text></svg></g></svg></svg>
