<svg xmlns="http://www.w3.org/2000/svg" width="1400" height="642.75"><rect width="1400" height="642.75" rx="5" ry="5" class="a"/><svg y="0%" x="0%"><circle cx="20" cy="20" r="6" fill="#ff5f58"/><circle cx="40" cy="20" r="6" fill="#ffbd2e"/><circle cx="60" cy="20" r="6" fill="#18c132"/></svg><svg height="542.75" viewBox="0 0 132 54.275" width="1320" x="35" xmlns="http://www.w3.org/2000/svg" y="70"><style>.inserted-lf{fill:#999999;fill-opacity:.75;font-variant-position:sub;font-size:75%}.container{font-family:'JetBrains Mono','Monaco','Consolas','Menlo','Bitstream Vera Sans Mono','Lucida Console','Ubuntu Mono','Meslo for Powerline','Meslo LG M for Powerline','Powerline Symbols','Monospace','monospace'}.container>g{animation-play-state:running}.container_end{fill:whitesmoke;mix-blend-mode:soft-light;opacity:0;transition:opacity .2s ease-in-out}.container:hover>g{animation-play-state:paused}.container{pointer-events:all}.container:hover{cursor:wait}.container:hover>.container_end{opacity:1}.container>g>svg>svg>*{transform: scaleY(.95);}@keyframes k{0%{transform:translateX(0)}.2%{transform:translateX(-132px)}11.8%{transform:translateX(-528px)}11.9%{transform:translateX(-660px)}12%{transform:translateX(-924px)}12.1%{transform:translateX(-1056px)}12.2%{transform:translateX(-1188px)}12.3%{transform:translateX(-1320px)}12.4%{transform:translateX(-1452px)}12.5%{transform:translateX(-1716px)}80.9%{transform:translateX(-1848px)}85.3%{transform:translateX(-1980px)}85.4%{transform:translateX(-2376px)}to{transform:translateX(-2508px)}}.a{fill:#2d2d2d}.g,.h{fill:#b0b0b0;white-space:pre}.h{fill:#29abe2}</style><g class="container" font-size="1.67"><defs><symbol id="1"><text x="2.004" y="1.67" style="white-space:pre" fill="#c6c6c6" font-weight="700" text-decoration="underline">chafa</text><text x="17.034" y="1.67" class="g">hpjansson.org/chafa/</text><text x="38.076" y="1.67" class="h">↗</text></symbol><symbol id="2"><text x="2.004" y="1.67" class="h">colors</text><text x="27.054" y="1.67" class="h">none</text></symbol><symbol id="3"><text x="2.004" y="1.67" class="g">color-space</text><text x="27.054" y="1.67" class="g">rgb</text></symbol><symbol id="4"><text x="2.004" y="1.67" class="h">fill</text><text x="27.054" y="1.67" class="h">ascii</text></symbol><symbol id="5"><text x="2.004" y="1.67" class="g">format</text><text x="27.054" y="1.67" class="g">symbols</text></symbol><symbol id="6"><text x="2.004" y="1.67" class="g">size</text><text x="27.054" y="1.67" class="g">60x30</text></symbol><symbol id="7"><text x="2.004" y="1.67" class="g">speed</text><text x="27.054" y="1.67" class="g">0.25</text></symbol><symbol id="8"><text x="2.004" y="1.67" class="h">symbols</text><text x="27.054" y="1.67" class="h">ascii</text></symbol><symbol id="9"><text x="2.004" y="1.67" class="g">duration</text><text x="27.054" y="1.67" class="g">1</text></symbol><symbol id="10"><text x="39.078" y="1.67" class="g">~.</text></symbol><symbol id="11"><text x="4.008" y="1.67" class="g">}:</text></symbol><symbol id="12"><text y="1.67" class="g">i&gt;::::::~iiiiii|::::::.______________,</text></symbol><symbol id="13"><text y="1.67" class="g">_,zzzzzzT______3zzzzz~jMMMMMMMM0MMMMMMf</text></symbol><symbol id="14"><text y="1.67" class="g">00MMM00MM0000000MMM0M&apos;JMMMMMMMM&quot;w_~4MMf._y</text></symbol><symbol id="15"><text y="1.67" class="g">MMMMMMMMMMMMMMMMP&apos;_^MlJMMMMMMMM</text><text x="32.064" y="1.67" class="g">#Mm____mM0</text></symbol><symbol id="16"><text y="1.67" class="g">&amp;&amp;~~~~~~&apos;&amp;&amp;&amp;&amp;&amp;&amp;Z&apos;\\\_:JMMM0MMM</text><text x="31.062" y="1.67" class="g">!M0f~M@*0f~m</text></symbol><symbol id="17"><text y="1.67" class="g">my_______mmmmmm_____}:JMWMMMMM</text><text x="31.062" y="1.67" class="g">!Mm-4#^w}-wM</text></symbol><symbol id="18"><text y="1.67" class="g">^^MMMMMMP^^^^^^^M0MMP&apos;JMM0MMMMm,~0_______~</text></symbol><symbol id="19"><text y="1.67" class="g">uTyyyyyy3uuuuuw_&apos;gy~we</text><text x="23.046" y="1.67" class="g">&quot;~~~~~~~~&apos;</text><text x="38.076" y="1.67" class="g">:</text></symbol><symbol id="20"><text x="2.004" y="1.67" class="g">.......</text><text x="14.028" y="1.67" class="g">`~_..,.</text><text x="24.048" y="1.67" class="g">..</text><text x="33.066" y="1.67" class="g">.</text><text x="37.074" y="1.67" class="g">.</text></symbol><symbol id="21"><text x="17.034" y="1.67" class="g">^</text><text x="19.038" y="1.67" class="g">.</text></symbol><symbol id="22"><text x="1.002" y="1.67" class="g">^</text></symbol><symbol id="23"><text x="1.002" y="1.67" class="g">:&apos;</text></symbol><symbol id="24"><text x="1.002" y="1.67" class="g">&quot;</text></symbol><symbol id="25"><text x="38.076" y="1.67" class="g">_</text></symbol><symbol id="26"><text x="37.074" y="1.67" class="g">-D-</text></symbol><symbol id="a"><path fill="transparent" d="M0 0h132v26H0z"/></symbol><symbol id="b"><path fill="silver" d="M0 0h1.102v2.171H0z"/></symbol></defs><path class="a" d="M0 0h132v54.275H0z"/><g style="animation-duration:7.321747s;animation-iteration-count:infinite;animation-name:k;animation-timing-function:steps(1,end)"><svg width="2640"><svg><use href="#a"/><use href="#b" x="-.004"/></svg><svg x="132"><use href="#a"/><use href="#b" x="-.004"/></svg><svg x="264"><use href="#a"/></svg><svg x="396"><use href="#a"/></svg><svg x="528"><use href="#a"/><use href="#1" y="2.171"/></svg><svg x="660"><use href="#a"/><use href="#1" y="2.171"/><use href="#2" y="6.513"/></svg><svg x="792"><use href="#a"/><use href="#1" y="2.171"/><use href="#2" y="6.513"/><use href="#3" y="8.684"/></svg><svg x="924"><use href="#a"/><use href="#1" y="2.171"/><use href="#2" y="6.513"/><use href="#3" y="8.684"/><use href="#4" y="10.855"/></svg><svg x="1056"><use href="#a"/><use href="#1" y="2.171"/><use href="#2" y="6.513"/><use href="#3" y="8.684"/><use href="#4" y="10.855"/><use href="#5" y="13.026"/></svg><svg x="1188"><use href="#a"/><use href="#1" y="2.171"/><use href="#2" y="6.513"/><use href="#3" y="8.684"/><use href="#4" y="10.855"/><use href="#5" y="13.026"/><use href="#6" y="15.197"/></svg><svg x="1320"><use href="#a"/><use href="#1" y="2.171"/><use href="#2" y="6.513"/><use href="#3" y="8.684"/><use href="#4" y="10.855"/><use href="#5" y="13.026"/><use href="#6" y="15.197"/><use href="#7" y="17.368"/></svg><svg x="1452"><use href="#a"/><use href="#1" y="2.171"/><use href="#2" y="6.513"/><use href="#3" y="8.684"/><use href="#4" y="10.855"/><use href="#5" y="13.026"/><use href="#6" y="15.197"/><use href="#7" y="17.368"/><use href="#8" y="19.539"/></svg><svg x="1584"><use href="#a"/><use href="#1" y="2.171"/><use href="#2" y="6.513"/><use href="#3" y="8.684"/><use href="#4" y="10.855"/><use href="#5" y="13.026"/><use href="#6" y="15.197"/><use href="#7" y="17.368"/><use href="#8" y="19.539"/><use href="#9" y="21.71"/></svg><svg x="1716"><use href="#a"/><use href="#1" y="2.171"/><use href="#2" y="6.513"/><use href="#3" y="8.684"/><use href="#4" y="10.855"/><use href="#5" y="13.026"/><use href="#6" y="15.197"/><use href="#7" y="17.368"/><use href="#8" y="19.539"/><use href="#9" y="21.71"/><text x="2.004" y="27.722" class="g">nyan-cat-static.gif</text></svg><svg x="1848"><use href="#a"/></svg><svg x="1980"><use href="#a"/><use href="#10"/><use href="#11" y="19.539"/><use href="#12" y="23.881"/><use href="#13" y="26.052"/><use href="#14" y="28.223"/><use href="#15" y="30.394"/><use href="#16" y="32.565"/><text y="36.406" class="g">my_______mmmmmm_</text></svg><svg x="2112"><use href="#a"/><use href="#10"/><use href="#11" y="19.539"/><use href="#12" y="23.881"/><use href="#13" y="26.052"/><use href="#14" y="28.223"/><use href="#15" y="30.394"/><use href="#16" y="32.565"/><use href="#17" y="34.736"/><use href="#18" y="36.907"/><use href="#19" y="39.078"/><use href="#20" y="41.249"/><use href="#21" y="43.42"/></svg><svg x="2244"><use href="#a"/><use href="#10"/><use href="#11" y="19.539"/><use href="#12" y="23.881"/><use href="#13" y="26.052"/><use href="#14" y="28.223"/><use href="#15" y="30.394"/><use href="#16" y="32.565"/><use href="#17" y="34.736"/><use href="#18" y="36.907"/><use href="#19" y="39.078"/><use href="#20" y="41.249"/><use href="#21" y="43.42"/></svg><svg x="2376"><use href="#a"/><use href="#11" y="8.684"/><use href="#12" y="13.026"/><use href="#13" y="15.197"/><use href="#14" y="17.368"/><use href="#15" y="19.539"/><use href="#16" y="21.71"/><use href="#17" y="23.881"/><use href="#18" y="26.052"/><use href="#19" y="28.223"/><use href="#20" y="30.394"/><use href="#21" y="32.565"/><use href="#22" y="39.078"/><use href="#23" y="41.249"/><use href="#24" y="43.42"/><use href="#25" y="47.762"/><use href="#26" y="49.933"/></svg><svg x="2508"><use href="#a"/><use href="#b" x="-.004" y="54.25"/><use href="#11" y="8.684"/><use href="#12" y="13.026"/><use href="#13" y="15.197"/><use href="#14" y="17.368"/><use href="#15" y="19.539"/><use href="#16" y="21.71"/><use href="#17" y="23.881"/><use href="#18" y="26.052"/><use href="#19" y="28.223"/><use href="#20" y="30.394"/><use href="#21" y="32.565"/><use href="#22" y="39.078"/><use href="#23" y="41.249"/><use href="#24" y="43.42"/><use href="#25" y="47.762"/><use href="#26" y="49.933"/></svg></svg></g><svg height="100%" width="100%" viewBox="0 0 100 100" class="container_end"><text text-anchor="middle" alignment-baseline="central"><tspan y="50" x="50" style="font-size: 50px;">❚❚</tspan></text></svg></g></svg></svg>
