<svg xmlns="http://www.w3.org/2000/svg" width="1400" height="642.75"><rect width="1400" height="642.75" rx="5" ry="5" class="a"/><svg y="0%" x="0%"><circle cx="20" cy="20" r="6" fill="#ff5f58"/><circle cx="40" cy="20" r="6" fill="#ffbd2e"/><circle cx="60" cy="20" r="6" fill="#18c132"/></svg><svg height="542.75" viewBox="0 0 132 54.275" width="1320" x="35" xmlns="http://www.w3.org/2000/svg" y="70"><style>.inserted-lf{fill:#999999;fill-opacity:.75;font-variant-position:sub;font-size:75%}.container{font-family:'JetBrains Mono','Monaco','Consolas','Menlo','Bitstream Vera Sans Mono','Lucida Console','Ubuntu Mono','Meslo for Powerline','Meslo LG M for Powerline','Powerline Symbols','Monospace','monospace'}.container>g{animation-play-state:running}.container_end{fill:whitesmoke;mix-blend-mode:soft-light;opacity:0;transition:opacity .2s ease-in-out}.container:hover>g{animation-play-state:paused}.container{pointer-events:all}.container:hover{cursor:wait}.container:hover>.container_end{opacity:1}.container>g>svg>svg>*{transform: scaleY(.95);}@keyframes k{0%{transform:translateX(0)}.04%{transform:translateX(-132px)}.26%{transform:translateX(-264px)}7.06%{transform:translateX(-396px)}7.08%{transform:translateX(-528px)}10.28%{transform:translateX(-660px)}15.59%{transform:translateX(-792px)}18.69%{transform:translateX(-924px)}34.27%{transform:translateX(-1056px)}34.3%{transform:translateX(-1188px)}34.31%{transform:translateX(-1320px)}36.7%{transform:translateX(-1848px)}36.75%{transform:translateX(-1980px)}36.76%{transform:translateX(-2244px)}36.79%{transform:translateX(-2376px)}36.83%{transform:translateX(-2508px)}36.85%{transform:translateX(-2640px)}36.86%{transform:translateX(-2772px)}36.88%{transform:translateX(-2904px)}36.89%{transform:translateX(-3168px)}36.93%{transform:translateX(-3300px)}64.82%{transform:translateX(-3432px)}65.45%{transform:translateX(-3696px)}71.08%{transform:translateX(-3828px)}71.96%{transform:translateX(-4092px)}71.97%{transform:translateX(-4224px)}74.77%{transform:translateX(-4356px)}77.57%{transform:translateX(-4488px)}77.58%{transform:translateX(-4620px)}80.38%{transform:translateX(-4752px)}83.18%{transform:translateX(-4884px)}83.19%{transform:translateX(-5016px)}85.98%{transform:translateX(-5148px)}88.79%{transform:translateX(-5412px)}91.59%{transform:translateX(-5544px)}94.39%{transform:translateX(-5676px)}94.4%{transform:translateX(-5808px)}97.2%{transform:translateX(-5940px)}to{transform:translateX(-6072px)}}.a{fill:#2d2d2d}.f,.h{fill:#b0b0b0;white-space:pre}.h{fill:#29abe2}</style><g class="container" font-size="1.67"><defs><symbol id="1"><text y="1.67" class="f">Unable</text><text x="7.014" y="1.67" class="f">to</text><text x="10.02" y="1.67" class="f">find</text><text x="15.03" y="1.67" class="f">image</text><text x="21.042" y="1.67" class="f">&apos;rafib/awesome-cli-binaries:latest&apos;</text><text x="57.114" y="1.67" class="f">locally</text></symbol><symbol id="2"><a href="latest:"><title>Displayed as link in supporting terminal emulators</title><text y="1.67" class="f">latest:</text></a><text x="8.016" y="1.67" class="f">Pulling</text><text x="16.032" y="1.67" class="f">from</text><text x="21.042" y="1.67" class="f">rafib/awesome-cli-binaries</text></symbol><symbol id="3"><a href="38a3d694730c:"><title>Displayed as link in supporting terminal emulators</title><text y="1.67" class="f">38a3d694730c:</text></a><text x="14.028" y="1.67" class="f">Pulling</text><text x="22.044" y="1.67" class="f">fs</text><text x="25.05" y="1.67" class="f">layer</text></symbol><symbol id="4"><a href="e639c20c5c17:"><title>Displayed as link in supporting terminal emulators</title><text y="1.67" class="f">e639c20c5c17:</text></a><text x="14.028" y="1.67" class="f">Pulling</text><text x="22.044" y="1.67" class="f">fs</text><text x="25.05" y="1.67" class="f">layer</text></symbol><symbol id="5"><a href="38a3d694730c:"><title>Displayed as link in supporting terminal emulators</title><text y="1.67" class="f">38a3d694730c:</text></a><text x="14.028" y="1.67" class="f">Verifying</text><text x="24.048" y="1.67" class="f">Checksum</text></symbol><symbol id="6"><a href="38a3d694730c:"><title>Displayed as link in supporting terminal emulators</title><text y="1.67" class="f">38a3d694730c:</text></a><text x="14.028" y="1.67" class="f">Download</text><text x="23.046" y="1.67" class="f">complete</text></symbol><symbol id="7"><a href="e639c20c5c17:"><title>Displayed as link in supporting terminal emulators</title><text y="1.67" class="f">e639c20c5c17:</text></a><text x="14.028" y="1.67" class="f">Verifying</text><text x="24.048" y="1.67" class="f">Checksum</text></symbol><symbol id="8"><a href="e639c20c5c17:"><title>Displayed as link in supporting terminal emulators</title><text y="1.67" class="f">e639c20c5c17:</text></a><text x="14.028" y="1.67" class="f">Download</text><text x="23.046" y="1.67" class="f">complete</text></symbol><symbol id="9"><a href="38a3d694730c:"><title>Displayed as link in supporting terminal emulators</title><text y="1.67" class="f">38a3d694730c:</text></a><text x="14.028" y="1.67" class="f">Pull</text><text x="19.038" y="1.67" class="f">complete</text></symbol><symbol id="10"><a href="e639c20c5c17:"><title>Displayed as link in supporting terminal emulators</title><text y="1.67" class="f">e639c20c5c17:</text></a><text x="14.028" y="1.67" class="f">Pull</text><text x="19.038" y="1.67" class="f">complete</text></symbol><symbol id="11"><a href="Digest:"><title>Displayed as link in supporting terminal emulators</title><text y="1.67" class="f">Digest:</text></a><a href="sha256:fb91842ac2358552b93c05af757cee168b862f1a45e7c3eded52fc03bdbe4b9c"><title>Displayed as link in supporting terminal emulators</title><text x="8.016" y="1.67" class="f">sha256:fb91842ac2358552b93c05af757cee168b862f1a45e7c3eded52fc03bdbe4b9c</text></a></symbol><symbol id="12"><a href="Status:"><title>Displayed as link in supporting terminal emulators</title><text y="1.67" class="f">Status:</text></a><text x="8.016" y="1.67" class="f">Downloaded</text><text x="19.038" y="1.67" class="f">newer</text><text x="25.05" y="1.67" class="f">image</text><text x="31.062" y="1.67" class="f">for</text><text x="35.07" y="1.67" class="f">rafib/awesome-cli-binaries:latest</text></symbol><symbol id="13"><text x="2.004" y="1.67" style="white-space:pre" fill="#c6c6c6" font-weight="700" text-decoration="underline">chafa</text><text x="17.034" y="1.67" class="f">hpjansson.org/chafa/</text><text x="38.076" y="1.67" class="h">↗</text></symbol><symbol id="14"><text x="2.004" y="1.67" class="h">colors</text><text x="27.054" y="1.67" class="h">none</text></symbol><symbol id="15"><text x="2.004" y="1.67" class="f">color-space</text><text x="27.054" y="1.67" class="f">rgb</text></symbol><symbol id="16"><text x="2.004" y="1.67" class="h">fill</text><text x="27.054" y="1.67" class="h">ascii</text></symbol><symbol id="17"><text x="2.004" y="1.67" class="f">format</text><text x="27.054" y="1.67" class="f">symbols</text></symbol><symbol id="18"><text x="2.004" y="1.67" class="f">size</text><text x="27.054" y="1.67" class="f">60x30</text></symbol><symbol id="19"><text x="2.004" y="1.67" class="f">speed</text><text x="27.054" y="1.67" class="f">0.25</text></symbol><symbol id="20"><text x="2.004" y="1.67" class="h">symbols</text><text x="27.054" y="1.67" class="h">ascii</text></symbol><symbol id="21"><text x="2.004" y="1.67" class="f">duration</text><text x="27.054" y="1.67" class="f">1</text></symbol><symbol id="22"><a href="}:"><title>Displayed as link in supporting terminal emulators</title><text x="4.008" y="1.67" class="f">}:</text></a></symbol><symbol id="23"><a href="i&gt;::::::~iiiiii|::::::.______________,"><title>Displayed as link in supporting terminal emulators</title><text y="1.67" class="f">i&gt;::::::~iiiiii|::::::.______________,</text></a></symbol><symbol id="24"><text y="1.67" class="f">_,zzzzzzT______3zzzzz~jMMMMMMMM0MMMMMMf</text></symbol><symbol id="25"><text y="1.67" class="f">00MMM00MM0000000MMM0M&apos;JMMMMMMMM&quot;w_~4MMf._y</text></symbol><symbol id="26"><text y="1.67" class="f">MMMMMMMMMMMMMMMMP&apos;_^MlJMMMMMMMM</text><text x="32.064" y="1.67" class="f">#Mm____mM0</text></symbol><symbol id="27"><a href="&amp;&amp;~~~~~~&apos;&amp;&amp;&amp;&amp;&amp;&amp;Z&apos;\\\_:JMMM0MMM"><title>Displayed as link in supporting terminal emulators</title><text y="1.67" class="f">&amp;&amp;~~~~~~&apos;&amp;&amp;&amp;&amp;&amp;&amp;Z&apos;\\\_:JMMM0MMM</text></a><text x="31.062" y="1.67" class="f">!M0f~M@*0f~m</text></symbol><symbol id="28"><a href="my_______mmmmmm_____}:JMWMMMMM"><title>Displayed as link in supporting terminal emulators</title><text y="1.67" class="f">my_______mmmmmm_____}:JMWMMMMM</text></a><text x="31.062" y="1.67" class="f">!Mm-4#^w}-wM</text></symbol><symbol id="29"><text y="1.67" class="f">^^MMMMMMP^^^^^^^M0MMP&apos;JMM0MMMMm,~0_______~</text></symbol><symbol id="30"><text y="1.67" class="f">uTyyyyyy3uuuuuw_&apos;gy~we</text><text x="23.046" y="1.67" class="f">&quot;~~~~~~~~&apos;</text><text x="38.076" y="1.67" class="f">:</text></symbol><symbol id="31"><text x="2.004" y="1.67" class="f">.......</text><text x="14.028" y="1.67" class="f">`~_..,.</text><text x="24.048" y="1.67" class="f">..</text><text x="33.066" y="1.67" class="f">.</text><text x="37.074" y="1.67" class="f">.</text></symbol><symbol id="32"><text x="17.034" y="1.67" class="f">^</text><text x="19.038" y="1.67" class="f">.</text></symbol><symbol id="33"><text x="1.002" y="1.67" class="f">^</text></symbol><symbol id="34"><text x="1.002" y="1.67" class="f">:&apos;</text></symbol><symbol id="35"><text x="1.002" y="1.67" class="f">&quot;</text></symbol><symbol id="36"><text x="38.076" y="1.67" class="f">_</text></symbol><symbol id="37"><text x="37.074" y="1.67" class="f">-D-</text></symbol><symbol id="38"><text y="1.67" class="f">5</text></symbol><symbol id="39"><text y="1.67" class="f">4</text></symbol><symbol id="40"><text y="1.67" class="f">3</text></symbol><symbol id="41"><text y="1.67" class="f">2</text></symbol><symbol id="42"><text y="1.67" class="f">1</text></symbol><symbol id="a"><path fill="transparent" d="M0 0h132v26H0z"/></symbol><symbol id="b"><path fill="silver" d="M0 0h1.102v2.171H0z"/></symbol></defs><path class="a" d="M0 0h132v54.275H0z"/><g style="animation-duration:17.930057s;animation-iteration-count:infinite;animation-name:k;animation-timing-function:steps(1,end)"><svg width="6204"><svg><use href="#a"/><use href="#b" x="-.004"/></svg><svg x="132"><use href="#a"/><use href="#b" x="-.004"/></svg><svg x="264"><use href="#a"/><use href="#b" x="-.004" y="2.146"/><use href="#1"/></svg><svg x="396"><use href="#a"/><use href="#b" x="7.996" y="2.146"/><use href="#1"/><a href="latest:"><title>Displayed as link in supporting terminal emulators</title><text y="3.841" class="f">latest:</text></a></svg><svg x="528"><use href="#a"/><use href="#b" x="-.004" y="8.659"/><use href="#1"/><use href="#2" y="2.171"/><use href="#3" y="4.342"/><use href="#4" y="6.513"/></svg><svg x="660"><use href="#a"/><use href="#b" x="-.004" y="13.001"/><use href="#1"/><use href="#2" y="2.171"/><use href="#3" y="4.342"/><use href="#4" y="6.513"/><use href="#5" y="8.684"/><use href="#6" y="10.855"/></svg><svg x="792"><use href="#a"/><use href="#b" x="-.004" y="17.343"/><use href="#1"/><use href="#2" y="2.171"/><use href="#3" y="4.342"/><use href="#4" y="6.513"/><use href="#5" y="8.684"/><use href="#6" y="10.855"/><use href="#7" y="13.026"/><use href="#8" y="15.197"/></svg><svg x="924"><use href="#a"/><use href="#b" x="-.004" y="19.514"/><use href="#1"/><use href="#2" y="2.171"/><use href="#3" y="4.342"/><use href="#4" y="6.513"/><use href="#5" y="8.684"/><use href="#6" y="10.855"/><use href="#7" y="13.026"/><use href="#8" y="15.197"/><use href="#9" y="17.368"/></svg><svg x="1056"><use href="#a"/><use href="#b" x="-.004" y="21.685"/><use href="#1"/><use href="#2" y="2.171"/><use href="#3" y="4.342"/><use href="#4" y="6.513"/><use href="#5" y="8.684"/><use href="#6" y="10.855"/><use href="#7" y="13.026"/><use href="#8" y="15.197"/><use href="#9" y="17.368"/><use href="#10" y="19.539"/></svg><svg x="1188"><use href="#a"/><use href="#b" x="-.004" y="23.856"/><use href="#1"/><use href="#2" y="2.171"/><use href="#3" y="4.342"/><use href="#4" y="6.513"/><use href="#5" y="8.684"/><use href="#6" y="10.855"/><use href="#7" y="13.026"/><use href="#8" y="15.197"/><use href="#9" y="17.368"/><use href="#10" y="19.539"/><use href="#11" y="21.71"/></svg><svg x="1320"><use href="#a"/><use href="#b" x="-.004" y="26.027"/><use href="#1"/><use href="#2" y="2.171"/><use href="#3" y="4.342"/><use href="#4" y="6.513"/><use href="#5" y="8.684"/><use href="#6" y="10.855"/><use href="#7" y="13.026"/><use href="#8" y="15.197"/><use href="#9" y="17.368"/><use href="#10" y="19.539"/><use href="#11" y="21.71"/><use href="#12" y="23.881"/></svg><svg x="1452"><use href="#a"/><use href="#1"/><use href="#2" y="2.171"/><use href="#3" y="4.342"/><use href="#4" y="6.513"/><use href="#5" y="8.684"/><use href="#6" y="10.855"/><use href="#7" y="13.026"/><use href="#8" y="15.197"/><use href="#9" y="17.368"/><use href="#10" y="19.539"/><use href="#11" y="21.71"/><use href="#12" y="23.881"/></svg><svg x="1584"><use href="#a"/><use href="#13" y="2.171"/></svg><svg x="1716"><use href="#a"/><use href="#13" y="2.171"/></svg><svg x="1848"><use href="#a"/><use href="#13" y="2.171"/></svg><svg x="1980"><use href="#a"/><use href="#13" y="2.171"/><use href="#14" y="6.513"/></svg><svg x="2112"><use href="#a"/><use href="#13" y="2.171"/><use href="#14" y="6.513"/><use href="#15" y="8.684"/></svg><svg x="2244"><use href="#a"/><use href="#13" y="2.171"/><use href="#14" y="6.513"/><use href="#15" y="8.684"/></svg><svg x="2376"><use href="#a"/><use href="#13" y="2.171"/><use href="#14" y="6.513"/><use href="#15" y="8.684"/><use href="#16" y="10.855"/></svg><svg x="2508"><use href="#a"/><use href="#13" y="2.171"/><use href="#14" y="6.513"/><use href="#15" y="8.684"/><use href="#16" y="10.855"/><use href="#17" y="13.026"/></svg><svg x="2640"><use href="#a"/><use href="#13" y="2.171"/><use href="#14" y="6.513"/><use href="#15" y="8.684"/><use href="#16" y="10.855"/><use href="#17" y="13.026"/><use href="#18" y="15.197"/></svg><svg x="2772"><use href="#a"/><use href="#13" y="2.171"/><use href="#14" y="6.513"/><use href="#15" y="8.684"/><use href="#16" y="10.855"/><use href="#17" y="13.026"/><use href="#18" y="15.197"/><use href="#19" y="17.368"/></svg><svg x="2904"><use href="#a"/><use href="#13" y="2.171"/><use href="#14" y="6.513"/><use href="#15" y="8.684"/><use href="#16" y="10.855"/><use href="#17" y="13.026"/><use href="#18" y="15.197"/><use href="#19" y="17.368"/><use href="#20" y="19.539"/></svg><svg x="3036"><use href="#a"/><use href="#13" y="2.171"/><use href="#14" y="6.513"/><use href="#15" y="8.684"/><use href="#16" y="10.855"/><use href="#17" y="13.026"/><use href="#18" y="15.197"/><use href="#19" y="17.368"/><use href="#20" y="19.539"/><use href="#21" y="21.71"/></svg><svg x="3168"><use href="#a"/><use href="#13" y="2.171"/><use href="#14" y="6.513"/><use href="#15" y="8.684"/><use href="#16" y="10.855"/><use href="#17" y="13.026"/><use href="#18" y="15.197"/><use href="#19" y="17.368"/><use href="#20" y="19.539"/><use href="#21" y="21.71"/></svg><svg x="3300"><use href="#a"/><use href="#13" y="2.171"/><use href="#14" y="6.513"/><use href="#15" y="8.684"/><use href="#16" y="10.855"/><use href="#17" y="13.026"/><use href="#18" y="15.197"/><use href="#19" y="17.368"/><use href="#20" y="19.539"/><use href="#21" y="21.71"/><text x="2.004" y="27.722" class="f">nyan-cat-static.gif</text></svg><svg x="3432"><use href="#a"/></svg><svg x="3564"><use href="#a"/><text x="39.078" y="1.67" class="f">~.</text><use href="#22" y="19.539"/><use href="#23" y="23.881"/><use href="#24" y="26.052"/><use href="#25" y="28.223"/><use href="#26" y="30.394"/><use href="#27" y="32.565"/><text y="36.406" class="f">my_______mmmmmm_</text></svg><svg x="3696"><use href="#a"/><use href="#22" y="8.684"/><use href="#23" y="13.026"/><use href="#24" y="15.197"/><use href="#25" y="17.368"/><use href="#26" y="19.539"/><use href="#27" y="21.71"/><use href="#28" y="23.881"/><use href="#29" y="26.052"/><use href="#30" y="28.223"/><use href="#31" y="30.394"/><use href="#32" y="32.565"/><use href="#33" y="39.078"/><use href="#34" y="41.249"/><use href="#35" y="43.42"/><use href="#36" y="47.762"/><use href="#37" y="49.933"/></svg><svg x="3828"><use href="#a"/><use href="#b" x="-.004" y="54.25"/><use href="#22" y="8.684"/><use href="#23" y="13.026"/><use href="#24" y="15.197"/><use href="#25" y="17.368"/><use href="#26" y="19.539"/><use href="#27" y="21.71"/><use href="#28" y="23.881"/><use href="#29" y="26.052"/><use href="#30" y="28.223"/><use href="#31" y="30.394"/><use href="#32" y="32.565"/><use href="#33" y="39.078"/><use href="#34" y="41.249"/><use href="#35" y="43.42"/><use href="#36" y="47.762"/><use href="#37" y="49.933"/></svg><svg x="3960"><use href="#a"/><use href="#b" x="-.004" y="54.25"/><use href="#22" y="6.513"/><use href="#23" y="10.855"/><use href="#24" y="13.026"/><use href="#25" y="15.197"/><use href="#26" y="17.368"/><use href="#27" y="19.539"/><use href="#28" y="21.71"/><use href="#29" y="23.881"/><use href="#30" y="26.052"/><use href="#31" y="28.223"/><use href="#32" y="30.394"/><use href="#33" y="36.907"/><use href="#34" y="39.078"/><use href="#35" y="41.249"/><use href="#36" y="45.591"/><use href="#37" y="47.762"/></svg><svg x="4092"><use href="#a"/><use href="#22" y="6.513"/><use href="#23" y="10.855"/><use href="#24" y="13.026"/><use href="#25" y="15.197"/><use href="#26" y="17.368"/><use href="#27" y="19.539"/><use href="#28" y="21.71"/><use href="#29" y="23.881"/><use href="#30" y="26.052"/><use href="#31" y="28.223"/><use href="#32" y="30.394"/><use href="#33" y="36.907"/><use href="#34" y="39.078"/><use href="#35" y="41.249"/><use href="#36" y="45.591"/><use href="#37" y="47.762"/></svg><svg x="4224"><use href="#a"/><use href="#22" y="6.513"/><use href="#23" y="10.855"/><use href="#24" y="13.026"/><use href="#25" y="15.197"/><use href="#26" y="17.368"/><use href="#27" y="19.539"/><use href="#28" y="21.71"/><use href="#29" y="23.881"/><use href="#30" y="26.052"/><use href="#31" y="28.223"/><use href="#32" y="30.394"/><use href="#33" y="36.907"/><use href="#34" y="39.078"/><use href="#35" y="41.249"/><use href="#36" y="45.591"/><use href="#37" y="47.762"/><use href="#38" y="54.275"/></svg><svg x="4356"><use href="#a"/><use href="#b" x="-.004" y="54.25"/><use href="#22" y="6.513"/><use href="#23" y="10.855"/><use href="#24" y="13.026"/><use href="#25" y="15.197"/><use href="#26" y="17.368"/><use href="#27" y="19.539"/><use href="#28" y="21.71"/><use href="#29" y="23.881"/><use href="#30" y="26.052"/><use href="#31" y="28.223"/><use href="#32" y="30.394"/><use href="#33" y="36.907"/><use href="#34" y="39.078"/><use href="#35" y="41.249"/><use href="#36" y="45.591"/><use href="#37" y="47.762"/><use href="#38" y="54.275"/></svg><svg x="4488"><use href="#a"/><use href="#22" y="6.513"/><use href="#23" y="10.855"/><use href="#24" y="13.026"/><use href="#25" y="15.197"/><use href="#26" y="17.368"/><use href="#27" y="19.539"/><use href="#28" y="21.71"/><use href="#29" y="23.881"/><use href="#30" y="26.052"/><use href="#31" y="28.223"/><use href="#32" y="30.394"/><use href="#33" y="36.907"/><use href="#34" y="39.078"/><use href="#35" y="41.249"/><use href="#36" y="45.591"/><use href="#37" y="47.762"/><use href="#38" y="54.275"/></svg><svg x="4620"><use href="#a"/><use href="#22" y="6.513"/><use href="#23" y="10.855"/><use href="#24" y="13.026"/><use href="#25" y="15.197"/><use href="#26" y="17.368"/><use href="#27" y="19.539"/><use href="#28" y="21.71"/><use href="#29" y="23.881"/><use href="#30" y="26.052"/><use href="#31" y="28.223"/><use href="#32" y="30.394"/><use href="#33" y="36.907"/><use href="#34" y="39.078"/><use href="#35" y="41.249"/><use href="#36" y="45.591"/><use href="#37" y="47.762"/><use href="#39" y="54.275"/></svg><svg x="4752"><use href="#a"/><use href="#b" x="-.004" y="54.25"/><use href="#22" y="6.513"/><use href="#23" y="10.855"/><use href="#24" y="13.026"/><use href="#25" y="15.197"/><use href="#26" y="17.368"/><use href="#27" y="19.539"/><use href="#28" y="21.71"/><use href="#29" y="23.881"/><use href="#30" y="26.052"/><use href="#31" y="28.223"/><use href="#32" y="30.394"/><use href="#33" y="36.907"/><use href="#34" y="39.078"/><use href="#35" y="41.249"/><use href="#36" y="45.591"/><use href="#37" y="47.762"/><use href="#39" y="54.275"/></svg><svg x="4884"><use href="#a"/><use href="#22" y="6.513"/><use href="#23" y="10.855"/><use href="#24" y="13.026"/><use href="#25" y="15.197"/><use href="#26" y="17.368"/><use href="#27" y="19.539"/><use href="#28" y="21.71"/><use href="#29" y="23.881"/><use href="#30" y="26.052"/><use href="#31" y="28.223"/><use href="#32" y="30.394"/><use href="#33" y="36.907"/><use href="#34" y="39.078"/><use href="#35" y="41.249"/><use href="#36" y="45.591"/><use href="#37" y="47.762"/><use href="#39" y="54.275"/></svg><svg x="5016"><use href="#a"/><use href="#22" y="6.513"/><use href="#23" y="10.855"/><use href="#24" y="13.026"/><use href="#25" y="15.197"/><use href="#26" y="17.368"/><use href="#27" y="19.539"/><use href="#28" y="21.71"/><use href="#29" y="23.881"/><use href="#30" y="26.052"/><use href="#31" y="28.223"/><use href="#32" y="30.394"/><use href="#33" y="36.907"/><use href="#34" y="39.078"/><use href="#35" y="41.249"/><use href="#36" y="45.591"/><use href="#37" y="47.762"/><use href="#40" y="54.275"/></svg><svg x="5148"><use href="#a"/><use href="#b" x="-.004" y="54.25"/><use href="#22" y="6.513"/><use href="#23" y="10.855"/><use href="#24" y="13.026"/><use href="#25" y="15.197"/><use href="#26" y="17.368"/><use href="#27" y="19.539"/><use href="#28" y="21.71"/><use href="#29" y="23.881"/><use href="#30" y="26.052"/><use href="#31" y="28.223"/><use href="#32" y="30.394"/><use href="#33" y="36.907"/><use href="#34" y="39.078"/><use href="#35" y="41.249"/><use href="#36" y="45.591"/><use href="#37" y="47.762"/><use href="#40" y="54.275"/></svg><svg x="5280"><use href="#a"/><use href="#22" y="6.513"/><use href="#23" y="10.855"/><use href="#24" y="13.026"/><use href="#25" y="15.197"/><use href="#26" y="17.368"/><use href="#27" y="19.539"/><use href="#28" y="21.71"/><use href="#29" y="23.881"/><use href="#30" y="26.052"/><use href="#31" y="28.223"/><use href="#32" y="30.394"/><use href="#33" y="36.907"/><use href="#34" y="39.078"/><use href="#35" y="41.249"/><use href="#36" y="45.591"/><use href="#37" y="47.762"/><use href="#40" y="54.275"/></svg><svg x="5412"><use href="#a"/><use href="#22" y="6.513"/><use href="#23" y="10.855"/><use href="#24" y="13.026"/><use href="#25" y="15.197"/><use href="#26" y="17.368"/><use href="#27" y="19.539"/><use href="#28" y="21.71"/><use href="#29" y="23.881"/><use href="#30" y="26.052"/><use href="#31" y="28.223"/><use href="#32" y="30.394"/><use href="#33" y="36.907"/><use href="#34" y="39.078"/><use href="#35" y="41.249"/><use href="#36" y="45.591"/><use href="#37" y="47.762"/><use href="#41" y="54.275"/></svg><svg x="5544"><use href="#a"/><use href="#b" x="-.004" y="54.25"/><use href="#22" y="6.513"/><use href="#23" y="10.855"/><use href="#24" y="13.026"/><use href="#25" y="15.197"/><use href="#26" y="17.368"/><use href="#27" y="19.539"/><use href="#28" y="21.71"/><use href="#29" y="23.881"/><use href="#30" y="26.052"/><use href="#31" y="28.223"/><use href="#32" y="30.394"/><use href="#33" y="36.907"/><use href="#34" y="39.078"/><use href="#35" y="41.249"/><use href="#36" y="45.591"/><use href="#37" y="47.762"/><use href="#41" y="54.275"/></svg><svg x="5676"><use href="#a"/><use href="#22" y="6.513"/><use href="#23" y="10.855"/><use href="#24" y="13.026"/><use href="#25" y="15.197"/><use href="#26" y="17.368"/><use href="#27" y="19.539"/><use href="#28" y="21.71"/><use href="#29" y="23.881"/><use href="#30" y="26.052"/><use href="#31" y="28.223"/><use href="#32" y="30.394"/><use href="#33" y="36.907"/><use href="#34" y="39.078"/><use href="#35" y="41.249"/><use href="#36" y="45.591"/><use href="#37" y="47.762"/><use href="#41" y="54.275"/></svg><svg x="5808"><use href="#a"/><use href="#22" y="6.513"/><use href="#23" y="10.855"/><use href="#24" y="13.026"/><use href="#25" y="15.197"/><use href="#26" y="17.368"/><use href="#27" y="19.539"/><use href="#28" y="21.71"/><use href="#29" y="23.881"/><use href="#30" y="26.052"/><use href="#31" y="28.223"/><use href="#32" y="30.394"/><use href="#33" y="36.907"/><use href="#34" y="39.078"/><use href="#35" y="41.249"/><use href="#36" y="45.591"/><use href="#37" y="47.762"/><use href="#42" y="54.275"/></svg><svg x="5940"><use href="#a"/><use href="#b" x="-.004" y="54.25"/><use href="#22" y="6.513"/><use href="#23" y="10.855"/><use href="#24" y="13.026"/><use href="#25" y="15.197"/><use href="#26" y="17.368"/><use href="#27" y="19.539"/><use href="#28" y="21.71"/><use href="#29" y="23.881"/><use href="#30" y="26.052"/><use href="#31" y="28.223"/><use href="#32" y="30.394"/><use href="#33" y="36.907"/><use href="#34" y="39.078"/><use href="#35" y="41.249"/><use href="#36" y="45.591"/><use href="#37" y="47.762"/><use href="#42" y="54.275"/></svg><svg x="6072"><use href="#a"/><use href="#22" y="6.513"/><use href="#23" y="10.855"/><use href="#24" y="13.026"/><use href="#25" y="15.197"/><use href="#26" y="17.368"/><use href="#27" y="19.539"/><use href="#28" y="21.71"/><use href="#29" y="23.881"/><use href="#30" y="26.052"/><use href="#31" y="28.223"/><use href="#32" y="30.394"/><use href="#33" y="36.907"/><use href="#34" y="39.078"/><use href="#35" y="41.249"/><use href="#36" y="45.591"/><use href="#37" y="47.762"/><use href="#42" y="54.275"/></svg></svg></g><svg height="100%" width="100%" viewBox="0 0 100 100" class="container_end"><text text-anchor="middle" alignment-baseline="central"><tspan y="50" x="50" style="font-size: 50px;">❚❚</tspan></text></svg></g></svg></svg>
