<svg xmlns="http://www.w3.org/2000/svg" width="1400" height="642.75"><rect width="1400" height="642.75" rx="5" ry="5" class="a"/><svg y="0%" x="0%"><circle cx="20" cy="20" r="6" fill="#ff5f58"/><circle cx="40" cy="20" r="6" fill="#ffbd2e"/><circle cx="60" cy="20" r="6" fill="#18c132"/></svg><svg height="542.75" viewBox="0 0 132 54.275" width="1320" x="35" xmlns="http://www.w3.org/2000/svg" y="70"><style>.inserted-lf{fill:#999999;fill-opacity:.75;font-variant-position:sub;font-size:75%}.container{font-family:'JetBrains Mono','Monaco','Consolas','Menlo','Bitstream Vera Sans Mono','Lucida Console','Ubuntu Mono','Meslo for Powerline','Meslo LG M for Powerline','Powerline Symbols','Monospace','monospace'}.container>g{animation-play-state:running}.container_end{fill:whitesmoke;mix-blend-mode:soft-light;opacity:0;transition:opacity .2s ease-in-out}.container:hover>g{animation-play-state:paused}.container{pointer-events:all}.container:hover{cursor:wait}.container:hover>.container_end{opacity:1}.container>g>svg>svg>*{transform: scaleY(.95);}@keyframes h{0%{transform:translateX(0)}13.9%{transform:translateX(-132px)}to{transform:translateX(-264px)}}.a{fill:#2d2d2d}.j{fill:#b0b0b0;white-space:pre}</style><g class="container" font-size="1.67"><defs><symbol id="a"><path fill="transparent" d="M0 0h132v26H0z"/></symbol><symbol id="b"><path fill="silver" d="M0 0h1.102v2.171H0z"/></symbol></defs><path class="a" d="M0 0h132v54.275H0z"/><g style="animation-duration:.098704s;animation-iteration-count:infinite;animation-name:h;animation-timing-function:steps(1,end)"><svg width="396"><svg><use href="#a"/><use href="#b" x="-.004"/></svg><svg x="132"><use href="#a"/><use href="#b" x="-.004"/></svg><svg x="264"><use href="#a"/><use href="#b" x="-.004" y="4.317"/><text y="1.67" class="j">docker:</text><text x="8.016" y="1.67" class="j">Cannot</text><text x="15.03" y="1.67" class="j">connect</text><text x="23.046" y="1.67" class="j">to</text><text x="26.052" y="1.67" class="j">the</text><text x="30.06" y="1.67" class="j">Docker</text><text x="37.074" y="1.67" class="j">daemon</text><text x="44.088" y="1.67" class="j">at</text><text x="47.094" y="1.67" class="j">unix:///var/run/docker.sock.</text><text x="76.152" y="1.67" class="j">Is</text><text x="79.158" y="1.67" class="j">the</text><text x="83.166" y="1.67" class="j">docker</text><text x="90.18" y="1.67" class="j">daemon</text><text x="97.194" y="1.67" class="j">running?.</text><text y="3.841" class="j">See</text><text x="4.008" y="3.841" class="j">&apos;docker</text><text x="12.024" y="3.841" class="j">run</text><text x="16.032" y="3.841" class="j">--help&apos;.</text></svg></svg></g><svg height="100%" width="100%" viewBox="0 0 100 100" class="container_end"><text text-anchor="middle" alignment-baseline="central"><tspan y="50" x="50" style="font-size: 50px;">❚❚</tspan></text></svg></g></svg></svg>
