<svg xmlns="http://www.w3.org/2000/svg" width="1400" height="642.75"><rect width="1400" height="642.75" rx="5" ry="5" class="a"/><svg y="0%" x="0%"><circle cx="20" cy="20" r="6" fill="#ff5f58"/><circle cx="40" cy="20" r="6" fill="#ffbd2e"/><circle cx="60" cy="20" r="6" fill="#18c132"/></svg><svg height="542.75" viewBox="0 0 132 54.275" width="1320" x="35" xmlns="http://www.w3.org/2000/svg" y="70"><style>.inserted-lf{fill:#999999;fill-opacity:.75;font-variant-position:sub;font-size:75%}.container{font-family:'JetBrains Mono','Monaco','Consolas','Menlo','Bitstream Vera Sans Mono','Lucida Console','Ubuntu Mono','Meslo for Powerline','Meslo LG M for Powerline','Powerline Symbols','Monospace','monospace'}.container>g{animation-play-state:running}.container_end{fill:whitesmoke;mix-blend-mode:soft-light;opacity:0;transition:opacity .2s ease-in-out}.container:hover>g{animation-play-state:paused}.container{pointer-events:all}.container:hover{cursor:wait}.container:hover>.container_end{opacity:1}.container>g>svg>svg>*{transform: scaleY(.95);}@keyframes m{0%{transform:translateX(0)}.04%{transform:translateX(-264px)}.06%{transform:translateX(-396px)}.07%{transform:translateX(-528px)}6.31%{transform:translateX(-792px)}6.32%{transform:translateX(-1056px)}18.72%{transform:translateX(-1584px)}31.16%{transform:translateX(-1716px)}31.17%{transform:translateX(-2112px)}43.62%{transform:translateX(-2376px)}43.63%{transform:translateX(-2508px)}49.85%{transform:translateX(-2640px)}49.86%{transform:translateX(-2772px)}49.87%{transform:translateX(-2904px)}62.27%{transform:translateX(-3168px)}62.28%{transform:translateX(-3300px)}68.5%{transform:translateX(-3432px)}70.12%{transform:translateX(-3564px)}70.2%{transform:translateX(-3696px)}71.05%{transform:translateX(-3828px)}71.83%{transform:translateX(-3960px)}71.84%{transform:translateX(-4356px)}71.85%{transform:translateX(-4884px)}84.3%{transform:translateX(-5280px)}96.75%{transform:translateX(-5412px)}98.37%{transform:translateX(-5544px)}99.21%{transform:translateX(-5676px)}99.99%{transform:translateX(-5808px)}to{transform:translateX(-6204px)}}.a{fill:#2d2d2d}.f{fill:#b0b0b0;white-space:pre}.g{fill:#c21e73}.g,.h,.i,.j{white-space:pre}.h{fill:#c6c6c6;font-weight:700}.i,.j{fill:#dcdcdc}.j{fill:#6e6e6e}</style><g class="container" font-size="1.67"><defs><symbol id="1"><text x="1.002" y="1.67" class="f">💡</text><text x="4.008" y="1.67" class="f">This</text><text x="9.018" y="1.67" class="f">is</text><text x="12.024" y="1.67" class="f">a</text><text x="14.028" y="1.67" class="g">●</text><text x="16.032" y="1.67" class="g">rec</text><text x="20.04" y="1.67" class="f">file.</text></symbol><symbol id="2"><text y="1.67" class="f">The</text><text x="4.008" y="1.67" class="f">line</text><text x="9.018" y="1.67" class="f">above</text><text x="15.03" y="1.67" class="f">was</text><text x="19.038" y="1.67" class="f">actually</text><text x="28.056" y="1.67" class="f">printed</text><text x="36.072" y="1.67" class="f">because</text><text x="44.088" y="1.67" class="f">of</text><text x="47.094" y="1.67" class="f">the</text><text x="51.102" y="1.67" class="f">following</text><text x="61.122" y="1.67" class="f">invocation:</text></symbol><symbol id="3"><text x="4.008" y="1.67" class="h">echo</text><text x="9.018" y="1.67" class="h">&quot;</text><text x="11.022" y="1.67" class="h">💡</text><text x="14.028" y="1.67" class="h">This</text><text x="19.038" y="1.67" class="h">is</text><text x="22.044" y="1.67" class="h">a</text><text x="24.048" y="1.67" class="h">$(tput</text><text x="31.062" y="1.67" class="h">setaf</text><text x="37.074" y="1.67" class="h">1)●</text><text x="41.082" y="1.67" class="h">rec$(tput</text><text x="51.102" y="1.67" class="h">sgr0)</text><text x="57.114" y="1.67" class="h">file.&quot;</text></symbol><symbol id="4"><text y="1.67" class="f">To</text><text x="3.006" y="1.67" class="f">demonstrate</text><text x="15.03" y="1.67" class="f">a</text><text x="17.034" y="1.67" class="f">certain</text><text x="25.05" y="1.67" class="f">command</text><text x="33.066" y="1.67" class="f">you</text><text x="37.074" y="1.67" class="f">can</text><text x="41.082" y="1.67" class="f">type:</text></symbol><symbol id="5"><text x="4.008" y="1.67" class="h">rec</text><text x="8.016" y="1.67" class="h">my_command</text><text x="19.038" y="1.67" class="h">arg1</text><text x="24.048" y="1.67" class="h">arg2</text></symbol><symbol id="6"><text y="1.67" class="f">Of</text><text x="3.006" y="1.67" class="f">course,</text><text x="11.022" y="1.67" class="f">for</text><text x="15.03" y="1.67" class="f">that</text><text x="20.04" y="1.67" class="f">to</text><text x="23.046" y="1.67" class="f">work</text><text x="28.056" y="1.67" class="f">&apos;my_command&apos;</text><text x="41.082" y="1.67" class="f">needs</text><text x="47.094" y="1.67" class="f">to</text><text x="50.1" y="1.67" class="f">be</text><text x="53.106" y="1.67" class="f">declared.</text><text x="63.126" y="1.67" class="f">Let&apos;s</text><text x="69.138" y="1.67" class="f">do</text><text x="72.144" y="1.67" class="f">it:</text></symbol><symbol id="7"><text x="4.008" y="1.67" class="h">my_command()</text><text x="17.034" y="1.67" class="h">{</text></symbol><symbol id="8"><text x="6.012" y="1.67" class="h">echo</text><text x="11.022" y="1.67" class="h">&quot;doing</text><text x="18.036" y="1.67" class="h">stuff</text><text x="24.048" y="1.67" class="h">with&quot;</text><text x="30.06" y="1.67" class="h">&quot;$@&quot;</text></symbol><symbol id="9"><text x="4.008" y="1.67" class="h">}</text></symbol><symbol id="10"><text y="1.67" class="f">Next</text><text x="5.01" y="1.67" class="f">we</text><text x="8.016" y="1.67" class="f">will</text><text x="13.026" y="1.67" class="f">invoke:</text><text x="21.042" y="1.67" class="h">my_command</text><text x="32.064" y="1.67" class="h">arg1</text><text x="37.074" y="1.67" class="h">arg2</text></symbol><symbol id="11"><text y="1.67" class="f">doing</text><text x="6.012" y="1.67" class="f">stuff</text><text x="12.024" y="1.67" class="f">with</text><text x="17.034" y="1.67" class="f">arg1</text><text x="22.044" y="1.67" class="f">arg2</text></symbol><symbol id="12"><text y="1.67" class="f">And</text><text x="4.008" y="1.67" class="f">now:</text><text x="9.018" y="1.67" class="h">rec</text><text x="13.026" y="1.67" class="h">my_command</text><text x="24.048" y="1.67" class="h">arg1</text><text x="29.058" y="1.67" class="h">arg2</text></symbol><symbol id="13"><text y="1.67" class="i">❱</text></symbol><symbol id="14"><text y="1.67" class="i">❱</text><text x="2.004" y="1.67" class="i">my_command</text><text x="13.026" y="1.67" class="i">arg1</text><text x="18.036" y="1.67" class="i">arg2</text></symbol><symbol id="15"><text y="1.67" class="j">❱</text><text x="2.004" y="1.67" class="j">my_command</text><text x="13.026" y="1.67" class="j">arg1</text><text x="18.036" y="1.67" class="j">arg2</text></symbol><symbol id="16"><text y="1.67" class="f">Non-zero</text><text x="9.018" y="1.67" class="f">return</text><text x="16.032" y="1.67" class="f">values</text><text x="23.046" y="1.67" class="f">and</text><text x="27.054" y="1.67" class="f">&quot;missing&quot;</text><text x="37.074" y="1.67" class="f">line</text><text x="42.084" y="1.67" class="f">breaks</text><text x="49.098" y="1.67" class="f">are</text><text x="53.106" y="1.67" class="f">highlighted</text><text x="65.13" y="1.67" class="f">by</text><text x="68.136" y="1.67" class="f">default:</text><text x="77.154" y="1.67" class="h">rec</text><text x="81.162" y="1.67" class="h">exit</text><text x="86.172" y="1.67" class="h">42</text></symbol><symbol id="17"><text y="1.67" class="i">❱</text><text x="2.004" y="1.67" class="i">exit</text><text x="7.014" y="1.67" class="i">42</text></symbol><symbol id="18"><text y="1.67" class="j">❱</text><text x="2.004" y="1.67" class="j">exit</text><text x="7.014" y="1.67" class="j">42</text></symbol><symbol id="a"><path fill="transparent" d="M0 0h132v26H0z"/></symbol><symbol id="b"><path fill="silver" d="M0 0h1.102v2.171H0z"/></symbol></defs><path class="a" d="M0 0h132v54.275H0z"/><g style="animation-duration:64.331401s;animation-iteration-count:infinite;animation-name:m;animation-timing-function:steps(1,end)"><svg width="6336"><svg><use href="#a"/><use href="#b" x="-.004"/></svg><svg x="132"><use href="#a"/><use href="#b" x="-.004"/></svg><svg x="264"><use href="#a"/><use href="#b" x="-.004" y="2.146"/></svg><svg x="396"><use href="#a"/><use href="#b" x="-.004" y="4.317"/><use href="#1" y="2.171"/></svg><svg x="528"><use href="#a"/><use href="#b" x="-.004" y="6.488"/><use href="#1" y="2.171"/></svg><svg x="660"><use href="#a"/><use href="#b" x="-.004" y="8.659"/><use href="#1" y="2.171"/><use href="#2" y="6.513"/></svg><svg x="792"><use href="#a"/><use href="#b" x="-.004" y="10.83"/><use href="#1" y="2.171"/><use href="#2" y="6.513"/><use href="#3" y="8.684"/></svg><svg x="924"><use href="#a"/><use href="#b" x="-.004" y="10.83"/><use href="#1" y="2.171"/><use href="#2" y="6.513"/><use href="#3" y="8.684"/></svg><svg x="1056"><use href="#a"/><use href="#b" x="-.004" y="13.001"/><use href="#1" y="2.171"/><use href="#2" y="6.513"/><use href="#3" y="8.684"/></svg><svg x="1188"><use href="#a"/><use href="#b" x="-.004" y="15.172"/><use href="#1" y="2.171"/><use href="#2" y="6.513"/><use href="#3" y="8.684"/><use href="#4" y="13.026"/></svg><svg x="1320"><use href="#a"/><use href="#b" x="-.004" y="17.343"/><use href="#1" y="2.171"/><use href="#2" y="6.513"/><use href="#3" y="8.684"/><use href="#4" y="13.026"/><use href="#5" y="15.197"/></svg><svg x="1452"><use href="#a"/><use href="#b" x="-.004" y="17.343"/><use href="#1" y="2.171"/><use href="#2" y="6.513"/><use href="#3" y="8.684"/><use href="#4" y="13.026"/><use href="#5" y="15.197"/></svg><svg x="1584"><use href="#a"/><use href="#b" x="-.004" y="19.514"/><use href="#1" y="2.171"/><use href="#2" y="6.513"/><use href="#3" y="8.684"/><use href="#4" y="13.026"/><use href="#5" y="15.197"/></svg><svg x="1716"><use href="#a"/><use href="#b" x="-.004" y="21.685"/><use href="#1" y="2.171"/><use href="#2" y="6.513"/><use href="#3" y="8.684"/><use href="#4" y="13.026"/><use href="#5" y="15.197"/><use href="#6" y="19.539"/></svg><svg x="1848"><use href="#a"/><use href="#b" x="-.004" y="28.198"/><use href="#1" y="2.171"/><use href="#2" y="6.513"/><use href="#3" y="8.684"/><use href="#4" y="13.026"/><use href="#5" y="15.197"/><use href="#6" y="19.539"/><use href="#7" y="21.71"/><use href="#8" y="23.881"/><use href="#9" y="26.052"/></svg><svg x="1980"><use href="#a"/><use href="#b" x="-.004" y="28.198"/><use href="#1" y="2.171"/><use href="#2" y="6.513"/><use href="#3" y="8.684"/><use href="#4" y="13.026"/><use href="#5" y="15.197"/><use href="#6" y="19.539"/><use href="#7" y="21.71"/><use href="#8" y="23.881"/><use href="#9" y="26.052"/></svg><svg x="2112"><use href="#a"/><use href="#b" x="-.004" y="30.369"/><use href="#1" y="2.171"/><use href="#2" y="6.513"/><use href="#3" y="8.684"/><use href="#4" y="13.026"/><use href="#5" y="15.197"/><use href="#6" y="19.539"/><use href="#7" y="21.71"/><use href="#8" y="23.881"/><use href="#9" y="26.052"/></svg><svg x="2244"><use href="#a"/><use href="#b" x="40.996" y="30.369"/><use href="#1" y="2.171"/><use href="#2" y="6.513"/><use href="#3" y="8.684"/><use href="#4" y="13.026"/><use href="#5" y="15.197"/><use href="#6" y="19.539"/><use href="#7" y="21.71"/><use href="#8" y="23.881"/><use href="#9" y="26.052"/><use href="#10" y="30.394"/></svg><svg x="2376"><use href="#a"/><use href="#b" x="40.996" y="30.369"/><use href="#1" y="2.171"/><use href="#2" y="6.513"/><use href="#3" y="8.684"/><use href="#4" y="13.026"/><use href="#5" y="15.197"/><use href="#6" y="19.539"/><use href="#7" y="21.71"/><use href="#8" y="23.881"/><use href="#9" y="26.052"/><use href="#10" y="30.394"/></svg><svg x="2508"><use href="#a"/><use href="#b" x="-.004" y="32.54"/><use href="#1" y="2.171"/><use href="#2" y="6.513"/><use href="#3" y="8.684"/><use href="#4" y="13.026"/><use href="#5" y="15.197"/><use href="#6" y="19.539"/><use href="#7" y="21.71"/><use href="#8" y="23.881"/><use href="#9" y="26.052"/><use href="#10" y="30.394"/></svg><svg x="2640"><use href="#a"/><use href="#b" x="-.004" y="34.711"/><use href="#1" y="2.171"/><use href="#2" y="6.513"/><use href="#3" y="8.684"/><use href="#4" y="13.026"/><use href="#5" y="15.197"/><use href="#6" y="19.539"/><use href="#7" y="21.71"/><use href="#8" y="23.881"/><use href="#9" y="26.052"/><use href="#10" y="30.394"/><use href="#11" y="32.565"/></svg><svg x="2772"><use href="#a"/><use href="#b" x="-.004" y="34.711"/><use href="#1" y="2.171"/><use href="#2" y="6.513"/><use href="#3" y="8.684"/><use href="#4" y="13.026"/><use href="#5" y="15.197"/><use href="#6" y="19.539"/><use href="#7" y="21.71"/><use href="#8" y="23.881"/><use href="#9" y="26.052"/><use href="#10" y="30.394"/><use href="#11" y="32.565"/></svg><svg x="2904"><use href="#a"/><use href="#b" x="-.004" y="36.882"/><use href="#1" y="2.171"/><use href="#2" y="6.513"/><use href="#3" y="8.684"/><use href="#4" y="13.026"/><use href="#5" y="15.197"/><use href="#6" y="19.539"/><use href="#7" y="21.71"/><use href="#8" y="23.881"/><use href="#9" y="26.052"/><use href="#10" y="30.394"/><use href="#11" y="32.565"/></svg><svg x="3036"><use href="#a"/><use href="#b" x="32.996" y="36.882"/><use href="#1" y="2.171"/><use href="#2" y="6.513"/><use href="#3" y="8.684"/><use href="#4" y="13.026"/><use href="#5" y="15.197"/><use href="#6" y="19.539"/><use href="#7" y="21.71"/><use href="#8" y="23.881"/><use href="#9" y="26.052"/><use href="#10" y="30.394"/><use href="#11" y="32.565"/><use href="#12" y="36.907"/></svg><svg x="3168"><use href="#a"/><use href="#b" x="32.996" y="36.882"/><use href="#1" y="2.171"/><use href="#2" y="6.513"/><use href="#3" y="8.684"/><use href="#4" y="13.026"/><use href="#5" y="15.197"/><use href="#6" y="19.539"/><use href="#7" y="21.71"/><use href="#8" y="23.881"/><use href="#9" y="26.052"/><use href="#10" y="30.394"/><use href="#11" y="32.565"/><use href="#12" y="36.907"/></svg><svg x="3300"><use href="#a"/><use href="#b" x="-.004" y="39.053"/><use href="#1" y="2.171"/><use href="#2" y="6.513"/><use href="#3" y="8.684"/><use href="#4" y="13.026"/><use href="#5" y="15.197"/><use href="#6" y="19.539"/><use href="#7" y="21.71"/><use href="#8" y="23.881"/><use href="#9" y="26.052"/><use href="#10" y="30.394"/><use href="#11" y="32.565"/><use href="#12" y="36.907"/></svg><svg x="3432"><use href="#a"/><use href="#b" x="1.996" y="39.053"/><use href="#1" y="2.171"/><use href="#2" y="6.513"/><use href="#3" y="8.684"/><use href="#4" y="13.026"/><use href="#5" y="15.197"/><use href="#6" y="19.539"/><use href="#7" y="21.71"/><use href="#8" y="23.881"/><use href="#9" y="26.052"/><use href="#10" y="30.394"/><use href="#11" y="32.565"/><use href="#12" y="36.907"/><use href="#13" y="39.078"/></svg><svg x="3564"><use href="#a"/><use href="#b" x="14.996" y="39.053"/><use href="#1" y="2.171"/><use href="#2" y="6.513"/><use href="#3" y="8.684"/><use href="#4" y="13.026"/><use href="#5" y="15.197"/><use href="#6" y="19.539"/><use href="#7" y="21.71"/><use href="#8" y="23.881"/><use href="#9" y="26.052"/><use href="#10" y="30.394"/><use href="#11" y="32.565"/><use href="#12" y="36.907"/><text y="40.748" class="i">❱</text><text x="2.004" y="40.748" class="i">my_command</text><text x="13.026" y="40.748" class="i">ar</text></svg><svg x="3696"><use href="#a"/><use href="#b" x="21.996" y="39.053"/><use href="#1" y="2.171"/><use href="#2" y="6.513"/><use href="#3" y="8.684"/><use href="#4" y="13.026"/><use href="#5" y="15.197"/><use href="#6" y="19.539"/><use href="#7" y="21.71"/><use href="#8" y="23.881"/><use href="#9" y="26.052"/><use href="#10" y="30.394"/><use href="#11" y="32.565"/><use href="#12" y="36.907"/><use href="#14" y="39.078"/></svg><svg x="3828"><use href="#a"/><use href="#1" y="2.171"/><use href="#2" y="6.513"/><use href="#3" y="8.684"/><use href="#4" y="13.026"/><use href="#5" y="15.197"/><use href="#6" y="19.539"/><use href="#7" y="21.71"/><use href="#8" y="23.881"/><use href="#9" y="26.052"/><use href="#10" y="30.394"/><use href="#11" y="32.565"/><use href="#12" y="36.907"/><use href="#14" y="39.078"/></svg><svg x="3960"><use href="#a"/><use href="#b" x="21.996" y="39.053"/><use href="#1" y="2.171"/><use href="#2" y="6.513"/><use href="#3" y="8.684"/><use href="#4" y="13.026"/><use href="#5" y="15.197"/><use href="#6" y="19.539"/><use href="#7" y="21.71"/><use href="#8" y="23.881"/><use href="#9" y="26.052"/><use href="#10" y="30.394"/><use href="#11" y="32.565"/><use href="#12" y="36.907"/><use href="#14" y="39.078"/></svg><svg x="4092"><use href="#a"/><use href="#b" x="-.004" y="41.224"/><use href="#1" y="2.171"/><use href="#2" y="6.513"/><use href="#3" y="8.684"/><use href="#4" y="13.026"/><use href="#5" y="15.197"/><use href="#6" y="19.539"/><use href="#7" y="21.71"/><use href="#8" y="23.881"/><use href="#9" y="26.052"/><use href="#10" y="30.394"/><use href="#11" y="32.565"/><use href="#12" y="36.907"/><use href="#15" y="39.078"/></svg><svg x="4224"><use href="#a"/><use href="#1" y="2.171"/><use href="#2" y="6.513"/><use href="#3" y="8.684"/><use href="#4" y="13.026"/><use href="#5" y="15.197"/><use href="#6" y="19.539"/><use href="#7" y="21.71"/><use href="#8" y="23.881"/><use href="#9" y="26.052"/><use href="#10" y="30.394"/><use href="#11" y="32.565"/><use href="#12" y="36.907"/><use href="#15" y="39.078"/></svg><svg x="4356"><use href="#a"/><use href="#1" y="2.171"/><use href="#2" y="6.513"/><use href="#3" y="8.684"/><use href="#4" y="13.026"/><use href="#5" y="15.197"/><use href="#6" y="19.539"/><use href="#7" y="21.71"/><use href="#8" y="23.881"/><use href="#9" y="26.052"/><use href="#10" y="30.394"/><use href="#11" y="32.565"/><use href="#12" y="36.907"/><use href="#15" y="39.078"/><use href="#11" y="41.249"/></svg><svg x="4488"><use href="#a"/><use href="#1" y="2.171"/><use href="#2" y="6.513"/><use href="#3" y="8.684"/><use href="#4" y="13.026"/><use href="#5" y="15.197"/><use href="#6" y="19.539"/><use href="#7" y="21.71"/><use href="#8" y="23.881"/><use href="#9" y="26.052"/><use href="#10" y="30.394"/><use href="#11" y="32.565"/><use href="#12" y="36.907"/><use href="#15" y="39.078"/><use href="#11" y="41.249"/></svg><svg x="4620"><use href="#a"/><use href="#1" y="2.171"/><use href="#2" y="6.513"/><use href="#3" y="8.684"/><use href="#4" y="13.026"/><use href="#5" y="15.197"/><use href="#6" y="19.539"/><use href="#7" y="21.71"/><use href="#8" y="23.881"/><use href="#9" y="26.052"/><use href="#10" y="30.394"/><use href="#11" y="32.565"/><use href="#12" y="36.907"/><use href="#15" y="39.078"/><use href="#11" y="41.249"/></svg><svg x="4752"><use href="#a"/><use href="#b" x="-.004" y="45.566"/><use href="#1" y="2.171"/><use href="#2" y="6.513"/><use href="#3" y="8.684"/><use href="#4" y="13.026"/><use href="#5" y="15.197"/><use href="#6" y="19.539"/><use href="#7" y="21.71"/><use href="#8" y="23.881"/><use href="#9" y="26.052"/><use href="#10" y="30.394"/><use href="#11" y="32.565"/><use href="#12" y="36.907"/><use href="#15" y="39.078"/><use href="#11" y="41.249"/></svg><svg x="4884"><use href="#a"/><use href="#b" x="-.004" y="47.737"/><use href="#1" y="2.171"/><use href="#2" y="6.513"/><use href="#3" y="8.684"/><use href="#4" y="13.026"/><use href="#5" y="15.197"/><use href="#6" y="19.539"/><use href="#7" y="21.71"/><use href="#8" y="23.881"/><use href="#9" y="26.052"/><use href="#10" y="30.394"/><use href="#11" y="32.565"/><use href="#12" y="36.907"/><use href="#15" y="39.078"/><use href="#11" y="41.249"/></svg><svg x="5016"><use href="#a"/><use href="#b" x="87.996" y="47.737"/><use href="#1" y="2.171"/><use href="#2" y="6.513"/><use href="#3" y="8.684"/><use href="#4" y="13.026"/><use href="#5" y="15.197"/><use href="#6" y="19.539"/><use href="#7" y="21.71"/><use href="#8" y="23.881"/><use href="#9" y="26.052"/><use href="#10" y="30.394"/><use href="#11" y="32.565"/><use href="#12" y="36.907"/><use href="#15" y="39.078"/><use href="#11" y="41.249"/><use href="#16" y="47.762"/></svg><svg x="5148"><use href="#a"/><use href="#b" x="87.996" y="47.737"/><use href="#1" y="2.171"/><use href="#2" y="6.513"/><use href="#3" y="8.684"/><use href="#4" y="13.026"/><use href="#5" y="15.197"/><use href="#6" y="19.539"/><use href="#7" y="21.71"/><use href="#8" y="23.881"/><use href="#9" y="26.052"/><use href="#10" y="30.394"/><use href="#11" y="32.565"/><use href="#12" y="36.907"/><use href="#15" y="39.078"/><use href="#11" y="41.249"/><use href="#16" y="47.762"/></svg><svg x="5280"><use href="#a"/><use href="#b" x="-.004" y="49.908"/><use href="#1" y="2.171"/><use href="#2" y="6.513"/><use href="#3" y="8.684"/><use href="#4" y="13.026"/><use href="#5" y="15.197"/><use href="#6" y="19.539"/><use href="#7" y="21.71"/><use href="#8" y="23.881"/><use href="#9" y="26.052"/><use href="#10" y="30.394"/><use href="#11" y="32.565"/><use href="#12" y="36.907"/><use href="#15" y="39.078"/><use href="#11" y="41.249"/><use href="#16" y="47.762"/></svg><svg x="5412"><use href="#a"/><use href="#b" x="1.996" y="49.908"/><use href="#1" y="2.171"/><use href="#2" y="6.513"/><use href="#3" y="8.684"/><use href="#4" y="13.026"/><use href="#5" y="15.197"/><use href="#6" y="19.539"/><use href="#7" y="21.71"/><use href="#8" y="23.881"/><use href="#9" y="26.052"/><use href="#10" y="30.394"/><use href="#11" y="32.565"/><use href="#12" y="36.907"/><use href="#15" y="39.078"/><use href="#11" y="41.249"/><use href="#16" y="47.762"/><use href="#13" y="49.933"/></svg><svg x="5544"><use href="#a"/><use href="#b" x="8.996" y="49.908"/><use href="#1" y="2.171"/><use href="#2" y="6.513"/><use href="#3" y="8.684"/><use href="#4" y="13.026"/><use href="#5" y="15.197"/><use href="#6" y="19.539"/><use href="#7" y="21.71"/><use href="#8" y="23.881"/><use href="#9" y="26.052"/><use href="#10" y="30.394"/><use href="#11" y="32.565"/><use href="#12" y="36.907"/><use href="#15" y="39.078"/><use href="#11" y="41.249"/><use href="#16" y="47.762"/><use href="#17" y="49.933"/></svg><svg x="5676"><use href="#a"/><use href="#1" y="2.171"/><use href="#2" y="6.513"/><use href="#3" y="8.684"/><use href="#4" y="13.026"/><use href="#5" y="15.197"/><use href="#6" y="19.539"/><use href="#7" y="21.71"/><use href="#8" y="23.881"/><use href="#9" y="26.052"/><use href="#10" y="30.394"/><use href="#11" y="32.565"/><use href="#12" y="36.907"/><use href="#15" y="39.078"/><use href="#11" y="41.249"/><use href="#16" y="47.762"/><use href="#17" y="49.933"/></svg><svg x="5808"><use href="#a"/><use href="#b" x="8.996" y="49.908"/><use href="#1" y="2.171"/><use href="#2" y="6.513"/><use href="#3" y="8.684"/><use href="#4" y="13.026"/><use href="#5" y="15.197"/><use href="#6" y="19.539"/><use href="#7" y="21.71"/><use href="#8" y="23.881"/><use href="#9" y="26.052"/><use href="#10" y="30.394"/><use href="#11" y="32.565"/><use href="#12" y="36.907"/><use href="#15" y="39.078"/><use href="#11" y="41.249"/><use href="#16" y="47.762"/><use href="#17" y="49.933"/></svg><svg x="5940"><use href="#a"/><use href="#b" x="8.996" y="49.908"/><use href="#1" y="2.171"/><use href="#2" y="6.513"/><use href="#3" y="8.684"/><use href="#4" y="13.026"/><use href="#5" y="15.197"/><use href="#6" y="19.539"/><use href="#7" y="21.71"/><use href="#8" y="23.881"/><use href="#9" y="26.052"/><use href="#10" y="30.394"/><use href="#11" y="32.565"/><use href="#12" y="36.907"/><use href="#15" y="39.078"/><use href="#11" y="41.249"/><use href="#16" y="47.762"/><use href="#18" y="49.933"/></svg><svg x="6072"><use href="#a"/><use href="#b" x="-.004" y="52.079"/><use href="#1" y="2.171"/><use href="#2" y="6.513"/><use href="#3" y="8.684"/><use href="#4" y="13.026"/><use href="#5" y="15.197"/><use href="#6" y="19.539"/><use href="#7" y="21.71"/><use href="#8" y="23.881"/><use href="#9" y="26.052"/><use href="#10" y="30.394"/><use href="#11" y="32.565"/><use href="#12" y="36.907"/><use href="#15" y="39.078"/><use href="#11" y="41.249"/><use href="#16" y="47.762"/><use href="#18" y="49.933"/></svg><svg x="6204"><use href="#a"/><use href="#1" y="2.171"/><use href="#2" y="6.513"/><use href="#3" y="8.684"/><use href="#4" y="13.026"/><use href="#5" y="15.197"/><use href="#6" y="19.539"/><use href="#7" y="21.71"/><use href="#8" y="23.881"/><use href="#9" y="26.052"/><use href="#10" y="30.394"/><use href="#11" y="32.565"/><use href="#12" y="36.907"/><use href="#15" y="39.078"/><use href="#11" y="41.249"/><use href="#16" y="47.762"/><use href="#18" y="49.933"/></svg></svg></g><svg height="100%" width="100%" viewBox="0 0 100 100" class="container_end"><text text-anchor="middle" alignment-baseline="central"><tspan y="50" x="50" style="font-size: 50px;">❚❚</tspan></text></svg></g></svg></svg>
