<svg xmlns="http://www.w3.org/2000/svg" width="1400" height="642.75"><rect width="1400" height="642.75" rx="5" ry="5" class="a"/><svg y="0%" x="0%"><circle cx="20" cy="20" r="6" fill="#ff5f58"/><circle cx="40" cy="20" r="6" fill="#ffbd2e"/><circle cx="60" cy="20" r="6" fill="#18c132"/></svg><svg height="542.75" viewBox="0 0 132 54.275" width="1320" x="35" xmlns="http://www.w3.org/2000/svg" y="70"><style>.inserted-lf{fill:#999999;fill-opacity:.75;font-variant-position:sub;font-size:75%}.container{font-family:'JetBrains Mono','Monaco','Consolas','Menlo','Bitstream Vera Sans Mono','Lucida Console','Ubuntu Mono','Meslo for Powerline','Meslo LG M for Powerline','Powerline Symbols','Monospace','monospace'}.container>g{animation-play-state:running}.container_end{fill:whitesmoke;mix-blend-mode:soft-light;opacity:0;transition:opacity .2s ease-in-out}.container:hover>g{animation-play-state:paused}.container{pointer-events:all}.container:hover{cursor:wait}.container:hover>.container_end{opacity:1}.container>g>svg>svg>*{transform: scaleY(.95);}@keyframes p{0%{transform:translateX(-132px)}.1%{transform:translateX(-264px)}7.2%{transform:translateX(-396px)}10.9%{transform:translateX(-528px)}14.3%{transform:translateX(-660px)}14.4%{transform:translateX(-924px)}15.1%{transform:translateX(-1188px)}15.2%{transform:translateX(-1452px)}16.3%{transform:translateX(-1716px)}23.4%{transform:translateX(-1848px)}27.1%{transform:translateX(-1980px)}30.6%{transform:translateX(-2772px)}30.7%{transform:translateX(-3432px)}34.1%{transform:translateX(-3564px)}37.6%{transform:translateX(-3696px)}37.8%{transform:translateX(-3960px)}51%{transform:translateX(-4224px)}51.1%{transform:translateX(-4620px)}51.2%{transform:translateX(-4884px)}58.3%{transform:translateX(-5016px)}62%{transform:translateX(-5148px)}65.5%{transform:translateX(-5808px)}65.6%{transform:translateX(-6336px)}69%{transform:translateX(-6468px)}72.5%{transform:translateX(-6732px)}75.9%{transform:translateX(-6864px)}79.4%{transform:translateX(-7128px)}82.8%{transform:translateX(-7260px)}86.2%{transform:translateX(-7524px)}89.7%{transform:translateX(-7656px)}93.1%{transform:translateX(-7920px)}96.6%{transform:translateX(-8052px)}to{transform:translateX(-8184px)}}.a{fill:#2d2d2d}.f,.g,.h{fill:#dcdcdc;white-space:pre}.g,.h{fill:#6e6e6e}.h{fill:#b0b0b0}.i{fill:#69b745}.i,.j,.l,.m{white-space:pre}.j{fill:#c6c6c6;font-weight:700}.l,.m{fill:#ffd726}.m{fill:#c21e73;font-weight:700}</style><g class="container" font-size="1.67"><defs><symbol id="1"><text y="1.67" class="f">❱</text></symbol><symbol id="2"><text y="1.67" class="f">❱</text><text x="2.004" y="1.67" class="f">./recordr</text><text x="12.024" y="1.67" class="f">--build-dir=&quot;$TMPDIR&quot;</text><text x="34.068" y="1.67" class="f">rec/hello-world.rec</text></symbol><symbol id="3"><text y="1.67" class="g">❱</text><text x="2.004" y="1.67" class="g">./recordr</text><text x="12.024" y="1.67" class="g">--build-dir=&quot;$TMPDIR&quot;</text><text x="34.068" y="1.67" class="g">rec/hello-world.rec</text></symbol><symbol id="4"><text x="1.002" y="1.67" class="f">ℹ</text><text x="3.006" y="1.67" class="h">terminal</text><text x="12.024" y="1.67" class="h">profile</text><text x="20.04" y="1.67" class="h">search</text><a href="directory:"><title>Displayed as link in supporting terminal emulators</title><text x="27.054" y="1.67" class="h">directory:</text></a><text x="38.076" y="1.67" class="h">rec</text></symbol><symbol id="5"><text x="1.002" y="1.67" class="i">✔</text><a href="find_term_profile:"><title>Displayed as link in supporting terminal emulators</title><text x="3.006" y="1.67" class="h">find_term_profile:</text></a><text x="22.044" y="1.67" class="j">terminal</text><a href="profile:"><title>Displayed as link in supporting terminal emulators</title><text x="31.062" y="1.67" class="j">profile:</text></a><text x="40.08" y="1.67" class="j">rec/.itermcolors</text></symbol><symbol id="6"><text x="1.002" y="1.67" style="white-space:pre" fill="#c21e73">●</text><a href="RECORDING:"><title>Displayed as link in supporting terminal emulators</title><text x="3.006" y="1.67" class="h">RECORDING:</text></a><text x="14.028" y="1.67" class="j">rec/hello-world.rec</text></symbol><symbol id="7"><text y="1.67" class="f">❱</text><text x="2.004" y="1.67" class="f">echo</text><text x="7.014" y="1.67" class="f">Hello\</text><text x="14.028" y="1.67" class="f">World\!</text></symbol><symbol id="8"><text y="1.67" class="g">❱</text><text x="2.004" y="1.67" class="g">echo</text><text x="7.014" y="1.67" class="g">Hello\</text><text x="14.028" y="1.67" class="g">World\!</text></symbol><symbol id="9"><text y="1.67" class="h">Hello</text><text x="6.012" y="1.67" class="h">World!</text></symbol><symbol id="10"><text y="1.67" class="h">1</text></symbol><symbol id="11"><text x="1.002" y="1.67" class="l">◔</text><a href="CONVERTING:"><title>Displayed as link in supporting terminal emulators</title><text x="3.006" y="1.67" class="h">CONVERTING:</text></a><text x="15.03" y="1.67" class="j">/tmp/hello-world.cast</text></symbol><symbol id="12"><text x="1.002" y="1.67" class="l">◑</text><a href="PATCHING:"><title>Displayed as link in supporting terminal emulators</title><text x="3.006" y="1.67" class="h">PATCHING:</text></a><text x="13.026" y="1.67" class="j">/tmp/hello-world.svg.0</text></symbol><symbol id="13"><text x="1.002" y="1.67" class="l">◕</text><a href="LINKING:"><title>Displayed as link in supporting terminal emulators</title><text x="3.006" y="1.67" class="h">LINKING:</text></a><text x="12.024" y="1.67" class="j">/tmp/hello-world.svg.1</text></symbol><symbol id="14"><text x="1.002" y="1.67" class="l">●</text><a href="ANNOTATING:"><title>Displayed as link in supporting terminal emulators</title><text x="3.006" y="1.67" class="h">ANNOTATING:</text></a><text x="15.03" y="1.67" class="j">/tmp/hello-world.svg.2</text></symbol><symbol id="15"><text x="1.002" y="1.67" class="i">●</text><a href="COMPLETED:"><title>Displayed as link in supporting terminal emulators</title><text x="3.006" y="1.67" class="h">COMPLETED:</text></a><text x="14.028" y="1.67" class="j">docs/hello-world.svg</text></symbol><symbol id="16"><text y="1.67" class="h">docs/hello-world.svg</text></symbol><symbol id="17"><text y="1.67" class="f">❱</text><text x="2.004" y="1.67" class="f">TESTING=1</text><text x="12.024" y="1.67" class="f">--build-dir=&quot;$TMPDIR&quot;</text><text x="34.068" y="1.67" class="f">./recordr</text><text x="44.088" y="1.67" class="f">rec/hello-world.rec</text></symbol><symbol id="18"><text y="1.67" class="g">❱</text><text x="2.004" y="1.67" class="g">TESTING=1</text><text x="12.024" y="1.67" class="g">--build-dir=&quot;$TMPDIR&quot;</text><text x="34.068" y="1.67" class="g">./recordr</text><text x="44.088" y="1.67" class="g">rec/hello-world.rec</text></symbol><symbol id="19"><text y="1.67" class="h">build/rec/recording-hello-world.sh:</text><text x="36.072" y="1.67" class="h">line</text><a href="45:"><title>Displayed as link in supporting terminal emulators</title><text x="41.082" y="1.67" class="h">45:</text></a><text x="45.09" y="1.67" class="h">--build-dir=/tmp:</text><text x="63.126" y="1.67" class="h">No</text><text x="66.132" y="1.67" class="h">such</text><text x="71.142" y="1.67" class="h">file</text><text x="76.152" y="1.67" class="h">or</text><text x="79.158" y="1.67" class="h">directory</text></symbol><symbol id="20"><text y="1.67" class="h">build/rec/recording-hello-world.sh:</text><text x="36.072" y="1.67" class="h">line</text><a href="45:"><title>Displayed as link in supporting terminal emulators</title><text x="41.082" y="1.67" class="h">45:</text></a><text x="45.09" y="1.67" class="h">--build-dir=/tmp:</text><text x="63.126" y="1.67" class="h">No</text><text x="66.132" y="1.67" class="h">such</text><text x="71.142" y="1.67" class="h">file</text><text x="76.152" y="1.67" class="h">or</text><text x="79.158" y="1.67" class="h">directory</text><text x="126.252" y="1.67" class="m">↩</text><text x="128.256" y="1.67" class="m">127</text></symbol><symbol id="21"><text y="1.67" class="h">5</text></symbol><symbol id="22"><text y="1.67" class="h">4</text></symbol><symbol id="23"><text y="1.67" class="h">3</text></symbol><symbol id="24"><text y="1.67" class="h">2</text></symbol><symbol id="a"><path fill="transparent" d="M0 0h132v26H0z"/></symbol><symbol id="b"><path fill="silver" d="M0 0h1.102v2.171H0z"/></symbol></defs><path class="a" d="M0 0h132v54.275H0z"/><g style="animation-duration:14.64235s;animation-iteration-count:infinite;animation-name:p;animation-timing-function:steps(1,end)"><svg width="8316"><svg><use href="#a"/><use href="#b" x="-.004"/></svg><svg x="132"><use href="#a"/><use href="#b" x="-.004"/></svg><svg x="264"><use href="#a"/><use href="#b" x="1.996"/><use href="#1"/></svg><svg x="396"><use href="#a"/><use href="#b" x="52.996"/><use href="#2"/></svg><svg x="528"><use href="#a"/><use href="#2"/></svg><svg x="660"><use href="#a"/><use href="#b" x="52.996"/><use href="#2"/></svg><svg x="792"><use href="#a"/><use href="#b" x="-.004" y="2.146"/><use href="#3"/></svg><svg x="924"><use href="#a"/><use href="#3"/></svg><svg x="1056"><use href="#a"/><use href="#3"/></svg><svg x="1188"><use href="#a"/><use href="#3"/><use href="#4" y="2.171"/></svg><svg x="1320"><use href="#a"/><use href="#3"/><use href="#4" y="2.171"/><use href="#5" y="4.342"/></svg><svg x="1452"><use href="#a"/><use href="#3"/><use href="#4" y="2.171"/><use href="#5" y="4.342"/><use href="#6" y="6.513"/></svg><svg x="1584"><use href="#a"/><use href="#3"/><use href="#4" y="2.171"/><use href="#5" y="4.342"/><use href="#6" y="6.513"/></svg><svg x="1716"><use href="#a"/><use href="#b" x="1.996" y="8.659"/><use href="#3"/><use href="#4" y="2.171"/><use href="#5" y="4.342"/><use href="#6" y="6.513"/><use href="#1" y="8.684"/></svg><svg x="1848"><use href="#a"/><use href="#b" x="20.996" y="8.659"/><use href="#3"/><use href="#4" y="2.171"/><use href="#5" y="4.342"/><use href="#6" y="6.513"/><use href="#7" y="8.684"/></svg><svg x="1980"><use href="#a"/><use href="#3"/><use href="#4" y="2.171"/><use href="#5" y="4.342"/><use href="#6" y="6.513"/><use href="#7" y="8.684"/></svg><svg x="2112"><use href="#a"/><use href="#b" x="20.996" y="8.659"/><use href="#3"/><use href="#4" y="2.171"/><use href="#5" y="4.342"/><use href="#6" y="6.513"/><use href="#7" y="8.684"/></svg><svg x="2244"><use href="#a"/><use href="#b" x="20.996" y="8.659"/><use href="#3"/><use href="#4" y="2.171"/><use href="#5" y="4.342"/><use href="#6" y="6.513"/><use href="#8" y="8.684"/></svg><svg x="2376"><use href="#a"/><use href="#b" x="-.004" y="10.83"/><use href="#3"/><use href="#4" y="2.171"/><use href="#5" y="4.342"/><use href="#6" y="6.513"/><use href="#8" y="8.684"/></svg><svg x="2508"><use href="#a"/><use href="#3"/><use href="#4" y="2.171"/><use href="#5" y="4.342"/><use href="#6" y="6.513"/><use href="#8" y="8.684"/></svg><svg x="2640"><use href="#a"/><use href="#3"/><use href="#4" y="2.171"/><use href="#5" y="4.342"/><use href="#6" y="6.513"/><use href="#8" y="8.684"/></svg><svg x="2772"><use href="#a"/><use href="#3"/><use href="#4" y="2.171"/><use href="#5" y="4.342"/><use href="#6" y="6.513"/><use href="#8" y="8.684"/></svg><svg x="2904"><use href="#a"/><use href="#3"/><use href="#4" y="2.171"/><use href="#5" y="4.342"/><use href="#6" y="6.513"/><use href="#8" y="8.684"/></svg><svg x="3036"><use href="#a"/><use href="#3"/><use href="#4" y="2.171"/><use href="#5" y="4.342"/><use href="#6" y="6.513"/><use href="#8" y="8.684"/></svg><svg x="3168"><use href="#a"/><use href="#3"/><use href="#4" y="2.171"/><use href="#5" y="4.342"/><use href="#6" y="6.513"/><use href="#8" y="8.684"/><use href="#9" y="15.197"/></svg><svg x="3300"><use href="#a"/><use href="#3"/><use href="#4" y="2.171"/><use href="#5" y="4.342"/><use href="#6" y="6.513"/><use href="#8" y="8.684"/><use href="#9" y="15.197"/></svg><svg x="3432"><use href="#a"/><use href="#3"/><use href="#4" y="2.171"/><use href="#5" y="4.342"/><use href="#6" y="6.513"/><use href="#8" y="8.684"/><use href="#9" y="15.197"/><use href="#10" y="17.368"/></svg><svg x="3564"><use href="#a"/><use href="#b" x="-.004" y="17.343"/><use href="#3"/><use href="#4" y="2.171"/><use href="#5" y="4.342"/><use href="#6" y="6.513"/><use href="#8" y="8.684"/><use href="#9" y="15.197"/><use href="#10" y="17.368"/></svg><svg x="3696"><use href="#a"/><use href="#3"/><use href="#4" y="2.171"/><use href="#5" y="4.342"/><use href="#6" y="6.513"/><use href="#8" y="8.684"/><use href="#9" y="15.197"/><use href="#10" y="17.368"/></svg><svg x="3828"><use href="#a"/><use href="#3"/><use href="#4" y="2.171"/><use href="#5" y="4.342"/><use href="#6" y="6.513"/><use href="#8" y="8.684"/><use href="#9" y="15.197"/><use href="#11" y="17.368"/></svg><svg x="3960"><use href="#a"/><use href="#3"/><use href="#4" y="2.171"/><use href="#5" y="4.342"/><use href="#6" y="6.513"/><use href="#8" y="8.684"/><use href="#9" y="15.197"/><use href="#11" y="17.368"/></svg><svg x="4092"><use href="#a"/><use href="#3"/><use href="#4" y="2.171"/><use href="#5" y="4.342"/><use href="#6" y="6.513"/><use href="#8" y="8.684"/><use href="#9" y="15.197"/><use href="#11" y="17.368"/><use href="#12" y="19.539"/></svg><svg x="4224"><use href="#a"/><use href="#3"/><use href="#4" y="2.171"/><use href="#5" y="4.342"/><use href="#6" y="6.513"/><use href="#8" y="8.684"/><use href="#9" y="15.197"/><use href="#11" y="17.368"/><use href="#12" y="19.539"/><use href="#13" y="21.71"/></svg><svg x="4356"><use href="#a"/><use href="#3"/><use href="#4" y="2.171"/><use href="#5" y="4.342"/><use href="#6" y="6.513"/><use href="#8" y="8.684"/><use href="#9" y="15.197"/><use href="#11" y="17.368"/><use href="#12" y="19.539"/><use href="#13" y="21.71"/><use href="#14" y="23.881"/></svg><svg x="4488"><use href="#a"/><use href="#3"/><use href="#4" y="2.171"/><use href="#5" y="4.342"/><use href="#6" y="6.513"/><use href="#8" y="8.684"/><use href="#9" y="15.197"/><use href="#11" y="17.368"/><use href="#12" y="19.539"/><use href="#13" y="21.71"/><use href="#14" y="23.881"/><use href="#15" y="26.052"/></svg><svg x="4620"><use href="#a"/><use href="#3"/><use href="#4" y="2.171"/><use href="#5" y="4.342"/><use href="#6" y="6.513"/><use href="#8" y="8.684"/><use href="#9" y="15.197"/><use href="#11" y="17.368"/><use href="#12" y="19.539"/><use href="#13" y="21.71"/><use href="#14" y="23.881"/><use href="#15" y="26.052"/><use href="#16" y="28.223"/></svg><svg x="4752"><use href="#a"/><use href="#3"/><use href="#4" y="2.171"/><use href="#5" y="4.342"/><use href="#6" y="6.513"/><use href="#8" y="8.684"/><use href="#9" y="15.197"/><use href="#11" y="17.368"/><use href="#12" y="19.539"/><use href="#13" y="21.71"/><use href="#14" y="23.881"/><use href="#15" y="26.052"/><use href="#16" y="28.223"/></svg><svg x="4884"><use href="#a"/><use href="#b" x="1.996" y="32.54"/><use href="#3"/><use href="#4" y="2.171"/><use href="#5" y="4.342"/><use href="#6" y="6.513"/><use href="#8" y="8.684"/><use href="#9" y="15.197"/><use href="#11" y="17.368"/><use href="#12" y="19.539"/><use href="#13" y="21.71"/><use href="#14" y="23.881"/><use href="#15" y="26.052"/><use href="#16" y="28.223"/><use href="#1" y="32.565"/></svg><svg x="5016"><use href="#a"/><use href="#b" x="62.996" y="32.54"/><use href="#3"/><use href="#4" y="2.171"/><use href="#5" y="4.342"/><use href="#6" y="6.513"/><use href="#8" y="8.684"/><use href="#9" y="15.197"/><use href="#11" y="17.368"/><use href="#12" y="19.539"/><use href="#13" y="21.71"/><use href="#14" y="23.881"/><use href="#15" y="26.052"/><use href="#16" y="28.223"/><use href="#17" y="32.565"/></svg><svg x="5148"><use href="#a"/><use href="#3"/><use href="#4" y="2.171"/><use href="#5" y="4.342"/><use href="#6" y="6.513"/><use href="#8" y="8.684"/><use href="#9" y="15.197"/><use href="#11" y="17.368"/><use href="#12" y="19.539"/><use href="#13" y="21.71"/><use href="#14" y="23.881"/><use href="#15" y="26.052"/><use href="#16" y="28.223"/><use href="#17" y="32.565"/></svg><svg x="5280"><use href="#a"/><use href="#b" x="62.996" y="32.54"/><use href="#3"/><use href="#4" y="2.171"/><use href="#5" y="4.342"/><use href="#6" y="6.513"/><use href="#8" y="8.684"/><use href="#9" y="15.197"/><use href="#11" y="17.368"/><use href="#12" y="19.539"/><use href="#13" y="21.71"/><use href="#14" y="23.881"/><use href="#15" y="26.052"/><use href="#16" y="28.223"/><use href="#17" y="32.565"/></svg><svg x="5412"><use href="#a"/><use href="#b" x="-.004" y="34.711"/><use href="#3"/><use href="#4" y="2.171"/><use href="#5" y="4.342"/><use href="#6" y="6.513"/><use href="#8" y="8.684"/><use href="#9" y="15.197"/><use href="#11" y="17.368"/><use href="#12" y="19.539"/><use href="#13" y="21.71"/><use href="#14" y="23.881"/><use href="#15" y="26.052"/><use href="#16" y="28.223"/><use href="#18" y="32.565"/></svg><svg x="5544"><use href="#a"/><use href="#3"/><use href="#4" y="2.171"/><use href="#5" y="4.342"/><use href="#6" y="6.513"/><use href="#8" y="8.684"/><use href="#9" y="15.197"/><use href="#11" y="17.368"/><use href="#12" y="19.539"/><use href="#13" y="21.71"/><use href="#14" y="23.881"/><use href="#15" y="26.052"/><use href="#16" y="28.223"/><use href="#18" y="32.565"/></svg><svg x="5676"><use href="#a"/><use href="#3"/><use href="#4" y="2.171"/><use href="#5" y="4.342"/><use href="#6" y="6.513"/><use href="#8" y="8.684"/><use href="#9" y="15.197"/><use href="#11" y="17.368"/><use href="#12" y="19.539"/><use href="#13" y="21.71"/><use href="#14" y="23.881"/><use href="#15" y="26.052"/><use href="#16" y="28.223"/><use href="#18" y="32.565"/><use href="#19" y="34.736"/></svg><svg x="5808"><use href="#a"/><use href="#3"/><use href="#4" y="2.171"/><use href="#5" y="4.342"/><use href="#6" y="6.513"/><use href="#8" y="8.684"/><use href="#9" y="15.197"/><use href="#11" y="17.368"/><use href="#12" y="19.539"/><use href="#13" y="21.71"/><use href="#14" y="23.881"/><use href="#15" y="26.052"/><use href="#16" y="28.223"/><use href="#18" y="32.565"/><use href="#19" y="34.736"/></svg><svg x="5940"><use href="#a"/><use href="#3"/><use href="#4" y="2.171"/><use href="#5" y="4.342"/><use href="#6" y="6.513"/><use href="#8" y="8.684"/><use href="#9" y="15.197"/><use href="#11" y="17.368"/><use href="#12" y="19.539"/><use href="#13" y="21.71"/><use href="#14" y="23.881"/><use href="#15" y="26.052"/><use href="#16" y="28.223"/><use href="#18" y="32.565"/><use href="#20" y="34.736"/></svg><svg x="6072"><use href="#a"/><use href="#3"/><use href="#4" y="2.171"/><use href="#5" y="4.342"/><use href="#6" y="6.513"/><use href="#8" y="8.684"/><use href="#9" y="15.197"/><use href="#11" y="17.368"/><use href="#12" y="19.539"/><use href="#13" y="21.71"/><use href="#14" y="23.881"/><use href="#15" y="26.052"/><use href="#16" y="28.223"/><use href="#18" y="32.565"/><use href="#20" y="34.736"/></svg><svg x="6204"><use href="#a"/><use href="#3"/><use href="#4" y="2.171"/><use href="#5" y="4.342"/><use href="#6" y="6.513"/><use href="#8" y="8.684"/><use href="#9" y="15.197"/><use href="#11" y="17.368"/><use href="#12" y="19.539"/><use href="#13" y="21.71"/><use href="#14" y="23.881"/><use href="#15" y="26.052"/><use href="#16" y="28.223"/><use href="#18" y="32.565"/><use href="#20" y="34.736"/></svg><svg x="6336"><use href="#a"/><use href="#3"/><use href="#4" y="2.171"/><use href="#5" y="4.342"/><use href="#6" y="6.513"/><use href="#8" y="8.684"/><use href="#9" y="15.197"/><use href="#11" y="17.368"/><use href="#12" y="19.539"/><use href="#13" y="21.71"/><use href="#14" y="23.881"/><use href="#15" y="26.052"/><use href="#16" y="28.223"/><use href="#18" y="32.565"/><use href="#20" y="34.736"/><use href="#21" y="41.249"/></svg><svg x="6468"><use href="#a"/><use href="#b" x="-.004" y="41.224"/><use href="#3"/><use href="#4" y="2.171"/><use href="#5" y="4.342"/><use href="#6" y="6.513"/><use href="#8" y="8.684"/><use href="#9" y="15.197"/><use href="#11" y="17.368"/><use href="#12" y="19.539"/><use href="#13" y="21.71"/><use href="#14" y="23.881"/><use href="#15" y="26.052"/><use href="#16" y="28.223"/><use href="#18" y="32.565"/><use href="#20" y="34.736"/><use href="#21" y="41.249"/></svg><svg x="6600"><use href="#a"/><use href="#3"/><use href="#4" y="2.171"/><use href="#5" y="4.342"/><use href="#6" y="6.513"/><use href="#8" y="8.684"/><use href="#9" y="15.197"/><use href="#11" y="17.368"/><use href="#12" y="19.539"/><use href="#13" y="21.71"/><use href="#14" y="23.881"/><use href="#15" y="26.052"/><use href="#16" y="28.223"/><use href="#18" y="32.565"/><use href="#20" y="34.736"/><use href="#21" y="41.249"/></svg><svg x="6732"><use href="#a"/><use href="#3"/><use href="#4" y="2.171"/><use href="#5" y="4.342"/><use href="#6" y="6.513"/><use href="#8" y="8.684"/><use href="#9" y="15.197"/><use href="#11" y="17.368"/><use href="#12" y="19.539"/><use href="#13" y="21.71"/><use href="#14" y="23.881"/><use href="#15" y="26.052"/><use href="#16" y="28.223"/><use href="#18" y="32.565"/><use href="#20" y="34.736"/><use href="#22" y="41.249"/></svg><svg x="6864"><use href="#a"/><use href="#b" x="-.004" y="41.224"/><use href="#3"/><use href="#4" y="2.171"/><use href="#5" y="4.342"/><use href="#6" y="6.513"/><use href="#8" y="8.684"/><use href="#9" y="15.197"/><use href="#11" y="17.368"/><use href="#12" y="19.539"/><use href="#13" y="21.71"/><use href="#14" y="23.881"/><use href="#15" y="26.052"/><use href="#16" y="28.223"/><use href="#18" y="32.565"/><use href="#20" y="34.736"/><use href="#22" y="41.249"/></svg><svg x="6996"><use href="#a"/><use href="#3"/><use href="#4" y="2.171"/><use href="#5" y="4.342"/><use href="#6" y="6.513"/><use href="#8" y="8.684"/><use href="#9" y="15.197"/><use href="#11" y="17.368"/><use href="#12" y="19.539"/><use href="#13" y="21.71"/><use href="#14" y="23.881"/><use href="#15" y="26.052"/><use href="#16" y="28.223"/><use href="#18" y="32.565"/><use href="#20" y="34.736"/><use href="#22" y="41.249"/></svg><svg x="7128"><use href="#a"/><use href="#3"/><use href="#4" y="2.171"/><use href="#5" y="4.342"/><use href="#6" y="6.513"/><use href="#8" y="8.684"/><use href="#9" y="15.197"/><use href="#11" y="17.368"/><use href="#12" y="19.539"/><use href="#13" y="21.71"/><use href="#14" y="23.881"/><use href="#15" y="26.052"/><use href="#16" y="28.223"/><use href="#18" y="32.565"/><use href="#20" y="34.736"/><use href="#23" y="41.249"/></svg><svg x="7260"><use href="#a"/><use href="#b" x="-.004" y="41.224"/><use href="#3"/><use href="#4" y="2.171"/><use href="#5" y="4.342"/><use href="#6" y="6.513"/><use href="#8" y="8.684"/><use href="#9" y="15.197"/><use href="#11" y="17.368"/><use href="#12" y="19.539"/><use href="#13" y="21.71"/><use href="#14" y="23.881"/><use href="#15" y="26.052"/><use href="#16" y="28.223"/><use href="#18" y="32.565"/><use href="#20" y="34.736"/><use href="#23" y="41.249"/></svg><svg x="7392"><use href="#a"/><use href="#3"/><use href="#4" y="2.171"/><use href="#5" y="4.342"/><use href="#6" y="6.513"/><use href="#8" y="8.684"/><use href="#9" y="15.197"/><use href="#11" y="17.368"/><use href="#12" y="19.539"/><use href="#13" y="21.71"/><use href="#14" y="23.881"/><use href="#15" y="26.052"/><use href="#16" y="28.223"/><use href="#18" y="32.565"/><use href="#20" y="34.736"/><use href="#23" y="41.249"/></svg><svg x="7524"><use href="#a"/><use href="#3"/><use href="#4" y="2.171"/><use href="#5" y="4.342"/><use href="#6" y="6.513"/><use href="#8" y="8.684"/><use href="#9" y="15.197"/><use href="#11" y="17.368"/><use href="#12" y="19.539"/><use href="#13" y="21.71"/><use href="#14" y="23.881"/><use href="#15" y="26.052"/><use href="#16" y="28.223"/><use href="#18" y="32.565"/><use href="#20" y="34.736"/><use href="#24" y="41.249"/></svg><svg x="7656"><use href="#a"/><use href="#b" x="-.004" y="41.224"/><use href="#3"/><use href="#4" y="2.171"/><use href="#5" y="4.342"/><use href="#6" y="6.513"/><use href="#8" y="8.684"/><use href="#9" y="15.197"/><use href="#11" y="17.368"/><use href="#12" y="19.539"/><use href="#13" y="21.71"/><use href="#14" y="23.881"/><use href="#15" y="26.052"/><use href="#16" y="28.223"/><use href="#18" y="32.565"/><use href="#20" y="34.736"/><use href="#24" y="41.249"/></svg><svg x="7788"><use href="#a"/><use href="#3"/><use href="#4" y="2.171"/><use href="#5" y="4.342"/><use href="#6" y="6.513"/><use href="#8" y="8.684"/><use href="#9" y="15.197"/><use href="#11" y="17.368"/><use href="#12" y="19.539"/><use href="#13" y="21.71"/><use href="#14" y="23.881"/><use href="#15" y="26.052"/><use href="#16" y="28.223"/><use href="#18" y="32.565"/><use href="#20" y="34.736"/><use href="#24" y="41.249"/></svg><svg x="7920"><use href="#a"/><use href="#3"/><use href="#4" y="2.171"/><use href="#5" y="4.342"/><use href="#6" y="6.513"/><use href="#8" y="8.684"/><use href="#9" y="15.197"/><use href="#11" y="17.368"/><use href="#12" y="19.539"/><use href="#13" y="21.71"/><use href="#14" y="23.881"/><use href="#15" y="26.052"/><use href="#16" y="28.223"/><use href="#18" y="32.565"/><use href="#20" y="34.736"/><use href="#10" y="41.249"/></svg><svg x="8052"><use href="#a"/><use href="#b" x="-.004" y="41.224"/><use href="#3"/><use href="#4" y="2.171"/><use href="#5" y="4.342"/><use href="#6" y="6.513"/><use href="#8" y="8.684"/><use href="#9" y="15.197"/><use href="#11" y="17.368"/><use href="#12" y="19.539"/><use href="#13" y="21.71"/><use href="#14" y="23.881"/><use href="#15" y="26.052"/><use href="#16" y="28.223"/><use href="#18" y="32.565"/><use href="#20" y="34.736"/><use href="#10" y="41.249"/></svg><svg x="8184"><use href="#a"/><use href="#3"/><use href="#4" y="2.171"/><use href="#5" y="4.342"/><use href="#6" y="6.513"/><use href="#8" y="8.684"/><use href="#9" y="15.197"/><use href="#11" y="17.368"/><use href="#12" y="19.539"/><use href="#13" y="21.71"/><use href="#14" y="23.881"/><use href="#15" y="26.052"/><use href="#16" y="28.223"/><use href="#18" y="32.565"/><use href="#20" y="34.736"/><use href="#10" y="41.249"/></svg></svg></g><svg height="100%" width="100%" viewBox="0 0 100 100" class="container_end"><text text-anchor="middle" alignment-baseline="central"><tspan y="50" x="50" style="font-size: 50px;">❚❚</tspan></text></svg></g></svg></svg>
