<svg xmlns="http://www.w3.org/2000/svg" width="1400" height="642.75"><rect width="1400" height="642.75" rx="5" ry="5" class="a"/><svg y="0%" x="0%"><circle cx="20" cy="20" r="6" fill="#ff5f58"/><circle cx="40" cy="20" r="6" fill="#ffbd2e"/><circle cx="60" cy="20" r="6" fill="#18c132"/></svg><svg height="542.75" viewBox="0 0 132 54.275" width="1320" x="35" xmlns="http://www.w3.org/2000/svg" y="70"><style>.inserted-lf{fill:#999999;fill-opacity:.75;font-variant-position:sub;font-size:75%}.container{font-family:'JetBrains Mono','Monaco','Consolas','Menlo','Bitstream Vera Sans Mono','Lucida Console','Ubuntu Mono','Meslo for Powerline','Meslo LG M for Powerline','Powerline Symbols','Monospace','monospace'}.container>g{animation-play-state:running}.container_end{fill:whitesmoke;mix-blend-mode:soft-light;opacity:0;transition:opacity .2s ease-in-out}.container:hover>g{animation-play-state:paused}.container{pointer-events:all}.container:hover{cursor:wait}.container:hover>.container_end{opacity:1}.container>g>svg>svg>*{transform: scaleY(.95);}@keyframes o{0%{transform:translateX(0)}.17%{transform:translateX(-132px)}.41%{transform:translateX(-264px)}4.81%{transform:translateX(-396px)}5.01%{transform:translateX(-528px)}5.2%{transform:translateX(-660px)}7.49%{transform:translateX(-792px)}9.59%{transform:translateX(-924px)}9.64%{transform:translateX(-1056px)}9.66%{transform:translateX(-1188px)}11.2%{transform:translateX(-1320px)}11.27%{transform:translateX(-1452px)}11.29%{transform:translateX(-1584px)}11.33%{transform:translateX(-1716px)}12.3%{transform:translateX(-1848px)}12.34%{transform:translateX(-1980px)}16.7%{transform:translateX(-2112px)}16.89%{transform:translateX(-2244px)}19.18%{transform:translateX(-2376px)}21.28%{transform:translateX(-2508px)}21.31%{transform:translateX(-2640px)}21.32%{transform:translateX(-2772px)}21.36%{transform:translateX(-2904px)}21.4%{transform:translateX(-3168px)}21.41%{transform:translateX(-3300px)}21.43%{transform:translateX(-3432px)}23.54%{transform:translateX(-3564px)}25.63%{transform:translateX(-3696px)}25.65%{transform:translateX(-3828px)}27.73%{transform:translateX(-3960px)}29.83%{transform:translateX(-4092px)}29.85%{transform:translateX(-4224px)}31.95%{transform:translateX(-4356px)}34.05%{transform:translateX(-4488px)}34.06%{transform:translateX(-4620px)}36.22%{transform:translateX(-4752px)}38.37%{transform:translateX(-4884px)}38.39%{transform:translateX(-5016px)}40.49%{transform:translateX(-5148px)}42.59%{transform:translateX(-5280px)}42.79%{transform:translateX(-5412px)}49.31%{transform:translateX(-5544px)}49.34%{transform:translateX(-5676px)}49.39%{transform:translateX(-5808px)}49.43%{transform:translateX(-6072px)}49.51%{transform:translateX(-6204px)}49.54%{transform:translateX(-6336px)}53.88%{transform:translateX(-6468px)}54.08%{transform:translateX(-6600px)}54.26%{transform:translateX(-6732px)}54.44%{transform:translateX(-6864px)}56.73%{transform:translateX(-6996px)}58.83%{transform:translateX(-7128px)}58.86%{transform:translateX(-7260px)}58.87%{transform:translateX(-7392px)}60.04%{transform:translateX(-7524px)}60.07%{transform:translateX(-7656px)}60.11%{transform:translateX(-7788px)}60.92%{transform:translateX(-7920px)}60.95%{transform:translateX(-8052px)}65.28%{transform:translateX(-8184px)}67.57%{transform:translateX(-8316px)}69.67%{transform:translateX(-8448px)}69.7%{transform:translateX(-8580px)}69.71%{transform:translateX(-8712px)}69.75%{transform:translateX(-8844px)}69.79%{transform:translateX(-9108px)}69.8%{transform:translateX(-9240px)}69.82%{transform:translateX(-9372px)}71.92%{transform:translateX(-9504px)}74.01%{transform:translateX(-9636px)}74.2%{transform:translateX(-9768px)}78.83%{transform:translateX(-9900px)}78.85%{transform:translateX(-10032px)}78.88%{transform:translateX(-10164px)}78.91%{transform:translateX(-10296px)}78.97%{transform:translateX(-10428px)}78.98%{transform:translateX(-10560px)}78.99%{transform:translateX(-10692px)}79%{transform:translateX(-10824px)}81.09%{transform:translateX(-10956px)}83.18%{transform:translateX(-11088px)}83.2%{transform:translateX(-11220px)}85.3%{transform:translateX(-11352px)}87.39%{transform:translateX(-11484px)}87.41%{transform:translateX(-11616px)}89.51%{transform:translateX(-11748px)}91.6%{transform:translateX(-11880px)}91.61%{transform:translateX(-12012px)}93.71%{transform:translateX(-12144px)}95.8%{transform:translateX(-12276px)}95.81%{transform:translateX(-12408px)}97.9%{transform:translateX(-12540px)}to{transform:translateX(-12672px)}}.a{fill:#2d2d2d}.f,.g,.h{fill:#dcdcdc;white-space:pre}.g,.h{fill:#6e6e6e}.h{fill:#b0b0b0}.i{fill:#69b745}.i,.j,.l{white-space:pre}.j{fill:#c6c6c6;font-weight:700}.l{fill:#ffd726}</style><g class="container" font-size="1.67"><defs><symbol id="1"><text y="1.67" class="f">❱</text></symbol><symbol id="2"><text y="1.67" class="f">❱</text><text x="2.004" y="1.67" class="f">./recordr</text><text x="12.024" y="1.67" class="f">rec/hello-world.rec</text></symbol><symbol id="3"><text y="1.67" class="g">❱</text><text x="2.004" y="1.67" class="g">./recordr</text><text x="12.024" y="1.67" class="g">rec/hello-world.rec</text></symbol><symbol id="4"><text x="1.002" y="1.67" class="f">ℹ</text><text x="3.006" y="1.67" class="h">terminal</text><text x="12.024" y="1.67" class="h">profile</text><text x="20.04" y="1.67" class="h">search</text><text x="27.054" y="1.67" class="h">directory:</text><text x="38.076" y="1.67" class="h">rec</text></symbol><symbol id="5"><text x="1.002" y="1.67" class="i">✔</text><text x="3.006" y="1.67" class="h">find_term_profile:</text><text x="22.044" y="1.67" class="j">terminal</text><text x="31.062" y="1.67" class="j">profile:</text><text x="40.08" y="1.67" class="j">rec/.itermcolors</text></symbol><symbol id="6"><text x="1.002" y="1.67" style="white-space:pre" fill="#c21e73">●</text><text x="3.006" y="1.67" class="h">RECORDING:</text><text x="14.028" y="1.67" class="j">rec/hello-world.rec</text></symbol><symbol id="7"><text y="1.67" class="f">❱</text><text x="2.004" y="1.67" class="f">echo</text><text x="7.014" y="1.67" class="f">Hello\</text><text x="14.028" y="1.67" class="f">World\!</text></symbol><symbol id="8"><text y="1.67" class="g">❱</text><text x="2.004" y="1.67" class="g">echo</text><text x="7.014" y="1.67" class="g">Hello\</text><text x="14.028" y="1.67" class="g">World\!</text></symbol><symbol id="9"><text y="1.67" class="h">Hello</text><text x="6.012" y="1.67" class="h">World!</text></symbol><symbol id="10"><text y="1.67" class="h">5</text></symbol><symbol id="11"><text y="1.67" class="h">4</text></symbol><symbol id="12"><text y="1.67" class="h">3</text></symbol><symbol id="13"><text y="1.67" class="h">2</text></symbol><symbol id="14"><text y="1.67" class="h">1</text></symbol><symbol id="15"><text x="1.002" y="1.67" class="l">◔</text><text x="3.006" y="1.67" class="h">CONVERTING:</text><text x="15.03" y="1.67" class="j">build/rec/hello-world.cast</text></symbol><symbol id="16"><text x="1.002" y="1.67" class="l">◑</text><text x="3.006" y="1.67" class="h">PATCHING:</text><text x="13.026" y="1.67" class="j">build/rec/hello-world.svg.0</text></symbol><symbol id="17"><text x="1.002" y="1.67" class="l">◕</text><text x="3.006" y="1.67" class="h">LINKING:</text><text x="12.024" y="1.67" class="j">build/rec/hello-world.svg.1</text></symbol><symbol id="18"><text x="1.002" y="1.67" class="l">●</text><text x="3.006" y="1.67" class="h">ANNOTATING:</text><text x="15.03" y="1.67" class="j">build/rec/hello-world.svg.2</text></symbol><symbol id="19"><text x="1.002" y="1.67" class="i">●</text><text x="3.006" y="1.67" class="h">COMPLETED:</text><text x="14.028" y="1.67" class="j">build/rec/hello-world.svg</text></symbol><symbol id="20"><text y="1.67" class="f">❱</text><text x="2.004" y="1.67" class="f">TESTING=1</text><text x="12.024" y="1.67" class="f">./recordr</text><text x="22.044" y="1.67" class="f">rec/hello-world.rec</text></symbol><symbol id="21"><text y="1.67" class="g">❱</text><text x="2.004" y="1.67" class="g">TESTING=1</text><text x="12.024" y="1.67" class="g">./recordr</text><text x="22.044" y="1.67" class="g">rec/hello-world.rec</text></symbol><symbol id="a"><path fill="transparent" d="M0 0h132v26H0z"/></symbol><symbol id="b"><path fill="silver" d="M0 0h1.102v2.171H0z"/></symbol></defs><path class="a" d="M0 0h132v54.275H0z"/><g style="animation-duration:24.262317s;animation-iteration-count:infinite;animation-name:o;animation-timing-function:steps(1,end)"><svg width="12804"><svg><use href="#a"/><use href="#b" x="-.004"/></svg><svg x="132"><use href="#a"/><use href="#b" x="-.004"/></svg><svg x="264"><use href="#a"/><use href="#b" x="1.996"/><use href="#1"/></svg><svg x="396"><use href="#a"/><use href="#b" x="15.996"/><text y="1.67" class="f">❱</text><text x="2.004" y="1.67" class="f">./recordr</text><text x="12.024" y="1.67" class="f">rec/</text></svg><svg x="528"><use href="#a"/><use href="#b" x="27.996"/><text y="1.67" class="f">❱</text><text x="2.004" y="1.67" class="f">./recordr</text><text x="12.024" y="1.67" class="f">rec/hello-world.</text></svg><svg x="660"><use href="#a"/><use href="#b" x="30.996"/><use href="#2"/></svg><svg x="792"><use href="#a"/><use href="#2"/></svg><svg x="924"><use href="#a"/><use href="#b" x="30.996"/><use href="#2"/></svg><svg x="1056"><use href="#a"/><use href="#b" x="-.004" y="2.146"/><use href="#3"/></svg><svg x="1188"><use href="#a"/><use href="#3"/></svg><svg x="1320"><use href="#a"/><use href="#3"/></svg><svg x="1452"><use href="#a"/><use href="#3"/><use href="#4" y="2.171"/></svg><svg x="1584"><use href="#a"/><use href="#3"/><use href="#4" y="2.171"/><use href="#5" y="4.342"/></svg><svg x="1716"><use href="#a"/><use href="#3"/><use href="#4" y="2.171"/><use href="#5" y="4.342"/><use href="#6" y="6.513"/></svg><svg x="1848"><use href="#a"/><use href="#3"/><use href="#4" y="2.171"/><use href="#5" y="4.342"/><use href="#6" y="6.513"/></svg><svg x="1980"><use href="#a"/><use href="#b" x="1.996" y="8.659"/><use href="#3"/><use href="#4" y="2.171"/><use href="#5" y="4.342"/><use href="#6" y="6.513"/><use href="#1" y="8.684"/></svg><svg x="2112"><use href="#a"/><use href="#b" x="13.996" y="8.659"/><use href="#3"/><use href="#4" y="2.171"/><use href="#5" y="4.342"/><use href="#6" y="6.513"/><text y="10.354" class="f">❱</text><text x="2.004" y="10.354" class="f">echo</text><text x="7.014" y="10.354" class="f">Hello\</text></svg><svg x="2244"><use href="#a"/><use href="#b" x="20.996" y="8.659"/><use href="#3"/><use href="#4" y="2.171"/><use href="#5" y="4.342"/><use href="#6" y="6.513"/><use href="#7" y="8.684"/></svg><svg x="2376"><use href="#a"/><use href="#3"/><use href="#4" y="2.171"/><use href="#5" y="4.342"/><use href="#6" y="6.513"/><use href="#7" y="8.684"/></svg><svg x="2508"><use href="#a"/><use href="#b" x="20.996" y="8.659"/><use href="#3"/><use href="#4" y="2.171"/><use href="#5" y="4.342"/><use href="#6" y="6.513"/><use href="#7" y="8.684"/></svg><svg x="2640"><use href="#a"/><use href="#b" x="-.004" y="10.83"/><use href="#3"/><use href="#4" y="2.171"/><use href="#5" y="4.342"/><use href="#6" y="6.513"/><use href="#8" y="8.684"/></svg><svg x="2772"><use href="#a"/><use href="#3"/><use href="#4" y="2.171"/><use href="#5" y="4.342"/><use href="#6" y="6.513"/><use href="#8" y="8.684"/></svg><svg x="2904"><use href="#a"/><use href="#3"/><use href="#4" y="2.171"/><use href="#5" y="4.342"/><use href="#6" y="6.513"/><use href="#8" y="8.684"/><use href="#9" y="10.855"/></svg><svg x="3036"><use href="#a"/><use href="#3"/><use href="#4" y="2.171"/><use href="#5" y="4.342"/><use href="#6" y="6.513"/><use href="#8" y="8.684"/><use href="#9" y="10.855"/></svg><svg x="3168"><use href="#a"/><use href="#3"/><use href="#4" y="2.171"/><use href="#5" y="4.342"/><use href="#6" y="6.513"/><use href="#8" y="8.684"/><use href="#9" y="10.855"/></svg><svg x="3300"><use href="#a"/><use href="#3"/><use href="#4" y="2.171"/><use href="#5" y="4.342"/><use href="#6" y="6.513"/><use href="#8" y="8.684"/><use href="#9" y="10.855"/></svg><svg x="3432"><use href="#a"/><use href="#3"/><use href="#4" y="2.171"/><use href="#5" y="4.342"/><use href="#6" y="6.513"/><use href="#8" y="8.684"/><use href="#9" y="10.855"/><use href="#10" y="17.368"/></svg><svg x="3564"><use href="#a"/><use href="#b" x="-.004" y="17.343"/><use href="#3"/><use href="#4" y="2.171"/><use href="#5" y="4.342"/><use href="#6" y="6.513"/><use href="#8" y="8.684"/><use href="#9" y="10.855"/><use href="#10" y="17.368"/></svg><svg x="3696"><use href="#a"/><use href="#3"/><use href="#4" y="2.171"/><use href="#5" y="4.342"/><use href="#6" y="6.513"/><use href="#8" y="8.684"/><use href="#9" y="10.855"/><use href="#10" y="17.368"/></svg><svg x="3828"><use href="#a"/><use href="#3"/><use href="#4" y="2.171"/><use href="#5" y="4.342"/><use href="#6" y="6.513"/><use href="#8" y="8.684"/><use href="#9" y="10.855"/><use href="#11" y="17.368"/></svg><svg x="3960"><use href="#a"/><use href="#b" x="-.004" y="17.343"/><use href="#3"/><use href="#4" y="2.171"/><use href="#5" y="4.342"/><use href="#6" y="6.513"/><use href="#8" y="8.684"/><use href="#9" y="10.855"/><use href="#11" y="17.368"/></svg><svg x="4092"><use href="#a"/><use href="#3"/><use href="#4" y="2.171"/><use href="#5" y="4.342"/><use href="#6" y="6.513"/><use href="#8" y="8.684"/><use href="#9" y="10.855"/><use href="#11" y="17.368"/></svg><svg x="4224"><use href="#a"/><use href="#3"/><use href="#4" y="2.171"/><use href="#5" y="4.342"/><use href="#6" y="6.513"/><use href="#8" y="8.684"/><use href="#9" y="10.855"/><use href="#12" y="17.368"/></svg><svg x="4356"><use href="#a"/><use href="#b" x="-.004" y="17.343"/><use href="#3"/><use href="#4" y="2.171"/><use href="#5" y="4.342"/><use href="#6" y="6.513"/><use href="#8" y="8.684"/><use href="#9" y="10.855"/><use href="#12" y="17.368"/></svg><svg x="4488"><use href="#a"/><use href="#3"/><use href="#4" y="2.171"/><use href="#5" y="4.342"/><use href="#6" y="6.513"/><use href="#8" y="8.684"/><use href="#9" y="10.855"/><use href="#12" y="17.368"/></svg><svg x="4620"><use href="#a"/><use href="#3"/><use href="#4" y="2.171"/><use href="#5" y="4.342"/><use href="#6" y="6.513"/><use href="#8" y="8.684"/><use href="#9" y="10.855"/><use href="#13" y="17.368"/></svg><svg x="4752"><use href="#a"/><use href="#b" x="-.004" y="17.343"/><use href="#3"/><use href="#4" y="2.171"/><use href="#5" y="4.342"/><use href="#6" y="6.513"/><use href="#8" y="8.684"/><use href="#9" y="10.855"/><use href="#13" y="17.368"/></svg><svg x="4884"><use href="#a"/><use href="#3"/><use href="#4" y="2.171"/><use href="#5" y="4.342"/><use href="#6" y="6.513"/><use href="#8" y="8.684"/><use href="#9" y="10.855"/><use href="#13" y="17.368"/></svg><svg x="5016"><use href="#a"/><use href="#3"/><use href="#4" y="2.171"/><use href="#5" y="4.342"/><use href="#6" y="6.513"/><use href="#8" y="8.684"/><use href="#9" y="10.855"/><use href="#14" y="17.368"/></svg><svg x="5148"><use href="#a"/><use href="#b" x="-.004" y="17.343"/><use href="#3"/><use href="#4" y="2.171"/><use href="#5" y="4.342"/><use href="#6" y="6.513"/><use href="#8" y="8.684"/><use href="#9" y="10.855"/><use href="#14" y="17.368"/></svg><svg x="5280"><use href="#a"/><use href="#3"/><use href="#4" y="2.171"/><use href="#5" y="4.342"/><use href="#6" y="6.513"/><use href="#8" y="8.684"/><use href="#9" y="10.855"/><use href="#14" y="17.368"/></svg><svg x="5412"><use href="#a"/><use href="#3"/><use href="#4" y="2.171"/><use href="#5" y="4.342"/><use href="#6" y="6.513"/><use href="#8" y="8.684"/><use href="#9" y="10.855"/><use href="#15" y="17.368"/></svg><svg x="5544"><use href="#a"/><use href="#3"/><use href="#4" y="2.171"/><use href="#5" y="4.342"/><use href="#6" y="6.513"/><use href="#8" y="8.684"/><use href="#9" y="10.855"/><use href="#15" y="17.368"/><use href="#16" y="19.539"/></svg><svg x="5676"><use href="#a"/><use href="#3"/><use href="#4" y="2.171"/><use href="#5" y="4.342"/><use href="#6" y="6.513"/><use href="#8" y="8.684"/><use href="#9" y="10.855"/><use href="#15" y="17.368"/><use href="#16" y="19.539"/><use href="#17" y="21.71"/></svg><svg x="5808"><use href="#a"/><use href="#3"/><use href="#4" y="2.171"/><use href="#5" y="4.342"/><use href="#6" y="6.513"/><use href="#8" y="8.684"/><use href="#9" y="10.855"/><use href="#15" y="17.368"/><use href="#16" y="19.539"/><use href="#17" y="21.71"/><use href="#18" y="23.881"/></svg><svg x="5940"><use href="#a"/><use href="#3"/><use href="#4" y="2.171"/><use href="#5" y="4.342"/><use href="#6" y="6.513"/><use href="#8" y="8.684"/><use href="#9" y="10.855"/><use href="#15" y="17.368"/><use href="#16" y="19.539"/><use href="#17" y="21.71"/><use href="#18" y="23.881"/><use href="#19" y="26.052"/></svg><svg x="6072"><use href="#a"/><use href="#b" x="-.004" y="28.198"/><use href="#3"/><use href="#4" y="2.171"/><use href="#5" y="4.342"/><use href="#6" y="6.513"/><use href="#8" y="8.684"/><use href="#9" y="10.855"/><use href="#15" y="17.368"/><use href="#16" y="19.539"/><use href="#17" y="21.71"/><use href="#18" y="23.881"/><use href="#19" y="26.052"/></svg><svg x="6204"><use href="#a"/><use href="#b" x="-.004" y="30.369"/><use href="#3"/><use href="#4" y="2.171"/><use href="#5" y="4.342"/><use href="#6" y="6.513"/><use href="#8" y="8.684"/><use href="#9" y="10.855"/><use href="#15" y="17.368"/><use href="#16" y="19.539"/><use href="#17" y="21.71"/><use href="#18" y="23.881"/><use href="#19" y="26.052"/></svg><svg x="6336"><use href="#a"/><use href="#b" x="1.996" y="30.369"/><use href="#3"/><use href="#4" y="2.171"/><use href="#5" y="4.342"/><use href="#6" y="6.513"/><use href="#8" y="8.684"/><use href="#9" y="10.855"/><use href="#15" y="17.368"/><use href="#16" y="19.539"/><use href="#17" y="21.71"/><use href="#18" y="23.881"/><use href="#19" y="26.052"/><use href="#1" y="30.394"/></svg><svg x="6468"><use href="#a"/><use href="#b" x="13.996" y="30.369"/><use href="#3"/><use href="#4" y="2.171"/><use href="#5" y="4.342"/><use href="#6" y="6.513"/><use href="#8" y="8.684"/><use href="#9" y="10.855"/><use href="#15" y="17.368"/><use href="#16" y="19.539"/><use href="#17" y="21.71"/><use href="#18" y="23.881"/><use href="#19" y="26.052"/><text y="32.064" class="f">❱</text><text x="2.004" y="32.064" class="f">TESTING=1</text><text x="12.024" y="32.064" class="f">./</text></svg><svg x="6600"><use href="#a"/><use href="#b" x="23.996" y="30.369"/><use href="#3"/><use href="#4" y="2.171"/><use href="#5" y="4.342"/><use href="#6" y="6.513"/><use href="#8" y="8.684"/><use href="#9" y="10.855"/><use href="#15" y="17.368"/><use href="#16" y="19.539"/><use href="#17" y="21.71"/><use href="#18" y="23.881"/><use href="#19" y="26.052"/><text y="32.064" class="f">❱</text><text x="2.004" y="32.064" class="f">TESTING=1</text><text x="12.024" y="32.064" class="f">./recordr</text><text x="22.044" y="32.064" class="f">re</text></svg><svg x="6732"><use href="#a"/><use href="#b" x="33.996" y="30.369"/><use href="#3"/><use href="#4" y="2.171"/><use href="#5" y="4.342"/><use href="#6" y="6.513"/><use href="#8" y="8.684"/><use href="#9" y="10.855"/><use href="#15" y="17.368"/><use href="#16" y="19.539"/><use href="#17" y="21.71"/><use href="#18" y="23.881"/><use href="#19" y="26.052"/><text y="32.064" class="f">❱</text><text x="2.004" y="32.064" class="f">TESTING=1</text><text x="12.024" y="32.064" class="f">./recordr</text><text x="22.044" y="32.064" class="f">rec/hello-wo</text></svg><svg x="6864"><use href="#a"/><use href="#b" x="40.996" y="30.369"/><use href="#3"/><use href="#4" y="2.171"/><use href="#5" y="4.342"/><use href="#6" y="6.513"/><use href="#8" y="8.684"/><use href="#9" y="10.855"/><use href="#15" y="17.368"/><use href="#16" y="19.539"/><use href="#17" y="21.71"/><use href="#18" y="23.881"/><use href="#19" y="26.052"/><use href="#20" y="30.394"/></svg><svg x="6996"><use href="#a"/><use href="#3"/><use href="#4" y="2.171"/><use href="#5" y="4.342"/><use href="#6" y="6.513"/><use href="#8" y="8.684"/><use href="#9" y="10.855"/><use href="#15" y="17.368"/><use href="#16" y="19.539"/><use href="#17" y="21.71"/><use href="#18" y="23.881"/><use href="#19" y="26.052"/><use href="#20" y="30.394"/></svg><svg x="7128"><use href="#a"/><use href="#b" x="40.996" y="30.369"/><use href="#3"/><use href="#4" y="2.171"/><use href="#5" y="4.342"/><use href="#6" y="6.513"/><use href="#8" y="8.684"/><use href="#9" y="10.855"/><use href="#15" y="17.368"/><use href="#16" y="19.539"/><use href="#17" y="21.71"/><use href="#18" y="23.881"/><use href="#19" y="26.052"/><use href="#20" y="30.394"/></svg><svg x="7260"><use href="#a"/><use href="#b" x="-.004" y="32.54"/><use href="#3"/><use href="#4" y="2.171"/><use href="#5" y="4.342"/><use href="#6" y="6.513"/><use href="#8" y="8.684"/><use href="#9" y="10.855"/><use href="#15" y="17.368"/><use href="#16" y="19.539"/><use href="#17" y="21.71"/><use href="#18" y="23.881"/><use href="#19" y="26.052"/><use href="#21" y="30.394"/></svg><svg x="7392"><use href="#a"/><use href="#3"/><use href="#4" y="2.171"/><use href="#5" y="4.342"/><use href="#6" y="6.513"/><use href="#8" y="8.684"/><use href="#9" y="10.855"/><use href="#15" y="17.368"/><use href="#16" y="19.539"/><use href="#17" y="21.71"/><use href="#18" y="23.881"/><use href="#19" y="26.052"/><use href="#21" y="30.394"/></svg><svg x="7524"><use href="#a"/><use href="#3"/><use href="#4" y="2.171"/><use href="#5" y="4.342"/><use href="#6" y="6.513"/><use href="#8" y="8.684"/><use href="#9" y="10.855"/><use href="#15" y="17.368"/><use href="#16" y="19.539"/><use href="#17" y="21.71"/><use href="#18" y="23.881"/><use href="#19" y="26.052"/><use href="#21" y="30.394"/><use href="#4" y="32.565"/></svg><svg x="7656"><use href="#a"/><use href="#3"/><use href="#4" y="2.171"/><use href="#5" y="4.342"/><use href="#6" y="6.513"/><use href="#8" y="8.684"/><use href="#9" y="10.855"/><use href="#15" y="17.368"/><use href="#16" y="19.539"/><use href="#17" y="21.71"/><use href="#18" y="23.881"/><use href="#19" y="26.052"/><use href="#21" y="30.394"/><use href="#4" y="32.565"/><use href="#5" y="34.736"/></svg><svg x="7788"><use href="#a"/><use href="#3"/><use href="#4" y="2.171"/><use href="#5" y="4.342"/><use href="#6" y="6.513"/><use href="#8" y="8.684"/><use href="#9" y="10.855"/><use href="#15" y="17.368"/><use href="#16" y="19.539"/><use href="#17" y="21.71"/><use href="#18" y="23.881"/><use href="#19" y="26.052"/><use href="#21" y="30.394"/><use href="#4" y="32.565"/><use href="#5" y="34.736"/><use href="#6" y="36.907"/></svg><svg x="7920"><use href="#a"/><use href="#3"/><use href="#4" y="2.171"/><use href="#5" y="4.342"/><use href="#6" y="6.513"/><use href="#8" y="8.684"/><use href="#9" y="10.855"/><use href="#15" y="17.368"/><use href="#16" y="19.539"/><use href="#17" y="21.71"/><use href="#18" y="23.881"/><use href="#19" y="26.052"/><use href="#21" y="30.394"/><use href="#4" y="32.565"/><use href="#5" y="34.736"/><use href="#6" y="36.907"/></svg><svg x="8052"><use href="#a"/><use href="#b" x="1.996" y="39.053"/><use href="#3"/><use href="#4" y="2.171"/><use href="#5" y="4.342"/><use href="#6" y="6.513"/><use href="#8" y="8.684"/><use href="#9" y="10.855"/><use href="#15" y="17.368"/><use href="#16" y="19.539"/><use href="#17" y="21.71"/><use href="#18" y="23.881"/><use href="#19" y="26.052"/><use href="#21" y="30.394"/><use href="#4" y="32.565"/><use href="#5" y="34.736"/><use href="#6" y="36.907"/><use href="#1" y="39.078"/></svg><svg x="8184"><use href="#a"/><use href="#b" x="20.996" y="39.053"/><use href="#3"/><use href="#4" y="2.171"/><use href="#5" y="4.342"/><use href="#6" y="6.513"/><use href="#8" y="8.684"/><use href="#9" y="10.855"/><use href="#15" y="17.368"/><use href="#16" y="19.539"/><use href="#17" y="21.71"/><use href="#18" y="23.881"/><use href="#19" y="26.052"/><use href="#21" y="30.394"/><use href="#4" y="32.565"/><use href="#5" y="34.736"/><use href="#6" y="36.907"/><use href="#7" y="39.078"/></svg><svg x="8316"><use href="#a"/><use href="#3"/><use href="#4" y="2.171"/><use href="#5" y="4.342"/><use href="#6" y="6.513"/><use href="#8" y="8.684"/><use href="#9" y="10.855"/><use href="#15" y="17.368"/><use href="#16" y="19.539"/><use href="#17" y="21.71"/><use href="#18" y="23.881"/><use href="#19" y="26.052"/><use href="#21" y="30.394"/><use href="#4" y="32.565"/><use href="#5" y="34.736"/><use href="#6" y="36.907"/><use href="#7" y="39.078"/></svg><svg x="8448"><use href="#a"/><use href="#b" x="20.996" y="39.053"/><use href="#3"/><use href="#4" y="2.171"/><use href="#5" y="4.342"/><use href="#6" y="6.513"/><use href="#8" y="8.684"/><use href="#9" y="10.855"/><use href="#15" y="17.368"/><use href="#16" y="19.539"/><use href="#17" y="21.71"/><use href="#18" y="23.881"/><use href="#19" y="26.052"/><use href="#21" y="30.394"/><use href="#4" y="32.565"/><use href="#5" y="34.736"/><use href="#6" y="36.907"/><use href="#7" y="39.078"/></svg><svg x="8580"><use href="#a"/><use href="#b" x="-.004" y="41.224"/><use href="#3"/><use href="#4" y="2.171"/><use href="#5" y="4.342"/><use href="#6" y="6.513"/><use href="#8" y="8.684"/><use href="#9" y="10.855"/><use href="#15" y="17.368"/><use href="#16" y="19.539"/><use href="#17" y="21.71"/><use href="#18" y="23.881"/><use href="#19" y="26.052"/><use href="#21" y="30.394"/><use href="#4" y="32.565"/><use href="#5" y="34.736"/><use href="#6" y="36.907"/><use href="#8" y="39.078"/></svg><svg x="8712"><use href="#a"/><use href="#3"/><use href="#4" y="2.171"/><use href="#5" y="4.342"/><use href="#6" y="6.513"/><use href="#8" y="8.684"/><use href="#9" y="10.855"/><use href="#15" y="17.368"/><use href="#16" y="19.539"/><use href="#17" y="21.71"/><use href="#18" y="23.881"/><use href="#19" y="26.052"/><use href="#21" y="30.394"/><use href="#4" y="32.565"/><use href="#5" y="34.736"/><use href="#6" y="36.907"/><use href="#8" y="39.078"/></svg><svg x="8844"><use href="#a"/><use href="#3"/><use href="#4" y="2.171"/><use href="#5" y="4.342"/><use href="#6" y="6.513"/><use href="#8" y="8.684"/><use href="#9" y="10.855"/><use href="#15" y="17.368"/><use href="#16" y="19.539"/><use href="#17" y="21.71"/><use href="#18" y="23.881"/><use href="#19" y="26.052"/><use href="#21" y="30.394"/><use href="#4" y="32.565"/><use href="#5" y="34.736"/><use href="#6" y="36.907"/><use href="#8" y="39.078"/><use href="#9" y="41.249"/></svg><svg x="8976"><use href="#a"/><use href="#3"/><use href="#4" y="2.171"/><use href="#5" y="4.342"/><use href="#6" y="6.513"/><use href="#8" y="8.684"/><use href="#9" y="10.855"/><use href="#15" y="17.368"/><use href="#16" y="19.539"/><use href="#17" y="21.71"/><use href="#18" y="23.881"/><use href="#19" y="26.052"/><use href="#21" y="30.394"/><use href="#4" y="32.565"/><use href="#5" y="34.736"/><use href="#6" y="36.907"/><use href="#8" y="39.078"/><use href="#9" y="41.249"/></svg><svg x="9108"><use href="#a"/><use href="#3"/><use href="#4" y="2.171"/><use href="#5" y="4.342"/><use href="#6" y="6.513"/><use href="#8" y="8.684"/><use href="#9" y="10.855"/><use href="#15" y="17.368"/><use href="#16" y="19.539"/><use href="#17" y="21.71"/><use href="#18" y="23.881"/><use href="#19" y="26.052"/><use href="#21" y="30.394"/><use href="#4" y="32.565"/><use href="#5" y="34.736"/><use href="#6" y="36.907"/><use href="#8" y="39.078"/><use href="#9" y="41.249"/></svg><svg x="9240"><use href="#a"/><use href="#3"/><use href="#4" y="2.171"/><use href="#5" y="4.342"/><use href="#6" y="6.513"/><use href="#8" y="8.684"/><use href="#9" y="10.855"/><use href="#15" y="17.368"/><use href="#16" y="19.539"/><use href="#17" y="21.71"/><use href="#18" y="23.881"/><use href="#19" y="26.052"/><use href="#21" y="30.394"/><use href="#4" y="32.565"/><use href="#5" y="34.736"/><use href="#6" y="36.907"/><use href="#8" y="39.078"/><use href="#9" y="41.249"/></svg><svg x="9372"><use href="#a"/><use href="#3"/><use href="#4" y="2.171"/><use href="#5" y="4.342"/><use href="#6" y="6.513"/><use href="#8" y="8.684"/><use href="#9" y="10.855"/><use href="#15" y="17.368"/><use href="#16" y="19.539"/><use href="#17" y="21.71"/><use href="#18" y="23.881"/><use href="#19" y="26.052"/><use href="#21" y="30.394"/><use href="#4" y="32.565"/><use href="#5" y="34.736"/><use href="#6" y="36.907"/><use href="#8" y="39.078"/><use href="#9" y="41.249"/><use href="#14" y="47.762"/></svg><svg x="9504"><use href="#a"/><use href="#b" x="-.004" y="47.737"/><use href="#3"/><use href="#4" y="2.171"/><use href="#5" y="4.342"/><use href="#6" y="6.513"/><use href="#8" y="8.684"/><use href="#9" y="10.855"/><use href="#15" y="17.368"/><use href="#16" y="19.539"/><use href="#17" y="21.71"/><use href="#18" y="23.881"/><use href="#19" y="26.052"/><use href="#21" y="30.394"/><use href="#4" y="32.565"/><use href="#5" y="34.736"/><use href="#6" y="36.907"/><use href="#8" y="39.078"/><use href="#9" y="41.249"/><use href="#14" y="47.762"/></svg><svg x="9636"><use href="#a"/><use href="#3"/><use href="#4" y="2.171"/><use href="#5" y="4.342"/><use href="#6" y="6.513"/><use href="#8" y="8.684"/><use href="#9" y="10.855"/><use href="#15" y="17.368"/><use href="#16" y="19.539"/><use href="#17" y="21.71"/><use href="#18" y="23.881"/><use href="#19" y="26.052"/><use href="#21" y="30.394"/><use href="#4" y="32.565"/><use href="#5" y="34.736"/><use href="#6" y="36.907"/><use href="#8" y="39.078"/><use href="#9" y="41.249"/><use href="#14" y="47.762"/></svg><svg x="9768"><use href="#a"/><use href="#3"/><use href="#4" y="2.171"/><use href="#5" y="4.342"/><use href="#6" y="6.513"/><use href="#8" y="8.684"/><use href="#9" y="10.855"/><use href="#15" y="17.368"/><use href="#16" y="19.539"/><use href="#17" y="21.71"/><use href="#18" y="23.881"/><use href="#19" y="26.052"/><use href="#21" y="30.394"/><use href="#4" y="32.565"/><use href="#5" y="34.736"/><use href="#6" y="36.907"/><use href="#8" y="39.078"/><use href="#9" y="41.249"/><use href="#15" y="47.762"/></svg><svg x="9900"><use href="#a"/><use href="#3"/><use href="#4" y="2.171"/><use href="#5" y="4.342"/><use href="#6" y="6.513"/><use href="#8" y="8.684"/><use href="#9" y="10.855"/><use href="#15" y="17.368"/><use href="#16" y="19.539"/><use href="#17" y="21.71"/><use href="#18" y="23.881"/><use href="#19" y="26.052"/><use href="#21" y="30.394"/><use href="#4" y="32.565"/><use href="#5" y="34.736"/><use href="#6" y="36.907"/><use href="#8" y="39.078"/><use href="#9" y="41.249"/><use href="#15" y="47.762"/><use href="#16" y="49.933"/></svg><svg x="10032"><use href="#a"/><use href="#3"/><use href="#4" y="2.171"/><use href="#5" y="4.342"/><use href="#6" y="6.513"/><use href="#8" y="8.684"/><use href="#9" y="10.855"/><use href="#15" y="17.368"/><use href="#16" y="19.539"/><use href="#17" y="21.71"/><use href="#18" y="23.881"/><use href="#19" y="26.052"/><use href="#21" y="30.394"/><use href="#4" y="32.565"/><use href="#5" y="34.736"/><use href="#6" y="36.907"/><use href="#8" y="39.078"/><use href="#9" y="41.249"/><use href="#15" y="47.762"/><use href="#16" y="49.933"/><use href="#17" y="52.104"/></svg><svg x="10164"><use href="#a"/><use href="#4"/><use href="#5" y="2.171"/><use href="#6" y="4.342"/><use href="#8" y="6.513"/><use href="#9" y="8.684"/><use href="#15" y="15.197"/><use href="#16" y="17.368"/><use href="#17" y="19.539"/><use href="#18" y="21.71"/><use href="#19" y="23.881"/><use href="#21" y="28.223"/><use href="#4" y="30.394"/><use href="#5" y="32.565"/><use href="#6" y="34.736"/><use href="#8" y="36.907"/><use href="#9" y="39.078"/><use href="#15" y="45.591"/><use href="#16" y="47.762"/><use href="#17" y="49.933"/><use href="#18" y="52.104"/></svg><svg x="10296"><use href="#a"/><use href="#5"/><use href="#6" y="2.171"/><use href="#8" y="4.342"/><use href="#9" y="6.513"/><use href="#15" y="13.026"/><use href="#16" y="15.197"/><use href="#17" y="17.368"/><use href="#18" y="19.539"/><use href="#19" y="21.71"/><use href="#21" y="26.052"/><use href="#4" y="28.223"/><use href="#5" y="30.394"/><use href="#6" y="32.565"/><use href="#8" y="34.736"/><use href="#9" y="36.907"/><use href="#15" y="43.42"/><use href="#16" y="45.591"/><use href="#17" y="47.762"/><use href="#18" y="49.933"/><use href="#19" y="52.104"/></svg><svg x="10428"><use href="#a"/><use href="#6"/><use href="#8" y="2.171"/><use href="#9" y="4.342"/><use href="#15" y="10.855"/><use href="#16" y="13.026"/><use href="#17" y="15.197"/><use href="#18" y="17.368"/><use href="#19" y="19.539"/><use href="#21" y="23.881"/><use href="#4" y="26.052"/><use href="#5" y="28.223"/><use href="#6" y="30.394"/><use href="#8" y="32.565"/><use href="#9" y="34.736"/><use href="#15" y="41.249"/><use href="#16" y="43.42"/><use href="#17" y="45.591"/><use href="#18" y="47.762"/><use href="#19" y="49.933"/></svg><svg x="10560"><use href="#a"/><use href="#8"/><use href="#9" y="2.171"/><use href="#15" y="8.684"/><use href="#16" y="10.855"/><use href="#17" y="13.026"/><use href="#18" y="15.197"/><use href="#19" y="17.368"/><use href="#21" y="21.71"/><use href="#4" y="23.881"/><use href="#5" y="26.052"/><use href="#6" y="28.223"/><use href="#8" y="30.394"/><use href="#9" y="32.565"/><use href="#15" y="39.078"/><use href="#16" y="41.249"/><use href="#17" y="43.42"/><use href="#18" y="45.591"/><use href="#19" y="47.762"/></svg><svg x="10692"><use href="#a"/><use href="#8"/><use href="#9" y="2.171"/><use href="#15" y="8.684"/><use href="#16" y="10.855"/><use href="#17" y="13.026"/><use href="#18" y="15.197"/><use href="#19" y="17.368"/><use href="#21" y="21.71"/><use href="#4" y="23.881"/><use href="#5" y="26.052"/><use href="#6" y="28.223"/><use href="#8" y="30.394"/><use href="#9" y="32.565"/><use href="#15" y="39.078"/><use href="#16" y="41.249"/><use href="#17" y="43.42"/><use href="#18" y="45.591"/><use href="#19" y="47.762"/></svg><svg x="10824"><use href="#a"/><use href="#8"/><use href="#9" y="2.171"/><use href="#15" y="8.684"/><use href="#16" y="10.855"/><use href="#17" y="13.026"/><use href="#18" y="15.197"/><use href="#19" y="17.368"/><use href="#21" y="21.71"/><use href="#4" y="23.881"/><use href="#5" y="26.052"/><use href="#6" y="28.223"/><use href="#8" y="30.394"/><use href="#9" y="32.565"/><use href="#15" y="39.078"/><use href="#16" y="41.249"/><use href="#17" y="43.42"/><use href="#18" y="45.591"/><use href="#19" y="47.762"/><use href="#10" y="54.275"/></svg><svg x="10956"><use href="#a"/><use href="#b" x="-.004" y="54.25"/><use href="#8"/><use href="#9" y="2.171"/><use href="#15" y="8.684"/><use href="#16" y="10.855"/><use href="#17" y="13.026"/><use href="#18" y="15.197"/><use href="#19" y="17.368"/><use href="#21" y="21.71"/><use href="#4" y="23.881"/><use href="#5" y="26.052"/><use href="#6" y="28.223"/><use href="#8" y="30.394"/><use href="#9" y="32.565"/><use href="#15" y="39.078"/><use href="#16" y="41.249"/><use href="#17" y="43.42"/><use href="#18" y="45.591"/><use href="#19" y="47.762"/><use href="#10" y="54.275"/></svg><svg x="11088"><use href="#a"/><use href="#8"/><use href="#9" y="2.171"/><use href="#15" y="8.684"/><use href="#16" y="10.855"/><use href="#17" y="13.026"/><use href="#18" y="15.197"/><use href="#19" y="17.368"/><use href="#21" y="21.71"/><use href="#4" y="23.881"/><use href="#5" y="26.052"/><use href="#6" y="28.223"/><use href="#8" y="30.394"/><use href="#9" y="32.565"/><use href="#15" y="39.078"/><use href="#16" y="41.249"/><use href="#17" y="43.42"/><use href="#18" y="45.591"/><use href="#19" y="47.762"/><use href="#10" y="54.275"/></svg><svg x="11220"><use href="#a"/><use href="#8"/><use href="#9" y="2.171"/><use href="#15" y="8.684"/><use href="#16" y="10.855"/><use href="#17" y="13.026"/><use href="#18" y="15.197"/><use href="#19" y="17.368"/><use href="#21" y="21.71"/><use href="#4" y="23.881"/><use href="#5" y="26.052"/><use href="#6" y="28.223"/><use href="#8" y="30.394"/><use href="#9" y="32.565"/><use href="#15" y="39.078"/><use href="#16" y="41.249"/><use href="#17" y="43.42"/><use href="#18" y="45.591"/><use href="#19" y="47.762"/><use href="#11" y="54.275"/></svg><svg x="11352"><use href="#a"/><use href="#b" x="-.004" y="54.25"/><use href="#8"/><use href="#9" y="2.171"/><use href="#15" y="8.684"/><use href="#16" y="10.855"/><use href="#17" y="13.026"/><use href="#18" y="15.197"/><use href="#19" y="17.368"/><use href="#21" y="21.71"/><use href="#4" y="23.881"/><use href="#5" y="26.052"/><use href="#6" y="28.223"/><use href="#8" y="30.394"/><use href="#9" y="32.565"/><use href="#15" y="39.078"/><use href="#16" y="41.249"/><use href="#17" y="43.42"/><use href="#18" y="45.591"/><use href="#19" y="47.762"/><use href="#11" y="54.275"/></svg><svg x="11484"><use href="#a"/><use href="#8"/><use href="#9" y="2.171"/><use href="#15" y="8.684"/><use href="#16" y="10.855"/><use href="#17" y="13.026"/><use href="#18" y="15.197"/><use href="#19" y="17.368"/><use href="#21" y="21.71"/><use href="#4" y="23.881"/><use href="#5" y="26.052"/><use href="#6" y="28.223"/><use href="#8" y="30.394"/><use href="#9" y="32.565"/><use href="#15" y="39.078"/><use href="#16" y="41.249"/><use href="#17" y="43.42"/><use href="#18" y="45.591"/><use href="#19" y="47.762"/><use href="#11" y="54.275"/></svg><svg x="11616"><use href="#a"/><use href="#8"/><use href="#9" y="2.171"/><use href="#15" y="8.684"/><use href="#16" y="10.855"/><use href="#17" y="13.026"/><use href="#18" y="15.197"/><use href="#19" y="17.368"/><use href="#21" y="21.71"/><use href="#4" y="23.881"/><use href="#5" y="26.052"/><use href="#6" y="28.223"/><use href="#8" y="30.394"/><use href="#9" y="32.565"/><use href="#15" y="39.078"/><use href="#16" y="41.249"/><use href="#17" y="43.42"/><use href="#18" y="45.591"/><use href="#19" y="47.762"/><use href="#12" y="54.275"/></svg><svg x="11748"><use href="#a"/><use href="#b" x="-.004" y="54.25"/><use href="#8"/><use href="#9" y="2.171"/><use href="#15" y="8.684"/><use href="#16" y="10.855"/><use href="#17" y="13.026"/><use href="#18" y="15.197"/><use href="#19" y="17.368"/><use href="#21" y="21.71"/><use href="#4" y="23.881"/><use href="#5" y="26.052"/><use href="#6" y="28.223"/><use href="#8" y="30.394"/><use href="#9" y="32.565"/><use href="#15" y="39.078"/><use href="#16" y="41.249"/><use href="#17" y="43.42"/><use href="#18" y="45.591"/><use href="#19" y="47.762"/><use href="#12" y="54.275"/></svg><svg x="11880"><use href="#a"/><use href="#8"/><use href="#9" y="2.171"/><use href="#15" y="8.684"/><use href="#16" y="10.855"/><use href="#17" y="13.026"/><use href="#18" y="15.197"/><use href="#19" y="17.368"/><use href="#21" y="21.71"/><use href="#4" y="23.881"/><use href="#5" y="26.052"/><use href="#6" y="28.223"/><use href="#8" y="30.394"/><use href="#9" y="32.565"/><use href="#15" y="39.078"/><use href="#16" y="41.249"/><use href="#17" y="43.42"/><use href="#18" y="45.591"/><use href="#19" y="47.762"/><use href="#12" y="54.275"/></svg><svg x="12012"><use href="#a"/><use href="#8"/><use href="#9" y="2.171"/><use href="#15" y="8.684"/><use href="#16" y="10.855"/><use href="#17" y="13.026"/><use href="#18" y="15.197"/><use href="#19" y="17.368"/><use href="#21" y="21.71"/><use href="#4" y="23.881"/><use href="#5" y="26.052"/><use href="#6" y="28.223"/><use href="#8" y="30.394"/><use href="#9" y="32.565"/><use href="#15" y="39.078"/><use href="#16" y="41.249"/><use href="#17" y="43.42"/><use href="#18" y="45.591"/><use href="#19" y="47.762"/><use href="#13" y="54.275"/></svg><svg x="12144"><use href="#a"/><use href="#b" x="-.004" y="54.25"/><use href="#8"/><use href="#9" y="2.171"/><use href="#15" y="8.684"/><use href="#16" y="10.855"/><use href="#17" y="13.026"/><use href="#18" y="15.197"/><use href="#19" y="17.368"/><use href="#21" y="21.71"/><use href="#4" y="23.881"/><use href="#5" y="26.052"/><use href="#6" y="28.223"/><use href="#8" y="30.394"/><use href="#9" y="32.565"/><use href="#15" y="39.078"/><use href="#16" y="41.249"/><use href="#17" y="43.42"/><use href="#18" y="45.591"/><use href="#19" y="47.762"/><use href="#13" y="54.275"/></svg><svg x="12276"><use href="#a"/><use href="#8"/><use href="#9" y="2.171"/><use href="#15" y="8.684"/><use href="#16" y="10.855"/><use href="#17" y="13.026"/><use href="#18" y="15.197"/><use href="#19" y="17.368"/><use href="#21" y="21.71"/><use href="#4" y="23.881"/><use href="#5" y="26.052"/><use href="#6" y="28.223"/><use href="#8" y="30.394"/><use href="#9" y="32.565"/><use href="#15" y="39.078"/><use href="#16" y="41.249"/><use href="#17" y="43.42"/><use href="#18" y="45.591"/><use href="#19" y="47.762"/><use href="#13" y="54.275"/></svg><svg x="12408"><use href="#a"/><use href="#8"/><use href="#9" y="2.171"/><use href="#15" y="8.684"/><use href="#16" y="10.855"/><use href="#17" y="13.026"/><use href="#18" y="15.197"/><use href="#19" y="17.368"/><use href="#21" y="21.71"/><use href="#4" y="23.881"/><use href="#5" y="26.052"/><use href="#6" y="28.223"/><use href="#8" y="30.394"/><use href="#9" y="32.565"/><use href="#15" y="39.078"/><use href="#16" y="41.249"/><use href="#17" y="43.42"/><use href="#18" y="45.591"/><use href="#19" y="47.762"/><use href="#14" y="54.275"/></svg><svg x="12540"><use href="#a"/><use href="#b" x="-.004" y="54.25"/><use href="#8"/><use href="#9" y="2.171"/><use href="#15" y="8.684"/><use href="#16" y="10.855"/><use href="#17" y="13.026"/><use href="#18" y="15.197"/><use href="#19" y="17.368"/><use href="#21" y="21.71"/><use href="#4" y="23.881"/><use href="#5" y="26.052"/><use href="#6" y="28.223"/><use href="#8" y="30.394"/><use href="#9" y="32.565"/><use href="#15" y="39.078"/><use href="#16" y="41.249"/><use href="#17" y="43.42"/><use href="#18" y="45.591"/><use href="#19" y="47.762"/><use href="#14" y="54.275"/></svg><svg x="12672"><use href="#a"/><use href="#8"/><use href="#9" y="2.171"/><use href="#15" y="8.684"/><use href="#16" y="10.855"/><use href="#17" y="13.026"/><use href="#18" y="15.197"/><use href="#19" y="17.368"/><use href="#21" y="21.71"/><use href="#4" y="23.881"/><use href="#5" y="26.052"/><use href="#6" y="28.223"/><use href="#8" y="30.394"/><use href="#9" y="32.565"/><use href="#15" y="39.078"/><use href="#16" y="41.249"/><use href="#17" y="43.42"/><use href="#18" y="45.591"/><use href="#19" y="47.762"/><use href="#14" y="54.275"/></svg></svg></g><svg height="100%" width="100%" viewBox="0 0 100 100" class="container_end"><text text-anchor="middle" alignment-baseline="central"><tspan y="50" x="50" style="font-size: 50px;">❚❚</tspan></text></svg></g></svg></svg>
