<svg xmlns="http://www.w3.org/2000/svg" width="1400" height="642.75"><rect width="1400" height="642.75" rx="5" ry="5" class="a"/><svg y="0%" x="0%"><circle cx="20" cy="20" r="6" fill="#ff5f58"/><circle cx="40" cy="20" r="6" fill="#ffbd2e"/><circle cx="60" cy="20" r="6" fill="#18c132"/></svg><svg height="542.75" viewBox="0 0 132 54.275" width="1320" x="35" xmlns="http://www.w3.org/2000/svg" y="70"><style>.inserted-lf{fill:#999999;fill-opacity:.75;font-variant-position:sub;font-size:75%}.container{font-family:'JetBrains Mono','Monaco','Consolas','Menlo','Bitstream Vera Sans Mono','Lucida Console','Ubuntu Mono','Meslo for Powerline','Meslo LG M for Powerline','Powerline Symbols','Monospace','monospace'}.container>g{animation-play-state:running}.container_end{fill:whitesmoke;mix-blend-mode:soft-light;opacity:0;transition:opacity .2s ease-in-out}.container:hover>g{animation-play-state:paused}.container{pointer-events:all}.container:hover{cursor:wait}.container:hover>.container_end{opacity:1}.container>g>svg>svg>*{transform: scaleY(.95);}@keyframes p{0%{transform:translateX(0)}.03%{transform:translateX(-132px)}.05%{transform:translateX(-264px)}5.37%{transform:translateX(-396px)}5.58%{transform:translateX(-528px)}5.79%{transform:translateX(-660px)}6.01%{transform:translateX(-792px)}8.78%{transform:translateX(-924px)}11.35%{transform:translateX(-1056px)}11.37%{transform:translateX(-1452px)}11.91%{transform:translateX(-1584px)}11.95%{transform:translateX(-1848px)}11.97%{transform:translateX(-2112px)}11.99%{transform:translateX(-2244px)}12%{transform:translateX(-2376px)}12.92%{transform:translateX(-2508px)}12.94%{transform:translateX(-2640px)}18.26%{transform:translateX(-2772px)}18.48%{transform:translateX(-2904px)}21.25%{transform:translateX(-3036px)}23.82%{transform:translateX(-3168px)}23.84%{transform:translateX(-3564px)}23.85%{transform:translateX(-3696px)}23.88%{transform:translateX(-4224px)}23.89%{transform:translateX(-4488px)}23.9%{transform:translateX(-4752px)}23.91%{transform:translateX(-4884px)}26.47%{transform:translateX(-5016px)}29.04%{transform:translateX(-5280px)}31.61%{transform:translateX(-5412px)}34.17%{transform:translateX(-5544px)}34.18%{transform:translateX(-5676px)}36.75%{transform:translateX(-5808px)}39.31%{transform:translateX(-5940px)}39.32%{transform:translateX(-6072px)}41.89%{transform:translateX(-6204px)}44.45%{transform:translateX(-6336px)}44.46%{transform:translateX(-6468px)}47.03%{transform:translateX(-6600px)}49.59%{transform:translateX(-6732px)}49.71%{transform:translateX(-6996px)}62.58%{transform:translateX(-7128px)}62.6%{transform:translateX(-7392px)}62.61%{transform:translateX(-7656px)}62.64%{transform:translateX(-7788px)}62.65%{transform:translateX(-8052px)}62.68%{transform:translateX(-8184px)}62.7%{transform:translateX(-8316px)}68.03%{transform:translateX(-8448px)}68.24%{transform:translateX(-8580px)}68.45%{transform:translateX(-8712px)}68.66%{transform:translateX(-8844px)}68.88%{transform:translateX(-8976px)}71.65%{transform:translateX(-9108px)}74.22%{transform:translateX(-9240px)}74.24%{transform:translateX(-9636px)}74.25%{transform:translateX(-10032px)}74.3%{transform:translateX(-10296px)}74.31%{transform:translateX(-10560px)}74.32%{transform:translateX(-10824px)}76.89%{transform:translateX(-10956px)}79.45%{transform:translateX(-11088px)}79.46%{transform:translateX(-11220px)}82.03%{transform:translateX(-11352px)}84.59%{transform:translateX(-11484px)}84.6%{transform:translateX(-11616px)}87.16%{transform:translateX(-11748px)}89.73%{transform:translateX(-11880px)}89.74%{transform:translateX(-12012px)}92.3%{transform:translateX(-12144px)}94.86%{transform:translateX(-12276px)}94.87%{transform:translateX(-12408px)}97.44%{transform:translateX(-12540px)}to{transform:translateX(-12672px)}}.a{fill:#2d2d2d}.f,.g,.h{fill:#dcdcdc;white-space:pre}.g,.h{fill:#6e6e6e}.h{fill:#b0b0b0}.i{fill:#69b745}.i,.j,.l,.m{white-space:pre}.j{fill:#c6c6c6;font-weight:700}.l,.m{fill:#ffd726}.m{fill:#c21e73;font-weight:700}</style><g class="container" font-size="1.67"><defs><symbol id="1"><text y="1.67" class="f">❱</text></symbol><symbol id="2"><text y="1.67" class="f">❱</text><text x="2.004" y="1.67" class="f">./recordr</text><text x="12.024" y="1.67" class="f">--build-dir=&quot;$TMPDIR&quot;</text><text x="34.068" y="1.67" class="f">rec/hello-world.rec</text></symbol><symbol id="3"><text y="1.67" class="g">❱</text><text x="2.004" y="1.67" class="g">./recordr</text><text x="12.024" y="1.67" class="g">--build-dir=&quot;$TMPDIR&quot;</text><text x="34.068" y="1.67" class="g">rec/hello-world.rec</text></symbol><symbol id="4"><text x="1.002" y="1.67" class="f">ℹ</text><text x="3.006" y="1.67" class="h">terminal</text><text x="12.024" y="1.67" class="h">profile</text><text x="20.04" y="1.67" class="h">search</text><a href="directory:"><title>Displayed as link in supporting terminal emulators</title><text x="27.054" y="1.67" class="h">directory:</text></a><text x="38.076" y="1.67" class="h">rec</text></symbol><symbol id="5"><text x="1.002" y="1.67" class="i">✔</text><a href="find_term_profile:"><title>Displayed as link in supporting terminal emulators</title><text x="3.006" y="1.67" class="h">find_term_profile:</text></a><text x="22.044" y="1.67" class="j">terminal</text><a href="profile:"><title>Displayed as link in supporting terminal emulators</title><text x="31.062" y="1.67" class="j">profile:</text></a><text x="40.08" y="1.67" class="j">rec/.itermcolors</text></symbol><symbol id="6"><text x="1.002" y="1.67" style="white-space:pre" fill="#c21e73">●</text><a href="RECORDING:"><title>Displayed as link in supporting terminal emulators</title><text x="3.006" y="1.67" class="h">RECORDING:</text></a><text x="14.028" y="1.67" class="j">rec/hello-world.rec</text></symbol><symbol id="7"><text y="1.67" class="f">❱</text><text x="2.004" y="1.67" class="f">echo</text><text x="7.014" y="1.67" class="f">Hello\</text><text x="14.028" y="1.67" class="f">World\!</text></symbol><symbol id="8"><text y="1.67" class="g">❱</text><text x="2.004" y="1.67" class="g">echo</text><text x="7.014" y="1.67" class="g">Hello\</text><text x="14.028" y="1.67" class="g">World\!</text></symbol><symbol id="9"><text y="1.67" class="h">Hello</text><text x="6.012" y="1.67" class="h">World!</text></symbol><symbol id="10"><text y="1.67" class="h">5</text></symbol><symbol id="11"><text y="1.67" class="h">4</text></symbol><symbol id="12"><text y="1.67" class="h">3</text></symbol><symbol id="13"><text y="1.67" class="h">2</text></symbol><symbol id="14"><text y="1.67" class="h">1</text></symbol><symbol id="15"><text x="1.002" y="1.67" class="l">◔</text><a href="CONVERTING:"><title>Displayed as link in supporting terminal emulators</title><text x="3.006" y="1.67" class="h">CONVERTING:</text></a><text x="15.03" y="1.67" class="j">/tmp/hello-world.cast</text></symbol><symbol id="16"><text x="1.002" y="1.67" class="l">◑</text><a href="PATCHING:"><title>Displayed as link in supporting terminal emulators</title><text x="3.006" y="1.67" class="h">PATCHING:</text></a><text x="13.026" y="1.67" class="j">/tmp/hello-world.svg.0</text></symbol><symbol id="17"><text x="1.002" y="1.67" class="l">◕</text><a href="LINKING:"><title>Displayed as link in supporting terminal emulators</title><text x="3.006" y="1.67" class="h">LINKING:</text></a><text x="12.024" y="1.67" class="j">/tmp/hello-world.svg.1</text></symbol><symbol id="18"><text x="1.002" y="1.67" class="l">●</text><a href="ANNOTATING:"><title>Displayed as link in supporting terminal emulators</title><text x="3.006" y="1.67" class="h">ANNOTATING:</text></a><text x="15.03" y="1.67" class="j">/tmp/hello-world.svg.2</text></symbol><symbol id="19"><text x="1.002" y="1.67" class="i">●</text><a href="COMPLETED:"><title>Displayed as link in supporting terminal emulators</title><text x="3.006" y="1.67" class="h">COMPLETED:</text></a><text x="14.028" y="1.67" class="j">docs/hello-world.svg</text></symbol><symbol id="20"><text y="1.67" class="h">docs/hello-world.svg</text></symbol><symbol id="21"><text y="1.67" class="f">❱</text><text x="2.004" y="1.67" class="f">TESTING=1</text><text x="12.024" y="1.67" class="f">--build-dir=&quot;$TMPDIR&quot;</text><text x="34.068" y="1.67" class="f">./recordr</text><text x="44.088" y="1.67" class="f">rec/hello-world.rec</text></symbol><symbol id="22"><text y="1.67" class="g">❱</text><text x="2.004" y="1.67" class="g">TESTING=1</text><text x="12.024" y="1.67" class="g">--build-dir=&quot;$TMPDIR&quot;</text><text x="34.068" y="1.67" class="g">./recordr</text><text x="44.088" y="1.67" class="g">rec/hello-world.rec</text></symbol><symbol id="23"><text y="1.67" class="h">build/rec/recording-hello-world.sh:</text><text x="36.072" y="1.67" class="h">line</text><a href="45:"><title>Displayed as link in supporting terminal emulators</title><text x="41.082" y="1.67" class="h">45:</text></a><text x="45.09" y="1.67" class="h">--build-dir=/tmp:</text><text x="63.126" y="1.67" class="h">No</text><text x="66.132" y="1.67" class="h">such</text><text x="71.142" y="1.67" class="h">file</text><text x="76.152" y="1.67" class="h">or</text><text x="79.158" y="1.67" class="h">directory</text></symbol><symbol id="24"><text y="1.67" class="h">build/rec/recording-hello-world.sh:</text><text x="36.072" y="1.67" class="h">line</text><a href="45:"><title>Displayed as link in supporting terminal emulators</title><text x="41.082" y="1.67" class="h">45:</text></a><text x="45.09" y="1.67" class="h">--build-dir=/tmp:</text><text x="63.126" y="1.67" class="h">No</text><text x="66.132" y="1.67" class="h">such</text><text x="71.142" y="1.67" class="h">file</text><text x="76.152" y="1.67" class="h">or</text><text x="79.158" y="1.67" class="h">directory</text><text x="126.252" y="1.67" class="m">↩</text><text x="128.256" y="1.67" class="m">127</text></symbol><symbol id="a"><path fill="transparent" d="M0 0h132v26H0z"/></symbol><symbol id="b"><path fill="silver" d="M0 0h1.102v2.171H0z"/></symbol></defs><path class="a" d="M0 0h132v54.275H0z"/><g style="animation-duration:19.592715s;animation-iteration-count:infinite;animation-name:p;animation-timing-function:steps(1,end)"><svg width="12804"><svg><use href="#a"/><use href="#b" x="-.004"/></svg><svg x="132"><use href="#a"/><use href="#b" x="-.004"/></svg><svg x="264"><use href="#a"/><use href="#b" x="1.996"/><use href="#1"/></svg><svg x="396"><use href="#a"/><use href="#b" x="14.996"/><text y="1.67" class="f">❱</text><text x="2.004" y="1.67" class="f">./recordr</text><text x="12.024" y="1.67" class="f">--b</text></svg><svg x="528"><use href="#a"/><use href="#b" x="28.996"/><text y="1.67" class="f">❱</text><text x="2.004" y="1.67" class="f">./recordr</text><text x="12.024" y="1.67" class="f">--build-dir=&quot;$TMP</text></svg><svg x="660"><use href="#a"/><use href="#b" x="42.996"/><text y="1.67" class="f">❱</text><text x="2.004" y="1.67" class="f">./recordr</text><text x="12.024" y="1.67" class="f">--build-dir=&quot;$TMPDIR&quot;</text><text x="34.068" y="1.67" class="f">rec/hello</text></svg><svg x="792"><use href="#a"/><use href="#b" x="52.996"/><use href="#2"/></svg><svg x="924"><use href="#a"/><use href="#2"/></svg><svg x="1056"><use href="#a"/><use href="#b" x="52.996"/><use href="#2"/></svg><svg x="1188"><use href="#a"/><use href="#b" x="52.996"/><use href="#3"/></svg><svg x="1320"><use href="#a"/><use href="#b" x="-.004" y="2.146"/><use href="#3"/></svg><svg x="1452"><use href="#a"/><use href="#3"/></svg><svg x="1584"><use href="#a"/><use href="#3"/></svg><svg x="1716"><use href="#a"/><use href="#3"/><use href="#4" y="2.171"/></svg><svg x="1848"><use href="#a"/><use href="#3"/><use href="#4" y="2.171"/></svg><svg x="1980"><use href="#a"/><use href="#3"/><use href="#4" y="2.171"/><use href="#5" y="4.342"/></svg><svg x="2112"><use href="#a"/><use href="#3"/><use href="#4" y="2.171"/><use href="#5" y="4.342"/></svg><svg x="2244"><use href="#a"/><use href="#3"/><use href="#4" y="2.171"/><use href="#5" y="4.342"/><use href="#6" y="6.513"/></svg><svg x="2376"><use href="#a"/><use href="#3"/><use href="#4" y="2.171"/><use href="#5" y="4.342"/><use href="#6" y="6.513"/></svg><svg x="2508"><use href="#a"/><use href="#3"/><use href="#4" y="2.171"/><use href="#5" y="4.342"/><use href="#6" y="6.513"/></svg><svg x="2640"><use href="#a"/><use href="#b" x="1.996" y="8.659"/><use href="#3"/><use href="#4" y="2.171"/><use href="#5" y="4.342"/><use href="#6" y="6.513"/><use href="#1" y="8.684"/></svg><svg x="2772"><use href="#a"/><use href="#b" x="12.996" y="8.659"/><use href="#3"/><use href="#4" y="2.171"/><use href="#5" y="4.342"/><use href="#6" y="6.513"/><text y="10.354" class="f">❱</text><text x="2.004" y="10.354" class="f">echo</text><text x="7.014" y="10.354" class="f">Hello\</text></svg><svg x="2904"><use href="#a"/><use href="#b" x="20.996" y="8.659"/><use href="#3"/><use href="#4" y="2.171"/><use href="#5" y="4.342"/><use href="#6" y="6.513"/><use href="#7" y="8.684"/></svg><svg x="3036"><use href="#a"/><use href="#3"/><use href="#4" y="2.171"/><use href="#5" y="4.342"/><use href="#6" y="6.513"/><use href="#7" y="8.684"/></svg><svg x="3168"><use href="#a"/><use href="#b" x="20.996" y="8.659"/><use href="#3"/><use href="#4" y="2.171"/><use href="#5" y="4.342"/><use href="#6" y="6.513"/><use href="#7" y="8.684"/></svg><svg x="3300"><use href="#a"/><use href="#b" x="20.996" y="8.659"/><use href="#3"/><use href="#4" y="2.171"/><use href="#5" y="4.342"/><use href="#6" y="6.513"/><use href="#8" y="8.684"/></svg><svg x="3432"><use href="#a"/><use href="#b" x="-.004" y="8.659"/><use href="#3"/><use href="#4" y="2.171"/><use href="#5" y="4.342"/><use href="#6" y="6.513"/><use href="#8" y="8.684"/></svg><svg x="3564"><use href="#a"/><use href="#b" x="-.004" y="10.83"/><use href="#3"/><use href="#4" y="2.171"/><use href="#5" y="4.342"/><use href="#6" y="6.513"/><use href="#8" y="8.684"/></svg><svg x="3696"><use href="#a"/><use href="#3"/><use href="#4" y="2.171"/><use href="#5" y="4.342"/><use href="#6" y="6.513"/><use href="#8" y="8.684"/></svg><svg x="3828"><use href="#a"/><use href="#3"/><use href="#4" y="2.171"/><use href="#5" y="4.342"/><use href="#6" y="6.513"/><use href="#8" y="8.684"/></svg><svg x="3960"><use href="#a"/><use href="#3"/><use href="#4" y="2.171"/><use href="#5" y="4.342"/><use href="#6" y="6.513"/><use href="#8" y="8.684"/></svg><svg x="4092"><use href="#a"/><use href="#3"/><use href="#4" y="2.171"/><use href="#5" y="4.342"/><use href="#6" y="6.513"/><use href="#8" y="8.684"/></svg><svg x="4224"><use href="#a"/><use href="#3"/><use href="#4" y="2.171"/><use href="#5" y="4.342"/><use href="#6" y="6.513"/><use href="#8" y="8.684"/></svg><svg x="4356"><use href="#a"/><use href="#3"/><use href="#4" y="2.171"/><use href="#5" y="4.342"/><use href="#6" y="6.513"/><use href="#8" y="8.684"/></svg><svg x="4488"><use href="#a"/><use href="#3"/><use href="#4" y="2.171"/><use href="#5" y="4.342"/><use href="#6" y="6.513"/><use href="#8" y="8.684"/><use href="#9" y="15.197"/></svg><svg x="4620"><use href="#a"/><use href="#3"/><use href="#4" y="2.171"/><use href="#5" y="4.342"/><use href="#6" y="6.513"/><use href="#8" y="8.684"/><use href="#9" y="15.197"/></svg><svg x="4752"><use href="#a"/><use href="#3"/><use href="#4" y="2.171"/><use href="#5" y="4.342"/><use href="#6" y="6.513"/><use href="#8" y="8.684"/><use href="#9" y="15.197"/></svg><svg x="4884"><use href="#a"/><use href="#3"/><use href="#4" y="2.171"/><use href="#5" y="4.342"/><use href="#6" y="6.513"/><use href="#8" y="8.684"/><use href="#9" y="15.197"/><use href="#10" y="17.368"/></svg><svg x="5016"><use href="#a"/><use href="#b" x="-.004" y="17.343"/><use href="#3"/><use href="#4" y="2.171"/><use href="#5" y="4.342"/><use href="#6" y="6.513"/><use href="#8" y="8.684"/><use href="#9" y="15.197"/><use href="#10" y="17.368"/></svg><svg x="5148"><use href="#a"/><use href="#3"/><use href="#4" y="2.171"/><use href="#5" y="4.342"/><use href="#6" y="6.513"/><use href="#8" y="8.684"/><use href="#9" y="15.197"/><use href="#10" y="17.368"/></svg><svg x="5280"><use href="#a"/><use href="#3"/><use href="#4" y="2.171"/><use href="#5" y="4.342"/><use href="#6" y="6.513"/><use href="#8" y="8.684"/><use href="#9" y="15.197"/><use href="#11" y="17.368"/></svg><svg x="5412"><use href="#a"/><use href="#b" x="-.004" y="17.343"/><use href="#3"/><use href="#4" y="2.171"/><use href="#5" y="4.342"/><use href="#6" y="6.513"/><use href="#8" y="8.684"/><use href="#9" y="15.197"/><use href="#11" y="17.368"/></svg><svg x="5544"><use href="#a"/><use href="#3"/><use href="#4" y="2.171"/><use href="#5" y="4.342"/><use href="#6" y="6.513"/><use href="#8" y="8.684"/><use href="#9" y="15.197"/><use href="#11" y="17.368"/></svg><svg x="5676"><use href="#a"/><use href="#3"/><use href="#4" y="2.171"/><use href="#5" y="4.342"/><use href="#6" y="6.513"/><use href="#8" y="8.684"/><use href="#9" y="15.197"/><use href="#12" y="17.368"/></svg><svg x="5808"><use href="#a"/><use href="#b" x="-.004" y="17.343"/><use href="#3"/><use href="#4" y="2.171"/><use href="#5" y="4.342"/><use href="#6" y="6.513"/><use href="#8" y="8.684"/><use href="#9" y="15.197"/><use href="#12" y="17.368"/></svg><svg x="5940"><use href="#a"/><use href="#3"/><use href="#4" y="2.171"/><use href="#5" y="4.342"/><use href="#6" y="6.513"/><use href="#8" y="8.684"/><use href="#9" y="15.197"/><use href="#12" y="17.368"/></svg><svg x="6072"><use href="#a"/><use href="#3"/><use href="#4" y="2.171"/><use href="#5" y="4.342"/><use href="#6" y="6.513"/><use href="#8" y="8.684"/><use href="#9" y="15.197"/><use href="#13" y="17.368"/></svg><svg x="6204"><use href="#a"/><use href="#b" x="-.004" y="17.343"/><use href="#3"/><use href="#4" y="2.171"/><use href="#5" y="4.342"/><use href="#6" y="6.513"/><use href="#8" y="8.684"/><use href="#9" y="15.197"/><use href="#13" y="17.368"/></svg><svg x="6336"><use href="#a"/><use href="#3"/><use href="#4" y="2.171"/><use href="#5" y="4.342"/><use href="#6" y="6.513"/><use href="#8" y="8.684"/><use href="#9" y="15.197"/><use href="#13" y="17.368"/></svg><svg x="6468"><use href="#a"/><use href="#3"/><use href="#4" y="2.171"/><use href="#5" y="4.342"/><use href="#6" y="6.513"/><use href="#8" y="8.684"/><use href="#9" y="15.197"/><use href="#14" y="17.368"/></svg><svg x="6600"><use href="#a"/><use href="#b" x="-.004" y="17.343"/><use href="#3"/><use href="#4" y="2.171"/><use href="#5" y="4.342"/><use href="#6" y="6.513"/><use href="#8" y="8.684"/><use href="#9" y="15.197"/><use href="#14" y="17.368"/></svg><svg x="6732"><use href="#a"/><use href="#3"/><use href="#4" y="2.171"/><use href="#5" y="4.342"/><use href="#6" y="6.513"/><use href="#8" y="8.684"/><use href="#9" y="15.197"/><use href="#14" y="17.368"/></svg><svg x="6864"><use href="#a"/><use href="#3"/><use href="#4" y="2.171"/><use href="#5" y="4.342"/><use href="#6" y="6.513"/><use href="#8" y="8.684"/><use href="#9" y="15.197"/><use href="#15" y="17.368"/></svg><svg x="6996"><use href="#a"/><use href="#3"/><use href="#4" y="2.171"/><use href="#5" y="4.342"/><use href="#6" y="6.513"/><use href="#8" y="8.684"/><use href="#9" y="15.197"/><use href="#15" y="17.368"/></svg><svg x="7128"><use href="#a"/><use href="#3"/><use href="#4" y="2.171"/><use href="#5" y="4.342"/><use href="#6" y="6.513"/><use href="#8" y="8.684"/><use href="#9" y="15.197"/><use href="#15" y="17.368"/><use href="#16" y="19.539"/></svg><svg x="7260"><use href="#a"/><use href="#3"/><use href="#4" y="2.171"/><use href="#5" y="4.342"/><use href="#6" y="6.513"/><use href="#8" y="8.684"/><use href="#9" y="15.197"/><use href="#15" y="17.368"/><use href="#16" y="19.539"/><use href="#17" y="21.71"/></svg><svg x="7392"><use href="#a"/><use href="#3"/><use href="#4" y="2.171"/><use href="#5" y="4.342"/><use href="#6" y="6.513"/><use href="#8" y="8.684"/><use href="#9" y="15.197"/><use href="#15" y="17.368"/><use href="#16" y="19.539"/><use href="#17" y="21.71"/></svg><svg x="7524"><use href="#a"/><use href="#3"/><use href="#4" y="2.171"/><use href="#5" y="4.342"/><use href="#6" y="6.513"/><use href="#8" y="8.684"/><use href="#9" y="15.197"/><use href="#15" y="17.368"/><use href="#16" y="19.539"/><use href="#17" y="21.71"/><use href="#18" y="23.881"/></svg><svg x="7656"><use href="#a"/><use href="#3"/><use href="#4" y="2.171"/><use href="#5" y="4.342"/><use href="#6" y="6.513"/><use href="#8" y="8.684"/><use href="#9" y="15.197"/><use href="#15" y="17.368"/><use href="#16" y="19.539"/><use href="#17" y="21.71"/><use href="#18" y="23.881"/></svg><svg x="7788"><use href="#a"/><use href="#3"/><use href="#4" y="2.171"/><use href="#5" y="4.342"/><use href="#6" y="6.513"/><use href="#8" y="8.684"/><use href="#9" y="15.197"/><use href="#15" y="17.368"/><use href="#16" y="19.539"/><use href="#17" y="21.71"/><use href="#18" y="23.881"/><use href="#19" y="26.052"/></svg><svg x="7920"><use href="#a"/><use href="#3"/><use href="#4" y="2.171"/><use href="#5" y="4.342"/><use href="#6" y="6.513"/><use href="#8" y="8.684"/><use href="#9" y="15.197"/><use href="#15" y="17.368"/><use href="#16" y="19.539"/><use href="#17" y="21.71"/><use href="#18" y="23.881"/><use href="#19" y="26.052"/></svg><svg x="8052"><use href="#a"/><use href="#3"/><use href="#4" y="2.171"/><use href="#5" y="4.342"/><use href="#6" y="6.513"/><use href="#8" y="8.684"/><use href="#9" y="15.197"/><use href="#15" y="17.368"/><use href="#16" y="19.539"/><use href="#17" y="21.71"/><use href="#18" y="23.881"/><use href="#19" y="26.052"/><use href="#20" y="28.223"/></svg><svg x="8184"><use href="#a"/><use href="#3"/><use href="#4" y="2.171"/><use href="#5" y="4.342"/><use href="#6" y="6.513"/><use href="#8" y="8.684"/><use href="#9" y="15.197"/><use href="#15" y="17.368"/><use href="#16" y="19.539"/><use href="#17" y="21.71"/><use href="#18" y="23.881"/><use href="#19" y="26.052"/><use href="#20" y="28.223"/></svg><svg x="8316"><use href="#a"/><use href="#b" x="1.996" y="32.54"/><use href="#3"/><use href="#4" y="2.171"/><use href="#5" y="4.342"/><use href="#6" y="6.513"/><use href="#8" y="8.684"/><use href="#9" y="15.197"/><use href="#15" y="17.368"/><use href="#16" y="19.539"/><use href="#17" y="21.71"/><use href="#18" y="23.881"/><use href="#19" y="26.052"/><use href="#20" y="28.223"/><use href="#1" y="32.565"/></svg><svg x="8448"><use href="#a"/><use href="#b" x="14.996" y="32.54"/><use href="#3"/><use href="#4" y="2.171"/><use href="#5" y="4.342"/><use href="#6" y="6.513"/><use href="#8" y="8.684"/><use href="#9" y="15.197"/><use href="#15" y="17.368"/><use href="#16" y="19.539"/><use href="#17" y="21.71"/><use href="#18" y="23.881"/><use href="#19" y="26.052"/><use href="#20" y="28.223"/><text y="34.235" class="f">❱</text><text x="2.004" y="34.235" class="f">TESTING=1</text><text x="12.024" y="34.235" class="f">--b</text></svg><svg x="8580"><use href="#a"/><use href="#b" x="27.996" y="32.54"/><use href="#3"/><use href="#4" y="2.171"/><use href="#5" y="4.342"/><use href="#6" y="6.513"/><use href="#8" y="8.684"/><use href="#9" y="15.197"/><use href="#15" y="17.368"/><use href="#16" y="19.539"/><use href="#17" y="21.71"/><use href="#18" y="23.881"/><use href="#19" y="26.052"/><use href="#20" y="28.223"/><text y="34.235" class="f">❱</text><text x="2.004" y="34.235" class="f">TESTING=1</text><text x="12.024" y="34.235" class="f">--build-dir=&quot;$TM</text></svg><svg x="8712"><use href="#a"/><use href="#b" x="41.996" y="32.54"/><use href="#3"/><use href="#4" y="2.171"/><use href="#5" y="4.342"/><use href="#6" y="6.513"/><use href="#8" y="8.684"/><use href="#9" y="15.197"/><use href="#15" y="17.368"/><use href="#16" y="19.539"/><use href="#17" y="21.71"/><use href="#18" y="23.881"/><use href="#19" y="26.052"/><use href="#20" y="28.223"/><text y="34.235" class="f">❱</text><text x="2.004" y="34.235" class="f">TESTING=1</text><text x="12.024" y="34.235" class="f">--build-dir=&quot;$TMPDIR&quot;</text><text x="34.068" y="34.235" class="f">./record</text></svg><svg x="8844"><use href="#a"/><use href="#b" x="54.996" y="32.54"/><use href="#3"/><use href="#4" y="2.171"/><use href="#5" y="4.342"/><use href="#6" y="6.513"/><use href="#8" y="8.684"/><use href="#9" y="15.197"/><use href="#15" y="17.368"/><use href="#16" y="19.539"/><use href="#17" y="21.71"/><use href="#18" y="23.881"/><use href="#19" y="26.052"/><use href="#20" y="28.223"/><text y="34.235" class="f">❱</text><text x="2.004" y="34.235" class="f">TESTING=1</text><text x="12.024" y="34.235" class="f">--build-dir=&quot;$TMPDIR&quot;</text><text x="34.068" y="34.235" class="f">./recordr</text><text x="44.088" y="34.235" class="f">rec/hello-w</text></svg><svg x="8976"><use href="#a"/><use href="#b" x="62.996" y="32.54"/><use href="#3"/><use href="#4" y="2.171"/><use href="#5" y="4.342"/><use href="#6" y="6.513"/><use href="#8" y="8.684"/><use href="#9" y="15.197"/><use href="#15" y="17.368"/><use href="#16" y="19.539"/><use href="#17" y="21.71"/><use href="#18" y="23.881"/><use href="#19" y="26.052"/><use href="#20" y="28.223"/><use href="#21" y="32.565"/></svg><svg x="9108"><use href="#a"/><use href="#3"/><use href="#4" y="2.171"/><use href="#5" y="4.342"/><use href="#6" y="6.513"/><use href="#8" y="8.684"/><use href="#9" y="15.197"/><use href="#15" y="17.368"/><use href="#16" y="19.539"/><use href="#17" y="21.71"/><use href="#18" y="23.881"/><use href="#19" y="26.052"/><use href="#20" y="28.223"/><use href="#21" y="32.565"/></svg><svg x="9240"><use href="#a"/><use href="#b" x="62.996" y="32.54"/><use href="#3"/><use href="#4" y="2.171"/><use href="#5" y="4.342"/><use href="#6" y="6.513"/><use href="#8" y="8.684"/><use href="#9" y="15.197"/><use href="#15" y="17.368"/><use href="#16" y="19.539"/><use href="#17" y="21.71"/><use href="#18" y="23.881"/><use href="#19" y="26.052"/><use href="#20" y="28.223"/><use href="#21" y="32.565"/></svg><svg x="9372"><use href="#a"/><use href="#b" x="62.996" y="32.54"/><use href="#3"/><use href="#4" y="2.171"/><use href="#5" y="4.342"/><use href="#6" y="6.513"/><use href="#8" y="8.684"/><use href="#9" y="15.197"/><use href="#15" y="17.368"/><use href="#16" y="19.539"/><use href="#17" y="21.71"/><use href="#18" y="23.881"/><use href="#19" y="26.052"/><use href="#20" y="28.223"/><use href="#22" y="32.565"/></svg><svg x="9504"><use href="#a"/><use href="#b" x="-.004" y="34.711"/><use href="#3"/><use href="#4" y="2.171"/><use href="#5" y="4.342"/><use href="#6" y="6.513"/><use href="#8" y="8.684"/><use href="#9" y="15.197"/><use href="#15" y="17.368"/><use href="#16" y="19.539"/><use href="#17" y="21.71"/><use href="#18" y="23.881"/><use href="#19" y="26.052"/><use href="#20" y="28.223"/><use href="#22" y="32.565"/></svg><svg x="9636"><use href="#a"/><use href="#3"/><use href="#4" y="2.171"/><use href="#5" y="4.342"/><use href="#6" y="6.513"/><use href="#8" y="8.684"/><use href="#9" y="15.197"/><use href="#15" y="17.368"/><use href="#16" y="19.539"/><use href="#17" y="21.71"/><use href="#18" y="23.881"/><use href="#19" y="26.052"/><use href="#20" y="28.223"/><use href="#22" y="32.565"/></svg><svg x="9768"><use href="#a"/><use href="#3"/><use href="#4" y="2.171"/><use href="#5" y="4.342"/><use href="#6" y="6.513"/><use href="#8" y="8.684"/><use href="#9" y="15.197"/><use href="#15" y="17.368"/><use href="#16" y="19.539"/><use href="#17" y="21.71"/><use href="#18" y="23.881"/><use href="#19" y="26.052"/><use href="#20" y="28.223"/><use href="#22" y="32.565"/><text y="36.406" class="h">build/rec/recording-hello-world.sh:</text><text x="36.072" y="36.406" class="h">line</text><a href="45:"><title>Displayed as link in supporting terminal emulators</title><text x="41.082" y="36.406" class="h">45:</text></a></svg><svg x="9900"><use href="#a"/><use href="#3"/><use href="#4" y="2.171"/><use href="#5" y="4.342"/><use href="#6" y="6.513"/><use href="#8" y="8.684"/><use href="#9" y="15.197"/><use href="#15" y="17.368"/><use href="#16" y="19.539"/><use href="#17" y="21.71"/><use href="#18" y="23.881"/><use href="#19" y="26.052"/><use href="#20" y="28.223"/><use href="#22" y="32.565"/><use href="#23" y="34.736"/></svg><svg x="10032"><use href="#a"/><use href="#3"/><use href="#4" y="2.171"/><use href="#5" y="4.342"/><use href="#6" y="6.513"/><use href="#8" y="8.684"/><use href="#9" y="15.197"/><use href="#15" y="17.368"/><use href="#16" y="19.539"/><use href="#17" y="21.71"/><use href="#18" y="23.881"/><use href="#19" y="26.052"/><use href="#20" y="28.223"/><use href="#22" y="32.565"/><use href="#23" y="34.736"/></svg><svg x="10164"><use href="#a"/><use href="#3"/><use href="#4" y="2.171"/><use href="#5" y="4.342"/><use href="#6" y="6.513"/><use href="#8" y="8.684"/><use href="#9" y="15.197"/><use href="#15" y="17.368"/><use href="#16" y="19.539"/><use href="#17" y="21.71"/><use href="#18" y="23.881"/><use href="#19" y="26.052"/><use href="#20" y="28.223"/><use href="#22" y="32.565"/><use href="#24" y="34.736"/></svg><svg x="10296"><use href="#a"/><use href="#3"/><use href="#4" y="2.171"/><use href="#5" y="4.342"/><use href="#6" y="6.513"/><use href="#8" y="8.684"/><use href="#9" y="15.197"/><use href="#15" y="17.368"/><use href="#16" y="19.539"/><use href="#17" y="21.71"/><use href="#18" y="23.881"/><use href="#19" y="26.052"/><use href="#20" y="28.223"/><use href="#22" y="32.565"/><use href="#24" y="34.736"/></svg><svg x="10428"><use href="#a"/><use href="#3"/><use href="#4" y="2.171"/><use href="#5" y="4.342"/><use href="#6" y="6.513"/><use href="#8" y="8.684"/><use href="#9" y="15.197"/><use href="#15" y="17.368"/><use href="#16" y="19.539"/><use href="#17" y="21.71"/><use href="#18" y="23.881"/><use href="#19" y="26.052"/><use href="#20" y="28.223"/><use href="#22" y="32.565"/><use href="#24" y="34.736"/></svg><svg x="10560"><use href="#a"/><use href="#3"/><use href="#4" y="2.171"/><use href="#5" y="4.342"/><use href="#6" y="6.513"/><use href="#8" y="8.684"/><use href="#9" y="15.197"/><use href="#15" y="17.368"/><use href="#16" y="19.539"/><use href="#17" y="21.71"/><use href="#18" y="23.881"/><use href="#19" y="26.052"/><use href="#20" y="28.223"/><use href="#22" y="32.565"/><use href="#24" y="34.736"/></svg><svg x="10692"><use href="#a"/><use href="#3"/><use href="#4" y="2.171"/><use href="#5" y="4.342"/><use href="#6" y="6.513"/><use href="#8" y="8.684"/><use href="#9" y="15.197"/><use href="#15" y="17.368"/><use href="#16" y="19.539"/><use href="#17" y="21.71"/><use href="#18" y="23.881"/><use href="#19" y="26.052"/><use href="#20" y="28.223"/><use href="#22" y="32.565"/><use href="#24" y="34.736"/></svg><svg x="10824"><use href="#a"/><use href="#3"/><use href="#4" y="2.171"/><use href="#5" y="4.342"/><use href="#6" y="6.513"/><use href="#8" y="8.684"/><use href="#9" y="15.197"/><use href="#15" y="17.368"/><use href="#16" y="19.539"/><use href="#17" y="21.71"/><use href="#18" y="23.881"/><use href="#19" y="26.052"/><use href="#20" y="28.223"/><use href="#22" y="32.565"/><use href="#24" y="34.736"/><use href="#10" y="41.249"/></svg><svg x="10956"><use href="#a"/><use href="#b" x="-.004" y="41.224"/><use href="#3"/><use href="#4" y="2.171"/><use href="#5" y="4.342"/><use href="#6" y="6.513"/><use href="#8" y="8.684"/><use href="#9" y="15.197"/><use href="#15" y="17.368"/><use href="#16" y="19.539"/><use href="#17" y="21.71"/><use href="#18" y="23.881"/><use href="#19" y="26.052"/><use href="#20" y="28.223"/><use href="#22" y="32.565"/><use href="#24" y="34.736"/><use href="#10" y="41.249"/></svg><svg x="11088"><use href="#a"/><use href="#3"/><use href="#4" y="2.171"/><use href="#5" y="4.342"/><use href="#6" y="6.513"/><use href="#8" y="8.684"/><use href="#9" y="15.197"/><use href="#15" y="17.368"/><use href="#16" y="19.539"/><use href="#17" y="21.71"/><use href="#18" y="23.881"/><use href="#19" y="26.052"/><use href="#20" y="28.223"/><use href="#22" y="32.565"/><use href="#24" y="34.736"/><use href="#10" y="41.249"/></svg><svg x="11220"><use href="#a"/><use href="#3"/><use href="#4" y="2.171"/><use href="#5" y="4.342"/><use href="#6" y="6.513"/><use href="#8" y="8.684"/><use href="#9" y="15.197"/><use href="#15" y="17.368"/><use href="#16" y="19.539"/><use href="#17" y="21.71"/><use href="#18" y="23.881"/><use href="#19" y="26.052"/><use href="#20" y="28.223"/><use href="#22" y="32.565"/><use href="#24" y="34.736"/><use href="#11" y="41.249"/></svg><svg x="11352"><use href="#a"/><use href="#b" x="-.004" y="41.224"/><use href="#3"/><use href="#4" y="2.171"/><use href="#5" y="4.342"/><use href="#6" y="6.513"/><use href="#8" y="8.684"/><use href="#9" y="15.197"/><use href="#15" y="17.368"/><use href="#16" y="19.539"/><use href="#17" y="21.71"/><use href="#18" y="23.881"/><use href="#19" y="26.052"/><use href="#20" y="28.223"/><use href="#22" y="32.565"/><use href="#24" y="34.736"/><use href="#11" y="41.249"/></svg><svg x="11484"><use href="#a"/><use href="#3"/><use href="#4" y="2.171"/><use href="#5" y="4.342"/><use href="#6" y="6.513"/><use href="#8" y="8.684"/><use href="#9" y="15.197"/><use href="#15" y="17.368"/><use href="#16" y="19.539"/><use href="#17" y="21.71"/><use href="#18" y="23.881"/><use href="#19" y="26.052"/><use href="#20" y="28.223"/><use href="#22" y="32.565"/><use href="#24" y="34.736"/><use href="#11" y="41.249"/></svg><svg x="11616"><use href="#a"/><use href="#3"/><use href="#4" y="2.171"/><use href="#5" y="4.342"/><use href="#6" y="6.513"/><use href="#8" y="8.684"/><use href="#9" y="15.197"/><use href="#15" y="17.368"/><use href="#16" y="19.539"/><use href="#17" y="21.71"/><use href="#18" y="23.881"/><use href="#19" y="26.052"/><use href="#20" y="28.223"/><use href="#22" y="32.565"/><use href="#24" y="34.736"/><use href="#12" y="41.249"/></svg><svg x="11748"><use href="#a"/><use href="#b" x="-.004" y="41.224"/><use href="#3"/><use href="#4" y="2.171"/><use href="#5" y="4.342"/><use href="#6" y="6.513"/><use href="#8" y="8.684"/><use href="#9" y="15.197"/><use href="#15" y="17.368"/><use href="#16" y="19.539"/><use href="#17" y="21.71"/><use href="#18" y="23.881"/><use href="#19" y="26.052"/><use href="#20" y="28.223"/><use href="#22" y="32.565"/><use href="#24" y="34.736"/><use href="#12" y="41.249"/></svg><svg x="11880"><use href="#a"/><use href="#3"/><use href="#4" y="2.171"/><use href="#5" y="4.342"/><use href="#6" y="6.513"/><use href="#8" y="8.684"/><use href="#9" y="15.197"/><use href="#15" y="17.368"/><use href="#16" y="19.539"/><use href="#17" y="21.71"/><use href="#18" y="23.881"/><use href="#19" y="26.052"/><use href="#20" y="28.223"/><use href="#22" y="32.565"/><use href="#24" y="34.736"/><use href="#12" y="41.249"/></svg><svg x="12012"><use href="#a"/><use href="#3"/><use href="#4" y="2.171"/><use href="#5" y="4.342"/><use href="#6" y="6.513"/><use href="#8" y="8.684"/><use href="#9" y="15.197"/><use href="#15" y="17.368"/><use href="#16" y="19.539"/><use href="#17" y="21.71"/><use href="#18" y="23.881"/><use href="#19" y="26.052"/><use href="#20" y="28.223"/><use href="#22" y="32.565"/><use href="#24" y="34.736"/><use href="#13" y="41.249"/></svg><svg x="12144"><use href="#a"/><use href="#b" x="-.004" y="41.224"/><use href="#3"/><use href="#4" y="2.171"/><use href="#5" y="4.342"/><use href="#6" y="6.513"/><use href="#8" y="8.684"/><use href="#9" y="15.197"/><use href="#15" y="17.368"/><use href="#16" y="19.539"/><use href="#17" y="21.71"/><use href="#18" y="23.881"/><use href="#19" y="26.052"/><use href="#20" y="28.223"/><use href="#22" y="32.565"/><use href="#24" y="34.736"/><use href="#13" y="41.249"/></svg><svg x="12276"><use href="#a"/><use href="#3"/><use href="#4" y="2.171"/><use href="#5" y="4.342"/><use href="#6" y="6.513"/><use href="#8" y="8.684"/><use href="#9" y="15.197"/><use href="#15" y="17.368"/><use href="#16" y="19.539"/><use href="#17" y="21.71"/><use href="#18" y="23.881"/><use href="#19" y="26.052"/><use href="#20" y="28.223"/><use href="#22" y="32.565"/><use href="#24" y="34.736"/><use href="#13" y="41.249"/></svg><svg x="12408"><use href="#a"/><use href="#3"/><use href="#4" y="2.171"/><use href="#5" y="4.342"/><use href="#6" y="6.513"/><use href="#8" y="8.684"/><use href="#9" y="15.197"/><use href="#15" y="17.368"/><use href="#16" y="19.539"/><use href="#17" y="21.71"/><use href="#18" y="23.881"/><use href="#19" y="26.052"/><use href="#20" y="28.223"/><use href="#22" y="32.565"/><use href="#24" y="34.736"/><use href="#14" y="41.249"/></svg><svg x="12540"><use href="#a"/><use href="#b" x="-.004" y="41.224"/><use href="#3"/><use href="#4" y="2.171"/><use href="#5" y="4.342"/><use href="#6" y="6.513"/><use href="#8" y="8.684"/><use href="#9" y="15.197"/><use href="#15" y="17.368"/><use href="#16" y="19.539"/><use href="#17" y="21.71"/><use href="#18" y="23.881"/><use href="#19" y="26.052"/><use href="#20" y="28.223"/><use href="#22" y="32.565"/><use href="#24" y="34.736"/><use href="#14" y="41.249"/></svg><svg x="12672"><use href="#a"/><use href="#3"/><use href="#4" y="2.171"/><use href="#5" y="4.342"/><use href="#6" y="6.513"/><use href="#8" y="8.684"/><use href="#9" y="15.197"/><use href="#15" y="17.368"/><use href="#16" y="19.539"/><use href="#17" y="21.71"/><use href="#18" y="23.881"/><use href="#19" y="26.052"/><use href="#20" y="28.223"/><use href="#22" y="32.565"/><use href="#24" y="34.736"/><use href="#14" y="41.249"/></svg></svg></g><svg height="100%" width="100%" viewBox="0 0 100 100" class="container_end"><text text-anchor="middle" alignment-baseline="central"><tspan y="50" x="50" style="font-size: 50px;">❚❚</tspan></text></svg></g></svg></svg>
